<?xml version="1.0" standalone="no"?>
<!DOCTYPE svg PUBLIC "-//W3C//DTD SVG 1.1//EN" "http://www.w3.org/Graphics/SVG/1.1/DTD/svg11.dtd" >
<svg xmlns="http://www.w3.org/2000/svg">
<metadata>
This is a custom SVG webfont generated by Font Squirrel.
Designer    : Prachya Singhto
Foundry     : iannnnn
Foundry URL : http://f0nt.com
</metadata>
<defs>
<font id="webfontcOUEdWRY" horiz-adv-x="0" >
<font-face units-per-em="2048" ascent="1638" descent="-410" />
<missing-glyph horiz-adv-x="628" />
<glyph unicode=" "  horiz-adv-x="628" />
<glyph unicode="&#x09;" horiz-adv-x="628" />
<glyph unicode="&#xa0;" horiz-adv-x="628" />
<glyph unicode="!" horiz-adv-x="330" d="M174 791q4 21 17 30q11 8 23 8q2 0 4 -1q14 -1 25 -13q10 -11 10 -30q0 -55 -14 -143q-11 -69 -23.5 -137.5t-23.5 -138t-14 -139.5q-6 -17 -18.5 -24.5t-25 -6t-23 11.5t-12.5 28q3 70 14 139.5t23.5 138.5t23.5 138t14 139zM102 127q8 7 18 10q11 6 21 6q8 0 15 -3 q18 -8 24 -31q2 -11 2 -23q0 -19 -5 -40q-9 -34 -27 -57q-15 -18 -34 -18q-11 0 -23 6q-19 14 -25 33q-3 12 -3 25q0 8 1 15q4 21 14 41.5t22 35.5z" />
<glyph unicode="&#x22;" horiz-adv-x="509" d="M302 770q3 18 14 27.5t24 10t24.5 -7.5t16.5 -26q-2 -75 -13 -148.5t-25 -147.5q-6 -17 -19 -24q-10 -7 -20 -7l-4 1q-13 1 -23.5 11t-12.5 28q14 71 25 141t13 142zM158 791q4 21 17 30q11 8 23 8q2 0 4 -1q14 -1 25 -13q10 -11 10 -30q0 -24 -7 -69l-12 -64l-12 -66 q-6 -32 -7 -65q-6 -17 -19 -25q-10 -6 -20 -6h-4q-13 2 -23.5 12t-12.5 28q1 33 7 66l12 65q6 32 11.5 64.5t7.5 65.5z" />
<glyph unicode="#" horiz-adv-x="896" d="M149 135q-18 -11 -33.5 -7t-23.5 16q-8 9 -8 22q0 18 18 34l34 28q16 15 33 28q17 12 34 22l34 22q3 42 6.5 83.5t8.5 83.5q-21 -11 -40.5 -25t-33.5 -31q-14 -16 -29.5 -17.5t-27 7t-15.5 24t7 33.5q29 36 68 60t81 44l14 109q7 54 15 109q4 21 17 30t27 7.5t25 -13.5 t10 -33l-12 -83q-6 -42 -11 -84l59 28l61 28q5 46 11.5 91.5t17.5 90.5q10 16 24 22q8 3 15 3q5 0 10 -1q12 -4 20.5 -16t7.5 -30q-8 -32 -13 -63.5t-9 -63.5q33 12 66.5 22t68.5 18q18 1 30 -7.5t15.5 -20.5t-2 -25.5t-21.5 -23.5q-42 -9 -83.5 -22t-82.5 -30 q-4 -48 -5.5 -96t-2.5 -96q60 17 120 30.5t117 28.5q18 1 30 -7.5t15 -20.5q2 -5 2 -10q0 -7 -4 -15q-5 -14 -21 -24q-63 -16 -127.5 -30.5t-130.5 -32.5q1 -77 3 -153.5t3 -151.5q-1 -21 -12.5 -32t-25.5 -12h-1q-14 0 -26 10q-12 9 -14 30q-1 72 -3 143t-3 143 q-38 -12 -73.5 -26.5t-69.5 -31.5q-3 -48 -4.5 -96t-2.5 -96q-1 -21 -12.5 -32t-25.5 -11.5t-26.5 9t-14.5 30.5q0 38 1 74.5t3 74.5l-8 -6l-8 -6q-17 -13 -33 -27zM336 510q-5 -43 -9 -85l-8 -85q68 29 136 50q0 45 1 89.5t4 89.5z" />
<glyph unicode="$" horiz-adv-x="694" d="M355 855q4 21 17 30q11 8 23 8q2 0 4 -1q14 -1 25 -13t10 -33q-4 -24 -7 -48t-7 -48q28 -6 45 -11t31.5 -12.5t29.5 -18.5l41 -29q10 -14 10 -28q0 -15 -9 -25q-8 -10 -22 -13t-30 5q-14 10 -27 21t-29 18q-12 6 -25 9t-26 5l-13 -91l-13 -91q24 -8 47 -17t42.5 -20.5 t34 -26.5t21.5 -34l15 -39q7 -19 9 -40q1 -12 1 -24q0 -24 -5 -48q-8 -38 -25 -73.5t-41 -66.5t-50 -53q-18 -15 -45.5 -29t-58.5 -22q-4 -57 -7 -115t-4 -116q-1 -21 -12.5 -32t-25.5 -11l-1 -1q-14 0 -26 9q-12 10 -14 31q1 59 4 116.5t7 114.5q-25 7 -40 20l-22 22 l-22 21q-6 7 -9 10t-6 11q-14 36 -19.5 54.5t-7.5 35t-2 38.5t-1 64q3 18 14 27.5t24 10t24.5 -7.5t16.5 -26q1 -23 0 -43.5t0.5 -40t6 -38.5t16.5 -39q12 -22 34 -32q8 90 18 178.5t22 177.5l-34 10q-17 5 -30 10q-14 5 -26.5 12t-26.5 13q-10 5 -20.5 13t-19 18t-14 21.5 t-5.5 23.5q1 35 21.5 67t52 57.5t70 43.5t76.5 25q4 26 7.5 53t7.5 53zM442 370q-29 25 -70 41q-11 -83 -20 -165t-17 -165q25 11 45 28q42 35 68 87q24 51 24 103q0 45 -30 71zM201 568q16 -19 44 -31.5t61 -23.5q5 37 10.5 74t10.5 75q-20 -7 -39 -16t-36 -21 q-2 -2 -10 -8.5t-17 -15t-16.5 -18t-7.5 -15.5z" />
<glyph unicode="%" horiz-adv-x="616" d="M114 -10q-12 -14 -26 -17t-25 3t-17 18q-5 9 -5 20q0 5 1 11q41 78 94 149l106 141l118 154l122 150q15 12 30 12h2q16 -1 26 -11q11 -11 11 -28q0 -15 -12 -30q-62 -71 -119 -145l-113 -149l-103 -135q-51 -68 -90 -143zM359 202q18 15 38 12q26 16 48 10.5t38 -24 t26 -46t12 -56.5q1 -7 1 -14q0 -22 -5 -41q-6 -26 -21 -42q-30 -30 -57 -39q-14 -4 -27 -4q-12 0 -22 4q-23 7 -40 27.5t-25.5 48t-8.5 59t11 61.5q5 13 14.5 23t17.5 21zM159 618q6 2 11.5 2t11.5 -2q11 2 22 2q14 0 28 -4q26 -6 43 -23q13 -14 17 -32.5t1 -37.5t-10 -37 t-14 -33q-6 -12 -19 -23.5t-26 -16.5q-21 -9 -46 -8t-46 10.5t-34 28.5q-12 17 -12 40v7q1 17 3 28t5.5 21t9.5 20l13 25q5 9 10 15.5t13 11.5q4 3 8 4l8 2l4 2q1 0 0 -1zM429 141q-12 -5 -21 -4q-6 -8 -8 -12q-3 -5 -4 -11.5t-3 -12.5q-4 -33 5 -47q8 -14 18 -14h2 q11 2 20 18q4 9 4 22q0 9 -2 21q-2 11 -3.5 21.5t-7.5 18.5zM192 537q-4 -3 -12 -7q-1 -1 -1 0q-1 -1 -2 -1q-8 -14 -11 -27q-1 -4 -1 -6q0 -9 8 -12q3 -1 6 -1q6 0 11 3q9 6 15 15.5t9 20.5q1 5 1 9q0 5 -2 8h-5q-8 0 -16 -2z" />
<glyph unicode="&#x26;" horiz-adv-x="822" d="M621 113q12 -17 9.5 -32.5t-13 -24.5t-26.5 -9t-31 15q-39 40 -73 85l-20 -25l-20 -26q-12 -15 -32.5 -33.5t-45.5 -33.5t-51 -23q-14 -4 -27 -4q-11 0 -21 3q-20 6 -36 18.5t-33 23.5q-7 5 -14.5 17t-13.5 25.5t-10 24t-5 12.5q-7 19 -7 39q0 22 7 45q16 47 45.5 92.5 t64 85.5t58.5 65q-2 8 -3.5 16t-3.5 16q-7 38 -13 75l-11 76q-2 15 -2 32q0 19 3 40q6 38 23.5 69t46.5 50q24 15 54 15q8 0 17 -1t13 -3l10 -8q11 -8 22 -15t21 -15q17 -14 26.5 -39.5t12 -54.5t-1 -56.5t-11.5 -43.5l-25 -52q-12 -26 -27 -52q-8 -14 -25.5 -33.5 t-34.5 -36.5q14 -39 32 -76.5t40 -73.5q40 66 70.5 134t48.5 121q10 16 23.5 21.5t25.5 2t20.5 -15.5t7.5 -30q-29 -81 -66 -155t-84 -144q20 -28 41.5 -53.5t44.5 -49.5zM327 97q30 18 59 47t55 66q-25 38 -47 77t-39 81q-27 -29 -51.5 -61t-44.5 -67q-24 -45 -24 -79v-7 q3 -36 53 -67q10 2 20 3.5t19 6.5zM407 757q-20 -26 -27 -55q-7 -26 -7 -53q0 -30 7 -63l13 -61l9 11q5 5 7 9q14 23 26 46t20 47q4 14 5 36q1 5 1 10q0 16 -3 30q-5 20 -17 33q-10 11 -26 11q-4 0 -8 -1z" />
<glyph unicode="'" horiz-adv-x="502" d="M206 658q3 18 14 27.5t24 10.5h2q12 0 22 -8q12 -8 17 -26q0 -50 -6 -98t-16 -97q-7 -20 -21 -27q-9 -4 -18 -4q-5 0 -10 2q-14 4 -23 18q-6 9 -6 21q0 6 1 12q0 2 1 3v1v2q1 5 1.5 9t2.5 8q7 37 11 73t4 73z" />
<glyph unicode="(" horiz-adv-x="456" d="M284 854q14 12 28 12q1 1 2 1q14 0 23 -7q10 -8 14 -22q2 -6 2 -12q0 -9 -4 -19l-27 -37q-13 -18 -24 -38q-21 -36 -41 -83.5t-36.5 -101t-27.5 -110t-13 -110.5v-21q0 -43 6 -83q8 -50 30 -89q10 -18 24.5 -32.5t27.5 -30.5q12 -17 9.5 -32.5t-13 -24.5t-26.5 -9t-31 15 l-29 34l-29 35q-15 19 -24 48t-14.5 61.5t-7.5 63t-2 52.5q2 148 52 284t131 256z" />
<glyph unicode=")" horiz-adv-x="459" d="M90 806q-6 12 -6 22q0 4 1 8q3 14 12.5 22t24.5 8q0 1 1 1q14 0 28 -10q71 -38 116.5 -94.5t69 -125.5t25.5 -148v-17q0 -71 -14 -146q-17 -83 -50.5 -168.5t-81.5 -167.5q-11 -18 -26 -24q-9 -5 -18 -5q-4 0 -9 1q-13 4 -20.5 17t-3.5 33q37 56 69 127.5t51 149 t23 155.5q1 14 1 27q0 63 -15 119q-18 70 -61 126t-117 90z" />
<glyph unicode="*" horiz-adv-x="835" d="M175 220q-16 -9 -30.5 -7.5t-23.5 10.5q-11 11 -11 28q0 12 8 26l84 81l87 76q-44 38 -82 80.5t-69 92.5q-9 19 -4 34t17.5 22t28 4t27.5 -20q27 -46 64 -86t80 -76l2 2q11 60 18.5 119.5t10.5 120.5q4 21 17 30q11 8 23 8q2 0 4 -1q14 -1 25 -13t10 -33q-2 -42 -6 -81.5 t-10 -80.5l91 62q45 29 94 57q20 7 34.5 1t20.5 -18q4 -8 4 -17q0 -5 -2 -11q-4 -16 -22 -27q-64 -36 -123 -76t-116 -84l-3 -15q54 -40 109 -76l105 -73q10 -15 9.5 -29.5t-8.5 -24t-22 -12.5t-30 5l-88 62l-90 62q-11 -65 -20.5 -129t-12.5 -130q-6 -17 -19 -25 q-10 -6 -20 -6h-4q-13 2 -23.5 12t-12.5 28q3 69 13 137t22 136l-79 -71z" />
<glyph unicode="+" horiz-adv-x="607" d="M141 289q-14 -16 -29.5 -17.5t-27 7t-15.5 23.5q-1 5 -1 9q0 12 8 25q5 5 11.5 13.5t13.5 12.5q25 14 64.5 23.5t85.5 14.5q5 51 8 102t5 102q3 18 14 27.5t24 10.5h2q12 0 22 -8q12 -8 17 -26q-2 -51 -5 -101t-8 -101q31 1 60 1q22 0 44 -1q49 -1 84 -4q18 -5 26 -16 t8 -23q0 -14 -10 -26q-10 -11 -28 -14q-43 5 -86 5h-9q-48 -1 -96 -4q-4 -49 -7.5 -98t-4.5 -98q-1 -21 -12.5 -32t-25.5 -12h-1q-14 0 -26 10q-12 9 -14 30q1 48 4 96t8 96q-5 -1 -10 -1.5t-10 -1.5t-17 -2.5t-24.5 -4.5t-24.5 -7t-17 -10z" />
<glyph unicode="," horiz-adv-x="444" d="M195 167q3 18 14 27.5t24 9.5q1 1 2 1q12 0 23 -8t16 -26q-2 -91 -19 -174.5t-55 -166.5q-12 -14 -26 -17q-5 -1 -9 -1q-9 0 -16 4q-11 6 -17 18q-5 9 -5 20q0 5 1 11q35 75 50 148t17 154z" />
<glyph unicode="-" horiz-adv-x="554" d="M115 282q-6 -1 -11 -1q-11 0 -20 5q-12 6 -18 17q-4 7 -4 16q0 4 1 9q3 14 17 26q40 22 91.5 34t106 17.5t109 6.5t99.5 1q18 -5 26 -17q8 -10 8 -22q0 -14 -10 -26q-10 -11 -28 -14q-39 -1 -88.5 -1.5t-99.5 -5t-97 -15t-82 -30.5z" />
<glyph unicode="." horiz-adv-x="252" d="M88 4q-10 13 -10 31q-5 9 -5 20q0 6 1 12q4 16 13 28.5t23 18.5q17 8 31 8q7 0 13 -2q18 -6 28.5 -22t13.5 -38v-12q0 -15 -4 -30q-7 -19 -23 -33t-41 -14q-35 4 -40 33z" />
<glyph unicode="/" horiz-adv-x="510" d="M336 713q10 16 24 21q8 4 15 4q5 0 10 -2q12 -3 20.5 -15t7.5 -30q-27 -86 -58 -171l-63 -168l-65 -168q-32 -85 -60 -171q-7 -20 -21 -27q-9 -4 -18 -4q-5 0 -10 2q-14 4 -23 18q-6 9 -6 21q0 6 1 12q29 86 61 171l65 168l63 168q31 85 57 171z" />
<glyph unicode="0" horiz-adv-x="680" d="M136 199q4 67 26 131.5t54 125.5q-14 -10 -28 -8.5t-23.5 10.5t-11.5 23t8 31q39 58 94 99q22 16 45 30.5t49 22.5q29 9 47 12q7 1 18 1q12 0 28 -2q30 -3 51.5 -21t36.5 -45.5t23.5 -61t11.5 -67.5q2 -23 2 -44q0 -11 -1 -21q-1 -31 -5 -53q-9 -47 -29.5 -94t-49.5 -86 q-15 -21 -46.5 -54.5t-69.5 -63t-78 -46.5q-22 -9 -42 -9q-15 0 -28 5l-16 8l-18 10q-8 4 -11.5 6t-9.5 9q-9 13 -15 29l-10 29q-6 18 -6 37v10zM485 495q-4 21 -10 40.5t-15.5 34t-23.5 21.5q-11 5 -24 5q-6 0 -12 -1q-58 -79 -106 -165.5t-70 -184.5q-6 -26 -9 -51 q0 -11 -1 -23v-12v-13q1 -12 3.5 -24.5t9.5 -22.5q4 -7 13 -7h4q12 2 24 6.5t22 10.5t12 7q35 22 63 51t52 62q42 57 61 127q11 44 11 87q0 26 -4 52z" />
<glyph unicode="1" horiz-adv-x="429" d="M222 584q-15 -6 -28 -3t-21 12t-9 23t8 29q9 10 17 20.5t18 19.5q12 12 29 19q16 7 31 7q1 0 2 -1q16 0 29 -10t17 -32q1 -4 1 -10q0 -9 -2 -23q-3 -23 -7.5 -48.5t-9 -48t-5.5 -31.5q-2 -17 -4.5 -34t-5.5 -34q-5 -35 -11 -69l-12 -69q-3 -21 -6 -37t-5 -31l-4 -31 q-2 -17 -5 -38q-3 -26 -4 -40t-2 -24.5t-1 -22.5t-1 -35q-1 -21 -12.5 -32t-25.5 -12h-1q-14 0 -26 10q-12 9 -14 30q2 69 9.5 137.5t18 136.5t22 135.5t20.5 135.5v1z" />
<glyph unicode="2" horiz-adv-x="677" d="M233 539q-18 -3 -30.5 3.5t-18.5 17.5t-3 25t17 26q34 17 67 28t71 16q15 3 30 3t29 -3q36 -4 62 -20t39.5 -40t13.5 -55t-17 -64q-23 -47 -53 -89l-63 -84l-54 -72l-25 -35q-13 -17 -25 -35l-24 -31q-13 -18 -23 -38h1q24 8 47 14l46 14q48 14 94.5 25.5t95.5 16.5 q21 1 33 -10q14 -13 14 -29q0 -12 -8 -23q-9 -13 -30 -17q-69 -7 -135 -27l-134 -40l-23 -7q-13 -4 -27 -5q-5 -1 -11 -1q-7 0 -15 1q-12 2 -21 11q-15 14 -17 31q-1 7 -1 14q0 11 2 22q4 18 13 34.5t18 30.5q27 42 57 83l60 80l59 80q30 41 57 83q23 37 25.5 60t-11 34 t-40.5 11.5t-63 -8.5q-16 -4 -25 -6.5t-16.5 -5.5t-15.5 -7.5t-22 -11.5z" />
<glyph unicode="3" horiz-adv-x="631" d="M208 530q-18 -11 -33.5 -7t-24 15.5t-7 27t17.5 29.5q20 16 38 32t37 29t40 23t47 15q13 2 25 2q18 0 33 -4q26 -9 42.5 -28t23 -46t0.5 -57q-4 -20 -14 -39l-20 -38l-9 -16l-11 -15q28 -7 48.5 -25t31 -44t11.5 -57q1 -4 1 -9q0 -27 -8 -55q-7 -26 -24.5 -61 t-41.5 -72.5t-53 -75.5t-59.5 -71.5t-61 -58.5t-57.5 -37q-6 -1 -11 -1q-11 0 -19 4q-13 7 -19 18q-4 7 -4 16q0 4 1 9q3 14 17 26q34 15 68 47.5t64.5 71.5t55.5 80t42 73l9 17l10 21t9 23t5 21q2 27 -6 41t-22.5 19t-32.5 2t-37 -11q-20 -8 -38.5 -19.5t-37.5 -21.5 q-8 -6 -11 -8l-2 4q-16 -2 -27.5 5t-16 18.5t-1.5 25t17 24.5l46 33q20 14 37.5 28t33.5 30.5t34 42.5q19 28 24 49.5t-3.5 32t-29 8t-51.5 -23.5q-20 -13 -38 -30z" />
<glyph unicode="4" horiz-adv-x="637" d="M271 657q11 18 27 22q6 2 11 2q9 0 17 -4q12 -6 18 -20.5t-1 -34.5q-24 -40 -49.5 -87.5t-47.5 -97.5t-36.5 -101t-16.5 -99q36 5 67.5 24t63.5 36q8 29 19 53t26 41q16 18 34.5 21t37 -5t34.5 -24t28 -35.5t18 -39.5q4 -13 4 -25q0 -6 -1 -11q-4 -21 -14 -27.5 t-22.5 -5.5t-26 5t-24.5 3q-23 0 -44 -6q-9 -40 -13.5 -86t-7.5 -90.5t-4.5 -82.5t-3.5 -62q-6 -17 -18 -24q-11 -7 -21 -7l-5 1q-12 1 -22.5 11t-12.5 28q2 24 3.5 54.5t3 65.5t4.5 72.5t8 74.5q-22 -12 -46 -22.5t-47 -15.5t-42.5 -1.5t-31.5 20.5q-8 11 -16 23.5t-8 26.5 q1 18 1 31.5t4 29.5q6 24 9.5 39.5t7.5 29l9 29.5l15 39q23 60 51.5 118t60.5 114zM494 314h-2h-1h3z" />
<glyph unicode="5" horiz-adv-x="626" d="M157 475q3 10 6 19t6 19q-11 8 -15 24t7 34q25 30 55 52t63.5 38.5t69 30t71.5 25.5l1 1q10 5 19.5 8t19.5 7q11 4 20 4q8 0 14 -3q15 -6 21 -18q4 -8 4 -17q0 -5 -2 -11q-4 -16 -22 -27q-28 -11 -59 -21l-62 -21q-31 -11 -60 -25.5t-53 -34.5q2 -10 2 -17l-23 -73 q-12 -36 -21 -74q10 6 20 13t19 11q23 11 49.5 12t50.5 -7.5t43.5 -25.5t29.5 -43q23 -59 23 -119q0 -29 -6 -58q-16 -91 -67 -168q-15 -23 -34.5 -45t-43 -37.5t-50.5 -21.5q-12 -3 -24 -3q-16 0 -33 5q-18 10 -23.5 25t-0.5 28t19 20.5t34 1.5q1 0 1.5 -0.5t1.5 -0.5 q18 0 39 17.5t40.5 45.5t36 64t24.5 73q8 31 8 62v11q-2 36 -17 64q-5 9 -15 19.5t-23 13.5t-26 -2t-27 -13.5t-28 -18t-28.5 -15.5t-29 -5.5t-29.5 11.5q-12 10 -17 24q-3 11 -3 23v5q1 12 3.5 23.5t4.5 22.5q4 17 7.5 34t8.5 34zM444 726q-2 -1 -2.5 -1t-2.5 -1q1 0 5 2z M437 723h-2h2z" />
<glyph unicode="6" horiz-adv-x="610" d="M375 740q15 12 30 12h2q16 -1 26 -11t11 -26t-12 -32q-34 -38 -63 -82.5t-52 -93.5t-41.5 -100t-31.5 -102l33 21q6 3 15.5 7t20 8t21 6.5t19.5 2.5q8 0 27 0.5t31 -4.5q28 -14 44.5 -40t21.5 -58q2 -15 2 -30q0 -16 -3 -34q-5 -32 -20 -57l-26 -41q-9 -15 -19 -25.5 t-23.5 -20.5t-38.5 -27q-9 -6 -21 -11t-25.5 -8t-26.5 -4h-3q-11 0 -20 4l-31 14q-15 7 -29 17q-23 17 -34 49q-7 5 -11.5 13.5t-5.5 19.5v26q0 12 2 24q-2 28 0.5 53t7.5 42l38 131q19 65 45 127t59.5 120.5t80.5 109.5zM316 256q-38 -21 -61 -48t-31 -65q2 -16 7.5 -30.5 t14.5 -25.5q12 -16 28 -16q5 0 9 1q22 5 43 21.5t37 37.5t21 33q7 15 10 31q3 23 3 38q0 17 -7 26q-7 10 -19 11q-3 1 -6 1q-10 0 -21 -3q-15 -5 -28 -12z" />
<glyph unicode="7" horiz-adv-x="568" d="M133 612l2 -2q18 -5 40 -5q13 0 27 1q39 5 80 15t80 23l69 22q8 3 15 3q3 0 6 -1q10 -2 17 -9t10 -17.5t3 -20.5q-10 -58 -29 -113l-39 -110q-32 -91 -56.5 -179.5t-30.5 -185.5q-6 -17 -19 -25q-10 -6 -20 -6h-4q-13 2 -23.5 12t-12.5 28q6 100 31 192t58 186l27 73 q13 36 24 74q-44 -14 -90 -25t-91 -14q4 -15 -1.5 -27t-16 -18t-24.5 -4t-27 15q-11 17 -19 28t-25 21q-13 13 -15 27q-1 4 -1 7q0 10 5 17q6 11 19 16.5t30 0.5z" />
<glyph unicode="8" horiz-adv-x="654" d="M374 655q17 1 27.5 -6t15.5 -18q18 18 37 35l40 32q10 4 19 4q6 0 12 -2q14 -4 21 -14q8 -9 8 -23q0 -15 -13 -30q-65 -51 -113 -114t-81 -136q20 -11 39 -24t34 -30q15 -16 23 -36.5t17 -40.5q12 -25 8 -59.5t-17 -68.5t-32 -63.5t-37 -44.5q-13 -11 -27.5 -18 t-29.5 -15q-5 -3 -13 -3h-2q-10 1 -20 2.5t-18.5 3.5t-11.5 3q-11 2 -16.5 10t-10.5 17q-14 28 -20 43.5t-8 30.5t-0.5 35.5t3.5 58.5q2 37 11.5 79.5t26.5 86.5q-29 15 -54.5 33t-42 40.5t-19.5 50.5v9q0 26 14 58q7 15 20 27.5t27 21.5q16 10 24.5 16t16.5 10l18 7 q9 4 27 11q24 10 47.5 14.5t49.5 6.5zM329 303q-3 2 -5.5 3.5t-5.5 3.5q-5 -16 -9.5 -32t-8.5 -32l-10 -46q-5 -23 -6.5 -46.5t1.5 -46.5t13 -44h4q19 0 34 17q17 20 29 47.5t17 56.5q3 17 3 30q0 7 -1 13q-3 14 -10 26.5t-15 24.5q-1 3 -5.5 7t-9.5 8l-10 7q-4 3 -5 3z M275 421q20 43 44 82.5t48 71.5q-15 -2 -24 -4t-31 -9q-6 -2 -26 -10.5t-39.5 -20.5t-31.5 -27q-7 -8 -7 -16q0 -6 4 -12q12 -18 28.5 -31t34.5 -24z" />
<glyph unicode="9" horiz-adv-x="595" d="M434 636q17 -9 20 -32q1 0 2 -0.5t2 -0.5l-3 -9q-2 -7 -4.5 -13t-4.5 -12q-50 -146 -86.5 -298t-48.5 -306q-6 -17 -19 -25q-10 -6 -20 -6h-4q-13 2 -23.5 12t-12.5 28q8 110 30.5 221.5t53.5 221.5l-6 -4l-6 -4q-32 -24 -65.5 -38.5t-60 -11.5t-41.5 27q-12 20 -12 58 q0 10 1 21q2 24 15 52t34 55.5t47.5 51t55.5 38.5t58 19q8 1 15 1q21 0 41 -9q13 -5 22.5 -15.5t19.5 -20.5v-1zM204 441q24 6 47.5 23.5t45 39t39.5 44.5l32 43q-3 3 -5.5 5t-5.5 4q-6 4 -13 4q-9 0 -19 -6q-19 -9 -37.5 -25.5t-33.5 -34t-21 -26.5l-9 -14 q-6 -9 -10.5 -18.5t-7.5 -19.5t-2 -19z" />
<glyph unicode=":" horiz-adv-x="525" d="M179 150q0 3 2 9q-5 17 7 38l1 2q2 2 4 5t4 8q9 16 25 28t33 16.5t33.5 -2t26.5 -28.5q9 -19 0.5 -44t-26 -46t-40.5 -34q-16 -9 -31 -9q-6 0 -13 2q-14 8 -20 16t-8 24q1 4 1 7.5t1 7.5zM236 392q-19 2 -28.5 12t-11.5 23q-1 4 -1 8q0 6 2 11q4 14 10 25t14 22 q15 22 33 39q12 10 28 14q8 2 15 2t13 -2q14 -3 24 -14q11 -11 11 -31q0 -15 -11 -32q-11 -19 -28 -36t-36.5 -29t-33.5 -12z" />
<glyph unicode=";" horiz-adv-x="525" d="M170 -77q6 14 16 35l22 44q11 23 20.5 47t14.5 46q-14 3 -24.5 16.5t-5.5 35.5q6 23 23.5 35t37 12.5t36 -12t19.5 -38.5q3 -27 -6 -61t-23 -69t-30.5 -68t-27.5 -58q-12 -14 -26 -17q-5 -1 -9 -1q-9 0 -16 4q-11 6 -17 18q-5 9 -5 20q0 5 1 11zM200 422q0 2 2 4 q6 36 27 65.5t54 47.5q12 4 22 4q9 0 17 -3q15 -8 21 -31q0 -16 -3 -35.5t-13 -38.5t-27.5 -36.5t-47.5 -28.5q-6 -1 -12 -1q-18 0 -29.5 11.5t-11.5 29.5q0 6 1 12z" />
<glyph unicode="&#x3c;" horiz-adv-x="541" d="M369 656q15 12 30 12h2q16 -1 26 -11q11 -11 11 -28q0 -15 -12 -30l-83 -81l-84 -82l-20 -18l-19 -18l-22 -20q33 -41 58 -87l48 -93l48 -92q25 -45 60 -85q12 -17 9.5 -32.5t-13 -24.5t-26.5 -9t-31 15q-51 58 -85 124l-67 135q-16 32 -38 65q-5 8 -10.5 14.5 t-10.5 14.5l-1 1q-6 2 -12 3t-12 3q-17 10 -23 22q-5 7 -5 18q0 6 2 13q12 24 36 41.5t43 34.5l102 97z" />
<glyph unicode="=" horiz-adv-x="579" d="M158 202q-6 -1 -11 -1q-11 0 -19 5q-13 6 -19 17t-3 25t17 26q80 38 165 48q33 5 67 5q51 0 104 -10q20 -6 27 -19q6 -10 6 -20q0 -4 -1 -8q-3 -14 -15.5 -23.5t-33.5 -7.5q-43 8 -85 8q-103 0 -199 -45zM131 373q-6 -1 -11 -1q-11 0 -20 4q-12 7 -18 18q-4 7 -4 16 q0 4 1 9q3 14 17 26q83 32 168 40q36 3 72 3q50 0 101 -6q20 -6 27 -20q6 -9 6 -19q0 -4 -1 -8q-3 -14 -15.5 -23.5t-33.5 -7.5q-43 5 -85 5q-31 0 -61 -3q-73 -6 -143 -33z" />
<glyph unicode="&#x3e;" horiz-adv-x="568" d="M116 607q-16 9 -22 22q-4 9 -4 18v7q3 13 14 22t29 9q46 -6 82 -30.5t71 -53.5q26 -20 54 -37l54 -33q26 -16 42.5 -29.5t22.5 -27.5q3 -8 3 -16t-3 -18q-6 -18 -25 -45l-18 -25l-14 -19l-13 -19l-17 -27q-11 -16 -19 -29l-16 -27l-16 -27l-18 -30q-31 -52 -59 -105 l-55 -108q-12 -14 -26 -17q-5 -1 -9 -1q-9 0 -16 4q-11 6 -17.5 18.5t-3.5 30.5q35 73 73.5 143.5t81.5 139.5l34 53l34 51l15 21q7 9 14 20q1 1 5 7q-1 1 -2 1.5t-2 1.5q-12 8 -24.5 15.5t-25.5 14.5q-25 15 -50 35l-50 39q-26 18 -51.5 32.5t-52.5 18.5zM384 462 q1 2 1 2.5t-1 -1.5v-1z" />
<glyph unicode="?" horiz-adv-x="522" d="M165 546q-16 -9 -30.5 -7.5t-23.5 10.5q-11 11 -11 28q0 12 8 26q22 21 46 41t50 34.5t55 22.5q21 6 44 6q8 0 17 -1q17 -2 32 -10l30 -16q21 -11 30.5 -36.5t11.5 -46.5q2 -17 2 -35q0 -37 -8 -76q-13 -58 -34.5 -116t-47 -114t-45.5 -104q-2 -8 -3 -15t-3 -15l2 -4 q5 -17 -0.5 -30.5t-16 -20t-25 -4.5t-27.5 15q-10 18 -11.5 37t2.5 37.5t11 37t15 36.5l41 88q23 50 41 102.5t25 103.5q2 16 2 31q0 34 -11 63q-26 12 -48.5 9.5t-43 -13.5t-39.5 -28zM241 42q13 11 27 12h4q11 0 20 -6q10 -6 15 -18q3 -7 3 -15q0 -7 -2 -14q2 -5 2 -12 q0 -4 -1 -9q-2 -11 -11 -22l-13 -10q-6 -4 -14 -8q-7 -1 -13 -1t-10 1q-10 2 -20 10q1 -1 -0.5 2t-4.5 8l-6 10q-3 6 -3 14q0 16 8 30q10 16 19 28z" />
<glyph unicode="@" horiz-adv-x="744" d="M342 523q24 -3 36.5 -17.5t20.5 -34.5q2 1 4.5 1t4.5 1q16 1 25.5 -3.5t18.5 -18.5q11 -26 -1 -57.5t-37 -61.5q0 -13 3 -25q24 10 48 35t42.5 58t29.5 70q10 32 10 62q0 4 -1 8q-1 34 -16.5 61t-49.5 40q-25 11 -54.5 4t-52.5 -18q-16 -8 -31 -18t-29 -22 q-149 -126 -149 -307q0 -32 5 -66q7 -45 24.5 -87t46 -71t68.5 -42q19 -6 40 -6q24 0 50 7q29 7 50.5 17t41 23t38.5 28t44 33q17 6 31 2t21 -14q8 -9 8 -23q0 -15 -13 -30l-57 -42q-20 -15 -37.5 -25.5t-39.5 -19.5l-62 -26q-24 -9 -53 -12h-15q-21 0 -39 5 q-59 16 -96 38.5t-61 54.5t-39 75t-29 99q-11 46 -11 91q0 30 4 59q13 73 48 138t88 119t115 93q39 24 87 28h17q38 0 73 -12q43 -16 74 -49.5t37 -82.5q2 -19 2 -39q0 -21 -3 -44q-5 -43 -19.5 -84t-37.5 -77.5t-53 -64.5q-1 -1 -6 -5t-12 -9l-14 -10q-7 -5 -11 -7 q-33 -15 -58 -15q-12 0 -21 3q-30 12 -44 42q-21 -14 -42.5 -22.5t-41.5 -10t-37 4.5t-29 22q-12 17 -12.5 43.5t8.5 56t25 58.5t36.5 52t43 36.5t45.5 10.5zM336 366q2 9 3.5 17.5t4.5 16.5q-5 9 -10 22q-2 3 -3 7t-3 8l-2 -2q-11 -8 -20 -22q-17 -22 -25.5 -43.5 t-15.5 -48.5q17 0 36.5 14.5t34.5 30.5z" />
<glyph unicode="A" horiz-adv-x="634" d="M155 33q-7 -18 -20 -26t-26 -6.5t-24 12t-13 29.5q3 49 13 96t24.5 92.5t31.5 89.5l34 90l35 96q18 48 42 93q9 17 20.5 41t25.5 47t30 42t33 27q13 6 23 6h4q11 -2 25 -12q13 -11 19 -37.5t7.5 -56.5t1 -57t-0.5 -40l4 -99q2 -49 5 -97q62 9 126 12q18 -5 27 -17 q8 -12 8 -24q0 -15 -11 -28q-10 -11 -29 -14q-57 -3 -113 -12q6 -67 15.5 -133.5t25.5 -133.5q0 -19 -9.5 -30.5t-22.5 -14.5h-8q-9 0 -19 4q-14 6 -23 23q-16 68 -26 134t-16 133q-48 -14 -95 -31.5t-95 -40.5q-11 -38 -19 -76.5t-10 -80.5zM251 374q-8 -20 -14.5 -38 t-14.5 -37q37 15 72.5 26.5t72.5 20.5q-4 52 -6.5 103.5t-4.5 104.5l-2 55q-14 -24 -25 -46t-14 -27q-19 -40 -33 -80z" />
<glyph unicode="B" horiz-adv-x="688" d="M163 80q4 131 14.5 258.5t15.5 257.5q-13 0 -23 7t-14 18q-2 6 -2 13q0 5 1 11q3 13 16 24l32 27l17 14q8 6 19 12l35 17q37 18 76 18h4q42 -1 73.5 -20.5t46.5 -54.5q7 -19 7 -40t-7 -45q-6 -20 -13 -38.5t-15 -37.5q28 2 51.5 -5t40 -24t22.5 -45q4 -15 4 -32t-3 -36 q-7 -43 -24.5 -83t-41.5 -77.5t-53 -71.5t-58 -64l-33 -32q-19 -18 -41 -32.5t-46 -21.5q-13 -3 -25 -3t-24 3q-11 4 -21 15l-19 19q-13 12 -15 25t3 24zM256 345q-5 -67 -8.5 -134t-5.5 -134q17 2 37.5 17t43 37.5t44 50t40.5 54.5t33 51.5t21 40.5q14 35 20 63q3 12 3 22 q0 12 -4 20q-8 14 -31.5 12t-69.5 -26q-43 -48 -100 -74q-12 -3 -23 0zM273 649q-2 -54 -4.5 -107t-6.5 -107q16 14 33 25l34 23q25 29 41.5 62.5t24.5 67.5q3 14 3 25q0 16 -6 24q-12 14 -32 15h-4q-18 0 -40 -8q-25 -9 -43 -20z" />
<glyph unicode="C" horiz-adv-x="625" d="M491 626q-1 -21 -12 -32t-25 -12t-26.5 8t-15.5 28v-1q0 1 -0.5 5.5t-1.5 6.5q-1 3 -8 18l-10 24l-31 9q-11 -11 -23 -19.5t-20 -21.5q-30 -46 -54.5 -108t-38.5 -129t-17 -133v-22q0 -53 10 -99q4 -14 13 -26.5t17 -26.5q14 -1 27 -2.5t27 -1.5q17 1 34 18t32.5 38.5 t29 43.5t23.5 34q16 13 32 12t26 -11t11 -26t-12 -32q-12 -14 -22 -30l-20 -31q-9 -16 -20.5 -30.5t-26.5 -26.5q-35 -28 -77 -38q-20 -5 -39 -5q-20 0 -39 5q-37 11 -64 41.5t-31 83.5q-2 32 -6 63q-3 24 -3 49v13q4 114 35.5 215t82.5 202q6 11 15 21t19 19l21 17l17 14 q8 7 16 12q6 3 13 3q3 0 6 -1q35 -8 59 -17t40 -23.5t24.5 -38t12.5 -59.5zM411 633q0 -6 1 -8v7l-1 2v-1z" />
<glyph unicode="D" horiz-adv-x="657" d="M131 606q-14 -16 -29.5 -17.5t-27 7t-15.5 24.5q-1 4 -1 8q0 12 8 25l22 35l21 34q13 19 31.5 30t39.5 16.5t42.5 7.5t40.5 4q10 1 20 1q25 0 49 -7q33 -10 63.5 -28t57.5 -41t50 -46q17 -17 26 -38t19 -42q11 -20 12 -43.5t3 -46.5q1 -9 1 -18q0 -10 -2 -20 q-3 -19 -8 -38q-13 -57 -40 -106.5t-63.5 -93.5t-80 -82t-88.5 -71q-17 -12 -36 -20l-36 -18q-19 -8 -37 -18t-33 -24q-14 -8 -26 -8h-4q-15 2 -24 11t-10.5 23.5t7.5 30.5q15 13 28 21q-2 2 -2 4q-6 21 -0.5 50t16.5 60t23.5 59.5t20.5 48.5q38 103 62.5 208.5t29.5 214.5 q-22 0 -48 -8q-19 -6 -30 -14.5t-19 -19.5t-16 -25zM198 127q-5 -16 -8 -28l23 12q11 6 22 14q41 29 85.5 68t81 85t59.5 98q22 50 22 102q0 33 -12 68q-11 31 -30.5 58t-45.5 48.5t-56 34.5q-7 -108 -31 -210.5t-58 -205.5q-12 -36 -26 -71.5t-26 -72.5z" />
<glyph unicode="E" horiz-adv-x="587" d="M154 728q3 17 14 26t23 10t23 -7t16 -25v-7q14 4 28 7t25 6q55 12 109 20.5t111 10.5h3q18 0 28 -9q13 -13 13 -28q0 -11 -7 -22q-9 -12 -29 -16q-39 -2 -76.5 -7t-75.5 -12q-29 -6 -64.5 -16.5t-68.5 -16.5q-4 -45 -7.5 -89t-10.5 -89q54 28 107.5 49t115.5 26 q20 1 31 -9.5t12.5 -24t-7 -26t-28.5 -16.5q-67 -5 -127 -34l-117 -60l-25 -147q-12 -74 -14 -149l94 34q47 17 97 24q28 5 55 6t55 3q20 1 31 -9.5t12.5 -24t-7 -26t-28.5 -16.5q-34 -3 -55.5 -4t-39.5 -3.5t-37.5 -6.5t-49.5 -13q-39 -11 -74.5 -26t-76.5 -18 q-11 2 -17.5 5t-14.5 11q-5 9 -10.5 16.5t-8.5 17.5q-5 18 -5 43v8q1 30 5.5 62t10.5 62.5t9 52.5l28 187q14 93 20 188q-8 6 -12 14.5t-3.5 17.5t5.5 17t14 13q0 5 0.5 10t0.5 10z" />
<glyph unicode="F" horiz-adv-x="572" d="M126 738q5 25 23 33.5t34 -0.5q35 16 73.5 23.5t78 10.5t79.5 3h77q18 -5 26 -16t8 -23q0 -14 -11 -26q-9 -11 -27 -14q-34 0 -71 1h-11l-63 -3q-37 -3 -72.5 -11t-66.5 -25q-2 -54 -5 -106.5t-8 -105.5q105 42 221 46q18 -5 26 -16.5t7.5 -24.5t-10 -24t-27.5 -14 q-60 -2 -115 -17t-109 -41q-8 -88 -13.5 -175.5t-7.5 -175.5q-1 -21 -12.5 -32t-25.5 -11l-1 -1q-14 0 -25 9q-13 10 -15 31q3 159 18 317t22 316q-15 10 -17.5 30t17.5 37q1 1 1.5 1t1.5 1v3z" />
<glyph unicode="G" horiz-adv-x="644" d="M277 280q-18 -3 -31.5 3.5t-19 18t-2.5 25.5t17 26q75 32 151.5 56.5t156.5 41.5q19 1 31 -7.5t16 -21.5q1 -4 1 -9q0 -8 -3 -17q-6 -13 -22 -23q-23 -5 -42 -10q2 -10 2 -18l-28 -85q-17 -51 -42 -102.5t-58 -92.5t-76 -53l-40 -10q-21 -5 -42 -6q-9 0 -19.5 3.5 t-20 8.5t-17.5 10t-14 8q-26 13 -42 42t-25 62.5t-12 67.5q-3 26 -3 46v11q2 44 6.5 86.5t17.5 84.5q18 60 31 109.5t32 91t49 76t82 66.5q8 5 19 5q4 1 8 1q8 0 16 -1q12 -1 22 -3.5t16 -3.5q30 -5 51 -25t35 -47.5t22.5 -57.5t11.5 -54q2 -13 -5 -28.5t-10 -24.5 q-7 -20 -22 -27t-29 -2.5t-23 18t-5 34.5q3 8 6.5 14.5t3.5 14.5q1 22 -10 48t-29 43.5t-40.5 19t-44.5 -26.5q-44 -56 -68 -125.5t-40 -137.5q-17 -76 -20 -149q-1 -28 3.5 -57.5t14.5 -54.5t25 -42.5t34.5 -21.5t43.5 8t53 47q22 26 36 50t23.5 48.5t16.5 50.5l17 57 q-42 -12 -83 -26.5t-83 -32.5z" />
<glyph unicode="H" horiz-adv-x="610" d="M433 753q4 18 15 27t24 9t24.5 -8.5t16.5 -25.5q3 -33 3 -66q0 -43 -5 -83q-8 -72 -23 -143q5 -1 9.5 -1t9.5 -1q20 -6 27 -19q6 -10 6 -20q0 -4 -1 -8q-3 -14 -15.5 -23.5t-33.5 -7.5q-5 1 -10 1h-9l-17 -80q-8 -40 -15 -82q-6 -38 -7.5 -75.5t-5.5 -75.5q1 -6 1 -7 t1 -5q9 -11 9.5 -22.5t-5.5 -21.5t-17.5 -16t-27.5 -4q-27 11 -35 43q-7 28 -7 61v9q1 37 7 71.5t8 51.5q10 72 27 144q-45 -11 -89 -31l-87 -39q-1 -5 -1.5 -9.5t-1.5 -9.5q0 -3 -5 -22t-11 -46l-13 -58q-7 -32 -12 -60.5t-7 -49.5t1 -27q5 -17 -0.5 -30.5t-16.5 -20.5 q-8 -4 -18 -4h-6q-15 2 -28 15q-14 24 -14 56q0 33 8 71q7 36 17 69.5t15 59.5l6 30q-6 -1 -11 0q0 1 -2 1q-24 13 -27 34t18 39q8 4 17 6.5t18 4.5q1 1 2 1q17 106 26.5 210.5t11.5 210.5q3 18 14 27.5t24 10.5h2q12 0 23 -8t16 -26q-2 -97 -9 -191.5t-21 -190.5l2 1 q9 5 17.5 8.5t16.5 7.5q35 16 71 28t73 17q11 48 19.5 95t13.5 96q2 23 -1 46t-5 46v10z" />
<glyph unicode="I" horiz-adv-x="393" d="M222 742q4 21 17 30q11 8 23 8h4q14 -2 25 -14q10 -11 10 -30q0 -32 -7.5 -103t-19.5 -135q-23 -114 -52 -230l-11 -46q-4 -16 -7 -30l-6 -29l-11 -46q-2 -11 -4 -20.5t-4 -20.5q0 -1 -1 -2q8 -11 8 -22.5t-6 -21t-18 -14.5q-8 -5 -18 -5q-4 0 -8 1q-26 11 -32 37 q-5 16 -5 34q0 11 2 23q4 30 13 59.5t13 48.5l31 132q16 65 29.5 130.5t22.5 131.5t12 134z" />
<glyph unicode="J" horiz-adv-x="603" d="M345 630q-18 -11 -33.5 -7t-24 15.5t-7 27t17.5 29.5q101 69 218 96h4q15 0 26 -7q12 -9 16 -21q1 -5 1 -10q0 -7 -3 -15q-6 -14 -22 -24q-30 -6 -56 -15q-7 -35 -12 -66.5t-9 -62t-7 -62t-7 -67.5v-3q-2 -36 -3 -73t-5.5 -73.5t-13 -72t-24.5 -68.5l-13 -29 q-5 -11 -9 -19t-8.5 -15.5t-13.5 -17.5t-22.5 -26.5t-30.5 -24.5q-38 -17 -67 -17h-9q-31 3 -52.5 21.5t-35 49t-21.5 66t-11.5 71t-5.5 65.5q3 18 14 27.5t24 10t24.5 -7.5t16.5 -26q1 -10 3 -35.5t7 -55.5t13 -57.5t21 -41.5t30.5 -8.5t42.5 43.5q10 15 17.5 30.5 t13.5 31.5q26 74 31 146l10 148q3 51 9 93t14 87q-26 -14 -48 -30z" />
<glyph unicode="K" horiz-adv-x="626" d="M188 742q4 21 17 30q11 8 23 8h4q14 -2 25 -14t10 -33q-3 -58 -10.5 -115t-16.5 -114q63 69 132 130l138 127q16 13 32 12t26 -11q11 -11 11 -28q0 -15 -12 -30l-149 -136q-75 -66 -141 -142q11 -14 19.5 -31t15.5 -35l14 -36l12 -32l80 -188q40 -93 91 -184 q5 -17 -0.5 -30.5t-16.5 -19.5q-8 -5 -18 -5h-6q-15 2 -28 15q-43 78 -79 158l-71 162l-26 64l-28 62l-8 14l-7 15l-12 -18q-15 -84 -28 -166.5t-17 -167.5q-6 -17 -18.5 -24.5t-25 -6t-23 11.5t-12.5 28q4 81 16 160t26 159q-5 16 7 37l1 1l33 186q15 92 20 187z" />
<glyph unicode="L" horiz-adv-x="598" d="M218 756q12 19 28 24q7 1 13 1q8 0 16 -3q13 -7 19 -22.5t-1 -36.5q-26 -62 -42 -125.5t-27 -128.5t-20 -131l-17 -133q-5 -35 -9.5 -73t-14.5 -75l19 9q8 4 17 7l77 29q38 14 76 20q23 5 46 5q15 0 29 -2q38 -4 78 -26q18 -12 21 -29q1 -5 1 -10q0 -11 -5 -20 q-7 -13 -23 -19t-35 4q-31 17 -65 17h-3q-36 -1 -72 -11.5t-71.5 -26t-66.5 -26.5q-17 -7 -38 -10q-11 -2 -21 -2q-9 0 -17 1q-18 3 -30 15q-14 14 -14 43q0 8 4 15t6 17q5 20 9.5 40t7.5 40q4 20 7 39t5 39q11 73 20 144.5t20 143.5q11 69 29 131.5t44 125.5z" />
<glyph unicode="M" horiz-adv-x="703" d="M181 22q-1 -21 -12.5 -32t-25.5 -11.5t-26.5 9t-14.5 30.5q0 64 9 126l18 124l15 108q8 54 19 108q6 33 13.5 70.5t17.5 75t24 72t33 62.5q16 13 31 13l11 -2q21 -6 28 -32q11 -40 17 -81.5t11 -82.5t11 -82.5t17 -81.5q11 14 17.5 31.5t11.5 33.5l25 66q13 34 29 67.5 t36.5 63.5t46.5 52q11 4 19 4.5t19 -3.5q6 -2 9 -4q11 -7 15 -13t7 -18q4 -25 4 -50q0 -23 -4 -47q-6 -49 -14 -97q-10 -62 -22 -124.5t-19.5 -125.5t-7.5 -126t14 -126q0 -18 -9 -29t-22 -14h-7q-9 0 -18 4q-13 6 -22 22q-15 66 -15 132q-1 5 -1 9q0 62 7 124 q8 66 20.5 132t22.5 132q2 14 5 29l6 33q-17 -35 -30 -70l-22 -58q-5 -16 -11.5 -34.5t-16.5 -32.5q-8 -12 -18 -24l-20 -23q-15 -18 -34 -18q-11 0 -23 6q-7 5 -19 12.5t-19 15.5q-11 14 -18.5 40t-13.5 58.5t-11 69t-9 72.5q-8 -33 -14.5 -65.5t-11.5 -60.5 q-9 -51 -16 -101.5t-15 -101.5q-8 -59 -17.5 -117.5t-9.5 -118.5z" />
<glyph unicode="N" horiz-adv-x="676" d="M181 -8q-6 -17 -19 -24q-10 -7 -20 -7l-4 1q-13 1 -23.5 11t-12.5 28q3 69 10.5 137t17.5 136l20 134q11 68 19 136q6 45 9 90q1 15 -0.5 33t-0.5 36t7 33.5t22 24.5q13 5 23 5q5 0 9 -2q14 -3 25 -20q32 -66 55 -138l46 -141l22 -68q10 -34 18 -69q8 -36 12.5 -72.5 t11.5 -73.5l22 214q12 106 32 212q3 12 5 31.5t6 40t9 39.5t14 31q13 10 26 11.5t23 -3.5t15.5 -16t3.5 -25l1 -1q1 -3 1 -6q0 -8 -4 -16q-5 -12 -7 -24q-7 -35 -13 -69t-13 -69q-16 -94 -24 -187.5t-19 -187.5q-2 -21 -3 -46.5t-6.5 -49t-17 -43t-34.5 -29.5q-20 -3 -32 3 t-21 23q-14 36 -23.5 73t-16.5 74l-12 75q-6 37 -14 75q-7 32 -16 62l-20 62l-42 129q-8 -72 -18.5 -143t-20 -142.5t-17.5 -143.5t-11 -144z" />
<glyph unicode="O" horiz-adv-x="692" d="M408 803h3q24 0 35 -15q12 -15 7 -34q2 0 4 -0.5t4 -0.5q7 -2 12.5 -4t10.5 -7q40 -42 59.5 -81.5t27 -81.5t7.5 -88.5t2 -103.5v-13q0 -43 -12 -86q-13 -48 -37 -92.5t-57 -83.5t-70 -70l-26 -22q-12 -11 -28 -18q-27 -11 -54 -20l-56 -20q-8 -1 -14 -1h-6q-7 1 -18 6 q-17 16 -35 30.5t-32 33.5q-10 13 -13.5 29.5t-4.5 33.5t-0.5 34.5t-1.5 34.5q-2 14 -2 29q0 24 4 52q6 48 16.5 97.5t23.5 95.5t24 77l13 36q8 22 20 48l24 55q13 28 28 53t30.5 44.5t31.5 28.5q18 11 39 14.5t41 9.5zM313 603q-1 -19 -10 -30t-21 -13q-13 -32 -24 -64.5 t-20 -63t-15.5 -58.5t-10.5 -49q-5 -26 -10 -58t-8 -65q-1 -19 -1 -38q0 -14 1 -29q2 -33 11 -61q4 -10 13 -15.5t17 -13.5q20 8 40.5 14t39.5 15q5 3 15.5 11t21.5 18l21 19q10 8 13 11q48 49 77.5 111t38.5 130q5 34 5 69q0 33 -4 67q-9 68 -37 131q-13 30 -38 38 q-13 4 -25.5 4t-24.5 -4q-26 -8 -45 -28.5t-20 -47.5z" />
<glyph unicode="P" horiz-adv-x="599" d="M54 -30q10 57 21.5 113t24.5 113q-17 4 -24.5 16.5t-6 25.5t12.5 23.5t31 11.5h4l22 103q11 52 21 105q-9 -9 -20 -12t-21.5 0.5t-18 13.5t-9.5 25q5 60 30 99.5t64 70.5q1 11 1.5 23t1.5 24q4 19 15.5 28t24.5 9q0 1 1 1q12 0 23 -9q11 -8 14 -24q5 2 9 4l9 6 q12 7 28.5 9.5t33.5 1t32.5 -7.5t25.5 -15q15 -14 32 -27.5t25 -33.5q8 -23 18.5 -45.5t10.5 -46.5v-18q0 -35 -3 -69q-4 -43 -16 -84t-34 -78t-58 -67q-26 -22 -55.5 -37t-58.5 -32q-20 -11 -42.5 -11.5t-45.5 4.5q-5 -21 -9 -41.5t-9 -41.5q-8 -40 -14.5 -79.5 t-14.5 -79.5q-7 -19 -20 -26q-9 -5 -18 -5l-10 2q-13 3 -22.5 15t-7.5 30q0 4 1 6q0 1 0.5 2t0.5 3q0 -1 -0.5 -2t-0.5 -2q0 3 1 4v2zM262 640q-8 -98 -27 -192t-41 -190q11 -1 21.5 0t18.5 6q23 14 47.5 26t44.5 30q30 27 51 65t30 81q6 29 6 59q0 13 -1 26q-4 43 -23 79 q-11 20 -25.5 28.5t-31.5 8.5t-35 -7.5t-35 -19.5zM53 -37q-1 -2 -1 -6q-1 -2 -1 -5q0 5 2 11zM51 -50l-1 -2l1 4v-2z" />
<glyph unicode="Q" horiz-adv-x="672" d="M308 766q11 4 25 6q11 1 20 1q4 0 7 -1q13 0 23 -4t12 -11q26 2 47.5 -3t34.5 -19q35 -35 59.5 -74.5t27.5 -92.5q3 -42 3 -85q0 -21 -1 -43q-2 -65 -15.5 -127t-40.5 -119t-71 -103l26 -85l27 -86q6 -20 -1.5 -34t-20.5 -19q-6 -2 -13 -2t-15 3q-15 5 -25 23l-22 72 l-22 72q-31 -20 -64 -32t-71 -15h-7q-41 0 -70 22q-32 23 -52 59t-29 79q-7 34 -7 64v13q4 64 12.5 120.5t23.5 110t37.5 106.5t53.5 110q13 25 22.5 39t20.5 23t26 16t39 16zM279 428q3 18 14 27.5t24 10t24.5 -7.5t16.5 -26q0 -26 7 -53.5t13 -53.5l17 -71l18 -70 q27 39 44.5 85t26.5 94.5t9 97t-7 93.5q-3 18 -10 42t-19 44t-31 32q-12 7 -27 7q-9 0 -19 -3q-24 -7 -46 -20l-46 -24q-17 -8 -32 -24t-24 -36q-20 -42 -35 -89t-25 -93.5t-14.5 -89.5t-4.5 -75q0 -20 3 -46.5t12 -50.5t25.5 -41.5t44.5 -18.5h4q26 0 48 12q25 13 47 27 l12 9l-16 60l-16 61q-11 46 -24.5 94.5t-13.5 96.5zM439 90l6 -21z" />
<glyph unicode="R" horiz-adv-x="638" d="M216 753q4 19 15.5 28t25 9t24.5 -9t13 -27q44 15 88 15q13 0 26 -1q56 -6 97 -35t59 -81q10 -26 10 -58q0 -30 -9 -66q-9 -33 -28.5 -63.5t-46 -56.5t-56.5 -47.5t-60 -36.5q-15 -8 -26.5 -12.5t-23.5 -8.5q39 -28 69.5 -62t57.5 -72t52 -78.5t52 -79.5 q5 -17 -0.5 -30.5t-16.5 -20.5q-8 -4 -18 -4h-6q-15 2 -28 15q-19 28 -36 57l-37 60q-19 29 -39.5 56.5t-44.5 51.5q-27 26 -51 40l-50 27q-14 -75 -36 -146.5t-61 -137.5q-12 -14 -26 -17t-25 3t-18 19q-4 8 -4 19q0 5 1 11q24 41 41 84.5t29.5 89t21.5 92t17 92.5 q12 63 21 126t16 126q-10 3 -17 11t-9 18t2 21t15 21q5 4 9 7.5t8 7.5q1 11 1.5 21.5t1.5 21.5zM289 665q-6 -75 -16.5 -149t-24.5 -148q38 10 75 24.5t69 36t57 51.5t39 71q9 26 9 47q0 14 -4 26q-11 30 -37.5 45.5t-63.5 16.5q-4 1 -8 1q-32 0 -63 -10q-11 -4 -18.5 -6.5 t-13.5 -5.5zM274 290l-8 -1l-2 -1h2q3 1 8 2z" />
<glyph unicode="S" horiz-adv-x="583" d="M455 714q10 -15 10 -28q0 -3 -1 -6q-2 -16 -12.5 -25.5t-26.5 -9.5t-31 16q-4 5 -7 10.5t-8 10.5q-10 11 -26.5 6.5t-33 -16.5t-28.5 -28t-12 -28q1 -30 14 -67.5t31 -78.5l35 -86q18 -44 29 -86q11 -40 11 -77q0 -40 -21 -71q-14 -20 -27 -41.5t-31 -38.5 q-10 -8 -29.5 -21t-44 -26t-51.5 -22.5t-51 -10.5q-4 -1 -7 -1q-21 0 -38 9q-20 9 -30 34q-1 4 -1 8q0 11 5 20q6 13 16 19t22.5 4.5t23.5 -11.5q8 0 16 2.5t16 4.5l5 1q22 12 42 21.5t37 20.5t30.5 26.5t24.5 40.5q10 24 10 50v15q-4 34 -16 70.5t-30 74.5t-34 76t-27 75 q-10 33 -10 64v6q1 24 13.5 48.5t33 45.5t45.5 37t51 21q12 3 24 3q13 0 26 -3q24 -6 43 -28l11 -15z" />
<glyph unicode="T" horiz-adv-x="645" d="M87 593q-18 2 -28 13q-12 12 -12 27q0 10 7 21q7 12 24 18q43 3 84.5 13t81.5 21l82 23q41 11 83 18q21 3 40 3q12 0 24 -1q31 -3 63 -8q20 -6 28 -19q5 -10 5 -20q0 -4 -1 -8q-3 -14 -15.5 -23.5t-33.5 -7.5q-27 4 -52.5 3.5t-50.5 -2.5q-20 -74 -34 -149l-27 -150 l-30 -171q-15 -85 -23 -173q-6 -17 -18 -25q-11 -6 -21 -6h-5q-12 2 -22.5 12t-12.5 28q8 88 23 173l30 171q13 69 24.5 137.5t28.5 136.5q-59 -15 -117.5 -32.5t-124.5 -22.5z" />
<glyph unicode="U" horiz-adv-x="627" d="M190 734q4 19 16 28q11 7 22 7q2 0 4 -1q14 -1 24.5 -12t9.5 -30q-3 -44 -10.5 -85.5t-16.5 -82t-20 -81.5l-22 -84q-14 -57 -23 -118q-5 -28 -5 -56q0 -33 6 -65q9 -53 21.5 -73t28 -18t35 23t43.5 51q14 18 28 39.5t23 38.5q32 57 53.5 116t35 120.5t19.5 124t8 126.5 q3 17 14 26t23 9.5t23 -7.5t16 -24q-2 -80 -11 -156.5t-28 -150.5t-49.5 -145t-75.5 -139q-14 -22 -32.5 -44.5t-40 -41t-44 -30.5t-45.5 -13h-2q-23 0 -44 13q-23 13 -43 45q-6 9 -11.5 24t-9.5 30l-7 26q-3 11 -3 12q-7 23 -7 48v48q1 45 9 89.5t19 88.5l23 88l24 85 q7 28 10.5 44.5t5.5 30.5t3 30.5t3 45.5z" />
<glyph unicode="V" horiz-adv-x="618" d="M98 729v7q0 14 6 24q7 12 19 17q6 3 13 3q6 0 12 -2q14 -5 25 -20q15 -75 19 -150q2 -52 2 -104v-44q-2 -75 -6 -150q-2 -48 -2 -96q0 -27 1 -55q0 -7 0.5 -14t1.5 -14q43 69 77.5 142t64.5 148l57 151l58 149q2 2 2.5 4.5t2.5 4.5q0 1 0.5 1t0.5 1q10 15 23.5 20.5 t25.5 1.5t20.5 -15.5t7.5 -29.5q-14 -43 -36 -101.5t-50 -124.5l-59 -136l-64 -137l-63 -129q-31 -61 -58 -108q-10 -12 -22 -15q-6 -2 -13 -2q-5 0 -10 1q-11 3 -19 12.5t-10 25.5q0 41 -7.5 80.5t-9.5 79.5q-2 35 -2 70.5t2 70.5q3 72 5 144q1 35 1 71t-1 73 q-2 72 -15 145z" />
<glyph unicode="W" horiz-adv-x="718" d="M137 736q4 21 17 30t27 7.5t25 -13.5t10 -33q-40 -222 -40 -450q0 -62 3 -125l53 160q26 80 55 159l22 65q11 34 27 63q14 23 36 24.5t38 -21.5q7 -14 8.5 -31.5t0.5 -36t-3.5 -36.5t-3.5 -33q-5 -58 -6 -114v-12q0 -51 4 -103q0 -8 0.5 -15t1.5 -15l4 18l4 16 q21 78 37 156l32 157q4 22 8.5 51t10 58t12.5 56.5t18 48.5q14 23 36 25h3q20 0 34 -22q1 0 1 -1q2 -8 2 -16q0 -11 -5 -20h1l-1 -1q-17 -64 -30 -128l-26 -130l-27 -128q-13 -64 -30 -128l-12 -53q-7 -28 -15.5 -56t-20.5 -54t-30 -46q-13 -8 -24 -9t-25 7 q-15 11 -21.5 28.5t-8.5 37.5t-1.5 40t-0.5 36q-5 49 -8 97t-3 97l-33 -97l-32 -99q-7 -21 -13.5 -45t-16 -46t-23.5 -41t-36 -30q-7 -2 -13 -2q-11 0 -18 5q-12 6 -22 23q-17 45 -18.5 95.5t-3.5 98.5q-1 38 -1 76q0 96 7 191q10 133 34 264z" />
<glyph unicode="X" horiz-adv-x="638" d="M142 32q-7 -20 -22 -26q-8 -5 -17 -5q-5 0 -11 2q-13 4 -22 17q-6 10 -6 22q0 6 1 12q23 113 69 217.5t103 204.5l-19 40q-9 19 -17 39q-4 9 -17 35l-26 54q-13 29 -22.5 56.5t-7.5 40.5q3 16 12 25.5t20 11.5t23 -3t21 -18q1 1 3 -6q4 -6 6 -10q1 -5 1.5 -9t0.5 -9 q5 -14 11 -28l12 -28l21 -47l27 -60l16 27l16 27l30 48q18 30 40 60t45.5 56t46.5 38q14 8 29 14t29 13q11 4 20 4q8 0 14 -3q15 -6 21 -18q4 -8 4 -17q0 -5 -2 -11q-4 -16 -22 -27q-12 -5 -25 -9.5t-24 -13.5q-17 -14 -36.5 -35.5t-37.5 -46.5l-34 -48q-16 -23 -26 -39 l-33 -52l-32 -53l47 -102q24 -52 46 -104.5t39 -106.5t27 -110q0 -18 -9 -29t-21.5 -13.5t-25.5 3.5t-22 22q-17 93 -51.5 181.5t-76.5 175.5q-46 -87 -82.5 -177.5t-53.5 -181.5z" />
<glyph unicode="Y" horiz-adv-x="649" d="M510 778q14 12 28 12q1 1 2 1q14 0 23 -7q10 -8 14 -22q2 -6 2 -12q0 -9 -4 -19q-54 -81 -93 -172l-77 -182l-69 -178q-34 -90 -52 -184q-7 -20 -22 -27q-8 -4 -17 -4q-5 0 -11 2q-13 4 -22 17.5t-5 33.5q17 82 44 160t58 156l-38 93q-19 47 -41 92t-48.5 87.5 t-60.5 81.5q-6 12 -6 22q0 4 1 8q3 14 12.5 22t24 8.5t29.5 -9.5q58 -66 97 -142t73 -156q34 83 71 163t87 155z" />
<glyph unicode="Z" horiz-adv-x="665" d="M159 589q-18 2 -28 12.5t-11.5 23t6 25t24.5 18.5q42 7 84 22l86 32q42 15 85 25q33 8 66 8q9 0 19 -1q15 -5 22.5 -12t11.5 -23q2 -7 3.5 -18t-0.5 -20q-2 -11 -15 -32l-29 -45l-31 -48q-16 -23 -23 -36l-115 -210l-114 -209q13 10 25.5 18.5t23.5 13.5q81 39 151 39h5 q72 -2 146 -57q10 -14 10 -28q0 -15 -9 -25q-8 -10 -22 -13t-30 5q-29 21 -60 29.5t-63 6t-63.5 -14.5t-61.5 -31q-17 -11 -32 -22l-32 -23q-16 -11 -33.5 -19.5t-37.5 -11.5q-12 2 -19 5.5t-15 11.5q-1 2 -4 5q-5 11 -6 18v6q0 6 1 13q65 136 138 266l145 262q3 6 11 19 l18 28l22 34l20 33q-37 -8 -73 -22.5t-72 -27.5l-33 -11l-29 -7.5t-28.5 -6t-33.5 -5.5z" />
<glyph unicode="[" horiz-adv-x="497" d="M197 689q3 18 4 37t3 38q-6 11 -3 25t17 26h1q9 11 20.5 14t22.5 0q40 9 82.5 10.5t81.5 3.5q18 -5 26 -17q8 -10 8 -22q0 -14 -10 -26q-10 -11 -28 -14q-32 -2 -69 -3t-71 -9q-3 -23 -4 -47t-6 -46q-23 -100 -48 -198t-43 -198q-8 -42 -14.5 -84t-15.5 -84 q-3 -12 -4.5 -18.5t-2.5 -11.5l-2 -11l-3 -15q-1 -3 -1 -5.5t-1 -4.5q23 5 45.5 16t47.5 19.5t52 9.5t59 -15q15 -11 19.5 -24.5t-0.5 -25.5t-17.5 -19.5t-30.5 -5.5q-27 13 -54 7t-55.5 -17.5t-58.5 -20.5q-17 -5 -35 -5q-13 0 -25 2q-10 6 -15.5 11.5t-11.5 15.5 q-4 13 -4 29v6q1 20 4.5 39.5t8.5 38.5l9 33q10 52 18 101.5t19 100.5q9 46 21 91l24 91q12 45 22.5 90.5t17.5 91.5z" />
<glyph unicode="\" horiz-adv-x="468" d="M76 823q9 15 22 21q9 3 17 3q4 0 8 -1q12 -2 20.5 -12.5t9.5 -26.5l3 -15l2 -22q2 -10 3.5 -18.5t1.5 -9.5q9 -48 21 -94t26 -94q23 -80 51 -157.5t53 -155t43.5 -157.5t23.5 -164q-1 -21 -12.5 -32t-25.5 -12h-1q-14 0 -26 10q-12 9 -14 30q-5 86 -24.5 168t-46 162.5 t-55.5 160.5t-53 161q-6 22 -16.5 56.5t-19 71.5t-12.5 71q-2 15 -2 28q0 16 3 28z" />
<glyph unicode="]" horiz-adv-x="513" d="M195 754q-18 2 -28 12.5t-11.5 23t6 25t24.5 18.5q29 2 61 8.5t64 10.5q24 4 47 4h16q31 -2 59 -15q17 -11 21 -25q1 -4 1 -9q0 -10 -5 -23l-28 -64q-13 -33 -21 -68q-11 -48 -18.5 -96t-14 -96.5t-14 -96.5t-18.5 -96q-10 -42 -16 -84t-17 -84q-1 -2 -4.5 -12t-8.5 -23 q1 -2 0.5 -4t-0.5 -4q0 -17 -8 -31q-3 -10 -12 -18t-24 -11q-44 -3 -87 -12q6 2 14 3t3 -1q-13 -3 -26.5 -5.5t-27.5 -6.5q-4 -1 -8 -4t-8 -2q-10 -5 -20 -5q-6 0 -11 2q-14 5 -21 17q-6 9 -6 20v6q2 15 17 28q10 9 27 15t36.5 10t39.5 7l39 4v1q10 23 16.5 46.5t11.5 47 t9 47.5t9 48q11 50 20 98.5t16 99.5l19 137q10 69 33 134q7 22 18 45q-20 1 -41 -1.5t-42 -6.5t-41.5 -8.5t-39.5 -5.5z" />
<glyph unicode="^" horiz-adv-x="572" d="M148 509q-14 -16 -29.5 -17.5t-27 7t-15.5 23.5q-1 5 -1 9q0 12 8 25l11 18q4 7 8 12l8 12q4 6 13 17q35 46 76 85l83 78q14 12 23.5 27.5t26.5 23.5q18 9 30 9q9 0 15 -4q16 -9 23.5 -29t8.5 -44.5t0 -41.5q0 -68 13 -133l27 -131q0 -18 -9 -29t-22 -14h-7q-9 0 -18 4 q-13 6 -22 22l-25 120q-12 60 -15 121q-1 9 -1 18v17q-11 -11 -22.5 -20.5t-22.5 -20.5q-39 -37 -73.5 -77t-63.5 -87z" />
<glyph unicode="_" horiz-adv-x="661" d="M64 -108q-18 2 -28 12q-12 13 -12 28q0 10 6 20q8 13 25 19q70 5 135 19l129 28q64 14 129 20q24 3 47 3q44 0 91 -8q20 -6 28 -19q5 -10 5 -20q0 -4 -1 -8q-3 -14 -15.5 -23.5t-33.5 -7.5q-40 7 -79 7q-24 0 -48 -3q-63 -7 -126 -21l-125 -28q-63 -14 -127 -18z" />
<glyph unicode="`" horiz-adv-x="433" d="M275 821q11 4 20 4q8 0 15 -3q14 -6 20 -18q4 -8 4 -17q0 -5 -2 -11q-4 -16 -22 -27q-24 -12 -39.5 -49t-24 -82t-11.5 -88q-2 -33 -2 -55v-14q-1 -21 -12.5 -32t-25.5 -11l-1 -1q-14 0 -26 9q-12 10 -14 31q-1 17 -1 36q0 24 2 51q4 47 14.5 93.5t28 89t42.5 74.5 q6 8 16.5 12.5t18.5 7.5z" />
<glyph unicode="a" horiz-adv-x="670" d="M506 576q7 -14 8 -29t3 -29q19 11 37 3.5t24 -30.5q1 -7 1 -15q0 -13 -3 -28q-5 -25 -13.5 -51t-18 -51t-15.5 -44q-19 -68 -29 -133q-7 -43 -7 -89q0 -23 2 -47q-1 -21 -12.5 -32t-25.5 -11l-1 -1q-14 0 -26 9q-12 10 -14 31q-2 26 -2 52q0 33 4 65q6 57 19 114 q-33 -49 -69 -95.5t-78 -89.5q-14 -14 -32 -21t-35 -16q-11 -2 -18.5 -1t-18.5 6q-12 11 -25 20t-23 22q-10 14 -13 33t-5 35q-2 17 -2 35q0 35 6 73q10 58 31 114t53 104.5t71 80.5q22 18 54 37t64 27q16 5 30 5q16 0 31 -5q30 -9 48 -48zM214 124q36 19 71.5 59.5t69.5 89 t65 100.5l59 95q-11 0 -21 6.5t-18 20.5l-4 28q-1 12 -5 19t-13 7t-26 -8q-17 -7 -35 -20t-32 -26q-27 -24 -49 -57.5t-38 -70.5t-26.5 -76.5t-13.5 -75.5l-2 -23v-11v-15q2 -12 6 -23.5t12 -18.5z" />
<glyph unicode="b" horiz-adv-x="729" d="M239 833q3 18 14 27.5t24 9.5q1 1 2 1q12 0 23 -8t16 -26q-3 -81 -12.5 -160t-23.5 -157q33 41 70 71t70 35q12 2 26.5 5t29.5 4t29 -1t26 -11q16 -11 34.5 -20.5t24.5 -28.5q8 -20 15.5 -41t9.5 -44q1 -12 1 -25q0 -39 -14 -81q-18 -55 -54 -108t-85 -101t-104 -86 t-111.5 -63t-106.5 -31q-20 2 -30 13t-10 25q-14 12 -15 31q0 2 0.5 4.5t0.5 4.5q0 1 0.5 2t0.5 3q13 63 31 125l35 123q34 128 56 252.5t27 255.5zM242 286l-33 -102l-33 -103q63 18 127.5 61t117 99t85.5 119q31 62 31 118q0 47 -21 64q-15 12 -35 12q-5 0 -11 -1 q-26 -4 -54.5 -21t-46.5 -36q-26 -26 -44.5 -50.5t-33 -49t-26.5 -51.5t-23 -59z" />
<glyph unicode="c" horiz-adv-x="622" d="M492 519q5 -17 -0.5 -30.5t-16 -20t-25 -4.5t-27.5 15l-25 43l-26 42q-10 -1 -21 1t-19 -4q-25 -17 -49 -46.5t-44.5 -66t-37 -77.5t-25.5 -82t-10 -79q-1 -5 -1 -10q0 -31 8 -57q4 -14 16.5 -22t21.5 -19q30 4 60.5 9t59.5 14t54.5 24.5t45.5 41.5q14 12 28.5 12.5 t24.5 -7t14 -21.5q2 -6 2 -12q0 -9 -4 -19q-21 -28 -60 -54.5t-83.5 -45t-89.5 -26.5q-19 -3 -36 -3q-23 0 -42 6q-8 2 -12 6l-9 9l-32 34l-31 33q-9 10 -12.5 32t-4.5 46v8q0 20 2 38q3 22 6 33q12 45 28 99t39.5 106.5t56 97.5t77.5 71q10 6 21.5 8t23 2.5t23.5 0t24 0.5 h6q12 0 19 -3q10 -5 19 -18z" />
<glyph unicode="d" horiz-adv-x="753" d="M467 633q5 -5 9 -11t8 -13l8 31l8 30l12 46q9 32 22.5 66t31.5 62.5t40 36.5q12 5 21 5h5q10 -2 23 -11q14 -12 14 -33v-6q-2 -26 -12 -54.5t-22 -53.5t-16 -37l-15 -47q-9 -29 -14 -48q-17 -56 -32 -123.5t-34 -133.5v-33q0 -16 1 -32q1 -14 3 -35.5t6.5 -45t13 -44.5 t21.5 -33q12 -11 28 -14t30 -9q15 -11 19.5 -24.5t-0.5 -25.5t-17.5 -19.5t-30.5 -5.5q-20 8 -41.5 14.5t-38.5 19.5q-27 20 -40 54t-20 70l-31 -52l-21 -34q-8 -13 -15.5 -22.5t-18.5 -18.5t-28 -20l-43 -29q-7 -5 -11 -7t-13 -3h-8q-16 0 -31 3l-39 8q-5 2 -11 6.5 t-10 9.5l-35 45q-11 14 -16 28t-7.5 34.5t-9.5 63.5q-3 19 -3 39q0 30 7 63q11 55 34 110t54 104.5t63 82.5q16 17 41.5 35t54 27.5t56.5 7.5t50 -24zM444 364q3 52 12 106q-18 7 -28 25q-3 23 -4.5 42.5t-7.5 29.5q-6 9 -18 9h-2q-14 -1 -40 -18q-17 -11 -33 -26t-30 -32 q-49 -62 -75.5 -141.5t-28.5 -158.5q0 -8 3 -32.5t11 -49t23 -40.5q9 -9 23 -9q7 0 16 3q23 9 42 25t34.5 36t27.5 41.5t21 41.5q16 36 29.5 73t24.5 75z" />
<glyph unicode="e" horiz-adv-x="678" d="M526 360q-13 -17 -38 -34t-57 -32t-69 -26t-74 -15q-19 -2 -38 -2q-16 0 -32 1q-34 4 -59 19q-1 -5 -1.5 -9t-0.5 -9q-2 -14 -2 -27q0 -30 9 -56q11 -37 36 -62.5t62 -37.5q29 -9 62 -9q10 0 22 1q36 4 71.5 15t70.5 19q18 1 30 -7.5t15.5 -20.5t-2 -25.5t-21.5 -23.5 l-24 -7q-20 -7 -46.5 -14t-55.5 -12q-20 -4 -35 -4q-7 0 -12 1q-7 1 -22 1t-33 1.5t-36.5 5t-30.5 11.5q-22 15 -45.5 27.5t-39.5 33.5q-31 42 -44 89q-10 37 -10 75q0 9 1 17q3 47 19 92.5t42.5 86.5t61.5 75.5t75 59.5q29 18 66 34.5t76 23.5q19 3 37 3q20 0 39 -4 q37 -7 66 -36q13 -14 20.5 -34.5t8.5 -42.5q1 -6 1 -12q0 -16 -3 -32q-5 -22 -15 -37q-11 -16 -23 -31zM317 489q-41 -26 -74 -60t-55 -76q4 -11 14.5 -16t23.5 -7h16h10q14 1 23 2q30 4 62 12.5t57 19.5q13 6 38.5 23.5t46.5 40.5t29 48q3 8 3 16q0 16 -13 31 q-14 17 -39 17h-3q-26 -1 -53.5 -10t-51.5 -21.5t-34 -19.5z" />
<glyph unicode="f" horiz-adv-x="524" d="M99 492q-20 -4 -33.5 5t-17.5 23q-2 5 -2 10q0 9 4 18q7 14 27 21q23 8 45.5 14.5t45.5 12.5q9 30 13.5 47t8.5 28t9 21t14 25q13 20 25 40.5t25 40.5q18 27 45 42t56 18h11q23 0 45 -8q28 -11 47 -35q12 -17 9.5 -32.5t-13 -24.5t-26.5 -9t-31 15q-3 3 -7 9q-3 0 -7 4 q-2 1 -4 1t-4 1q-25 -2 -44.5 -18t-35.5 -40t-27.5 -52.5t-19.5 -53.5q54 9 109 11h21q45 0 91 -6q20 -6 28 -20q5 -9 5 -19q0 -4 -1 -8q-3 -14 -15.5 -23.5t-33.5 -7.5q-38 5 -75 5q-21 0 -41 -1q-56 -5 -112 -17q-16 -67 -26.5 -135t-18.5 -136l-17 -136q-8 -69 -18 -136 q-6 -17 -19 -24q-10 -7 -20 -7l-4 1q-13 1 -23.5 11t-12.5 28q19 127 32.5 256.5t39.5 255.5l-24 -7z" />
<glyph unicode="g" horiz-adv-x="672" d="M529 598q6 -10 8 -19q15 -1 26 -13t10 -33q-21 -93 -36.5 -185t-35.5 -185q-20 -94 -61.5 -190t-92.5 -176q-19 -30 -44 -62.5t-55.5 -57t-67.5 -35.5q-16 -5 -34 -5q-21 0 -44 7q-13 4 -23.5 12.5t-19.5 18.5l-18 21q-9 11 -19 20q-15 15 -15 31t9 26.5t24.5 13 t32.5 -9.5q14 -14 27 -29t30 -26q18 -10 38.5 -1t41.5 29t40.5 47.5t35.5 54.5t28 50l17 32q29 60 54.5 124t39.5 130l12 57l-17 -31l-17 -31l-33 -57q-17 -28 -40 -51q-18 -17 -34.5 -36t-39.5 -28q-8 -2 -13 -2t-13 1q-14 2 -26 3t-22 4t-18.5 9t-14.5 19q-1 2 -7 12 t-13 23.5t-12.5 28.5t-5.5 26q2 29 0.5 58t6.5 56q9 29 16.5 57t18.5 55q70 170 214 278q16 12 36.5 13t40.5 4q5 1 9 1q9 0 17 -4q18 -8 31.5 -24.5t27.5 -30.5zM229 91q48 44 83.5 97.5t64.5 111t54.5 117t54.5 116.5q-6 2 -8 4l-19 19q-9 9 -19 18q-8 -2 -17 -1.5 t-17 -4.5q-44 -26 -85.5 -76.5t-73 -111t-47.5 -123.5q-12 -42 -12 -79q0 -18 3 -35q2 -14 10 -25.5t14 -24.5q6 0 14 -2z" />
<glyph unicode="h" horiz-adv-x="692" d="M287 897q10 16 23 21q9 4 16 4q5 0 10 -2q12 -3 20.5 -15t7.5 -30q-22 -71 -39.5 -141t-30.5 -144q-7 -38 -12 -74l-12 -75q21 33 45.5 65t52.5 61q20 20 43.5 35t46.5 32q11 5 19 5t19 -3q9 -5 18 -9.5t17 -9.5q11 -7 15 -13t7 -18q1 -22 3 -44q1 -8 1 -17q0 -13 -2 -27 q-23 -125 -60.5 -244t-79.5 -239q-7 -20 -21 -27q-9 -4 -18 -4q-5 0 -10 2q-14 4 -23 17.5t-5 33.5l44 121q24 65 45 132t35 132q13 62 13 117v8q-48 -35 -85.5 -79t-67.5 -93.5t-54.5 -102.5t-46.5 -107q-3 -8 -6 -15t-7 -15l-16 -51q-8 -26 -18 -52q-10 -12 -22.5 -15.5 t-23.5 -0.5t-19 12.5t-10 25.5q4 27 13 52.5t20 51.5q15 54 26.5 109t20.5 111l17 111q9 56 19 111q14 76 31.5 149.5t40.5 147.5z" />
<glyph unicode="i" horiz-adv-x="456" d="M236 630q11 18 26.5 22t28 -2t18.5 -20.5t-1 -34.5q-32 -62 -48 -130l-31 -136q-17 -77 -31.5 -154t-21.5 -155q-6 -17 -18 -24q-11 -7 -21 -7l-5 1q-12 1 -22.5 11t-12.5 28q7 82 23 162l33 160l33 143q17 72 50 136zM322 742q-6 -1 -12 -1q-11 0 -20 5q-13 8 -18 20 q-3 7 -3 14q0 6 3 12q4 14 19 23q-1 0 7 3.5t13 6.5l25 15q13 8 26 15q11 4 20 4q8 0 14 -3q15 -6 21 -18q4 -8 4 -17q0 -5 -2 -11q-4 -16 -22 -27q-18 -10 -36 -22.5t-39 -18.5z" />
<glyph unicode="j" horiz-adv-x="524" d="M317 641q18 1 29.5 -7.5t15 -20.5t-1.5 -25t-18 -20q-20 -50 -27 -106l-14 -107q-10 -73 -16.5 -148t-17.5 -148.5t-30.5 -145t-53.5 -138.5q-11 -22 -24 -43t-32 -37q-20 -17 -45.5 -28.5t-49.5 -12.5h-3q-22 0 -41 12q-19 13 -28 45q-5 19 -5 38q0 11 1 22q5 31 10 59 q4 21 17 30t27 7.5t25 -13.5t10 -33q-3 -17 -6.5 -34.5t-3.5 -35.5q0 -4 -0.5 -8t0.5 -8l21 9q9 5 17 12q13 12 22 26.5t17 29.5q23 46 38.5 101.5t26.5 104.5q11 51 17.5 99.5t11.5 96.5t9.5 97t12.5 100l16 105q9 53 32 99q7 11 12.5 15.5t16.5 9.5q3 0 6 0.5t6 0.5z M382 701q-13 -8 -25 -8q-4 0 -9 1q-15 4 -24 16q-7 9 -7 22q0 18 18 34q20 16 42.5 20.5t45.5 12.5h4q15 0 26 -7q12 -9 15 -21q2 -5 2 -10q0 -7 -4 -15q-5 -14 -21 -24q-14 -5 -28.5 -7.5t-28.5 -8.5q-2 -1 -6 -5z" />
<glyph unicode="k" horiz-adv-x="626" d="M519 654q15 6 27 2.5t18 -12.5q7 -9 7 -21q0 -13 -12 -26l-115 -77q-57 -38 -117 -74q-28 -18 -56 -31q63 -44 109.5 -101.5t80.5 -128.5q13 -26 25 -54t20 -56q4 -10 6.5 -20.5t3.5 -21.5q2 -11 1.5 -20t-0.5 -8q0 -1 -0.5 -2t-0.5 -2v-3q-1 -2 -1 -3t-1 -3 q-3 -9 -11 -15l-2 -2q-3 -2 -9 -4h-3q-1 -1 -4 -1h-3q-3 0 -5 1q-8 2 -12 4l-2 2q-2 1 -6 5q-4 6 -6 10q-1 2 -1 3t-1 3q0 1 -0.5 1.5t-0.5 1.5v4v5q-2 26 -11 50l-19 49q-36 84 -86 151t-127 114l-21 -173q-10 -86 -15 -172l-1 1q-3 -15 -18 -23t-35 2q0 1 -1 1 q-7 8 -9.5 13.5t-4.5 16.5q11 148 30.5 294t35.5 293q5 43 13.5 85.5t10.5 85.5q4 18 16 26q9 6 19 6h4q12 -2 21 -12t9 -28q-1 -43 -9.5 -85.5t-13.5 -85.5q-5 -38 -9.5 -76.5t-9.5 -76.5q41 18 79.5 40.5t75.5 47.5l74 50z" />
<glyph unicode="l" horiz-adv-x="405" d="M248 824q13 11 26 12h4q11 0 20 -5q10 -6 16 -17q3 -8 3 -17q0 -5 -1 -10q0 -2 -1 -6.5t-2 -7.5q-2 -11 -2.5 -15.5t-1 -8.5t-1.5 -9t-3 -16q-6 -30 -13.5 -60t-14.5 -61q-18 -85 -38.5 -169t-31.5 -172q-2 -14 -4.5 -41.5t-2.5 -56.5t4.5 -55.5t18.5 -39.5 q8 -8 18.5 -10t20.5 -6q15 -11 19.5 -24.5t-0.5 -25.5t-17 -19q-10 -6 -24 -6h-7q-16 7 -32.5 12t-30.5 15q-24 18 -35 53.5t-13 75.5q-2 17 -2 35q0 21 2 42q3 38 6 61q9 72 25 142l32 139q12 49 21 98.5t22 98.5l6 38q3 19 14 36z" />
<glyph unicode="m" horiz-adv-x="826" d="M138 606q1 18 11.5 28t24.5 12h4q11 0 22 -6q12 -8 17 -27q3 -19 3 -38q0 -16 -2 -31q-4 -36 -6 -70q-2 -17 -2.5 -33t-1.5 -32q11 23 22.5 44.5t24.5 43.5l25 43q16 29 38 53.5t47 37t52 -2.5q17 -10 25.5 -25.5t12.5 -34.5q4 -15 4 -36v-31v-20q0 -10 -1 -20 q10 19 23.5 42.5t29.5 46.5t34.5 43t38.5 32q6 3 16.5 5t20.5 3t18 1.5t10 0.5q16 1 25.5 -3.5t18.5 -18.5q13 -23 18 -47q5 -23 5 -45q0 -26 -5 -55l-8 -50q-17 -101 -42.5 -199.5t-38.5 -198.5q-6 -17 -18.5 -24.5t-25 -6t-23 11.5t-12.5 28q8 66 23 131l32 132 q15 65 26 130q10 61 10 122v11q-16 -1 -32.5 -18t-31 -39t-25.5 -42.5t-15 -28.5q-26 -49 -51 -108l-46 -112q-20 -51 -38 -103t-46 -100q-10 -12 -23 -16q-6 -1 -13 -1q-5 0 -10 1q-11 3 -19 12.5t-10 25.5q0 2 0.5 4t0.5 4l-1 1l2 4q6 26 14 50l16 50q20 63 38 125.5 t27 126.5l5 33q2 18 4 38.5t2.5 41t-2.5 37.5q-12 -14 -21 -27q-17 -25 -32.5 -50.5t-29.5 -51.5q-23 -44 -41 -97l-34 -104l-30 -95q-13 -43 -26 -67q-7 -19 -21.5 -26t-28.5 -4t-23 15q-6 7 -6 19q0 4 1 10q10 96 22.5 190t19.5 190q3 35 4.5 69t3.5 68q0 4 -0.5 10t-1 11 t-0.5 8t2 0v-1z" />
<glyph unicode="n" horiz-adv-x="630" d="M153 617q3 18 14 27.5t24 9.5q1 1 2 1q12 0 23 -8t16 -26q-1 -66 -5.5 -131.5t-12.5 -131.5q27 49 59.5 94.5t74.5 87.5q17 17 35 31t36.5 21.5t39 7.5t42.5 -12q8 -4 12 -7.5t7 -11.5q16 -35 16 -78v-13q-3 -51 -17 -103.5t-33 -103t-31 -90.5q-22 -73 -31 -152 q1 -2 1 -7q1 -1 3 -5q5 -17 -0.5 -30.5t-15.5 -20.5q-9 -4 -19 -4h-7q-14 2 -27 15q-15 25 -15 54q0 6 1 13q4 36 11 68q8 38 26.5 93.5t36 113.5t28.5 111q7 32 7 58q0 16 -3 29q-24 -10 -47 -34l-40 -43q-40 -45 -70 -97.5t-54.5 -108t-45.5 -113.5l-41 -114 q-10 -11 -22.5 -15t-23.5 -1t-19 12.5t-10 24.5h-3q1 6 5 13q2 12 5.5 23.5t5.5 22.5q23 133 41 264.5t21 265.5z" />
<glyph unicode="o" horiz-adv-x="610" d="M344 672q10 4 19 4q5 0 9 -1q13 -3 21 -11.5t10 -20.5t-5 -25l32 -10q17 -6 28 -17q19 -19 30 -39.5t17 -42t8.5 -45t4.5 -49.5q2 -17 2 -33q0 -44 -12 -84q-17 -56 -47.5 -106.5t-69.5 -95.5l-78 -87q-8 -9 -18.5 -13.5t-22.5 -7.5t-24 -5t-24 -5q-8 -2 -14.5 -2 t-11.5 2q-9 3 -21 14q-13 16 -29.5 30.5t-20.5 34.5q-5 29 -11 59q-5 23 -5 46v14q4 42 9 83.5t13 83.5q-10 15 -6 36l8 38q4 19 10 36t15 33.5t23 31.5l13 13l14 15l16 22q8 12 18 23q21 25 48 43t52 38zM404 530q-13 12 -28 14q-5 1 -9 1q-12 0 -23 -4q-17 -5 -33.5 -16 t-31.5 -25q-27 -42 -47 -95.5t-30 -109.5q-12 -59 -12 -115q0 -52 13 -94q2 -8 9 -13t12 -12q10 4 21 5t19 8q33 30 66 67.5t59 81t40 91.5q11 36 11 74q0 10 -1 21q-2 15 -3 31.5t-4 32.5t-9.5 30.5t-18.5 26.5z" />
<glyph unicode="p" horiz-adv-x="695" d="M188 582q4 21 17 30t27 7.5t25 -13.5t10 -33q-2 -7 -2.5 -13t-1.5 -13q11 14 24 25.5t29 19.5q26 14 52 31t55 23q15 3 29 3q27 0 50 -11q36 -17 59 -48.5t33 -71.5q5 -24 5 -47q0 -16 -3 -33q-14 -69 -28.5 -115.5t-37 -84.5t-56 -74.5t-83.5 -86.5q-21 -21 -48.5 -38.5 t-55.5 -25t-53.5 -3t-41.5 27.5q-2 -8 -2 -11l-12 -69q-6 -39 -14 -73q-2 -8 -7 -31l-11 -49q-6 -27 -12.5 -53t-11.5 -40q-10 -12 -22 -16q-7 -1 -14 -1q-5 0 -10 1q-11 3 -19 12.5t-10 25.5q0 44 15 87.5t25 85.5q8 32 13 65l11 64q23 137 38.5 273t38.5 273zM245 416 q-5 -31 -9 -67l-10 -72l-8 -71q-5 -35 -11 -65q7 -32 23 -43q12 -7 25 -7q5 0 10 1q19 4 39 17.5t35 28.5l66 68q31 34 54.5 70t38.5 78t18 94q1 9 1 18q0 31 -9 54q-11 28 -32 40q-12 6 -28 6q-11 0 -23 -3q-30 -8 -64 -38q-32 -27 -59.5 -52.5t-56.5 -56.5z" />
<glyph unicode="q" horiz-adv-x="655" d="M503 607q12 -9 16 -18q11 -1 20.5 -9.5t14.5 -23.5v-1q1 0 1.5 0.5t1.5 0.5q-2 -4 -2 -6q3 -18 3 -36t-3 -37q-6 -37 -19.5 -73t-31.5 -70l-33 -65q-2 -3 -3.5 -6t-3.5 -6q-28 -95 -52 -189t-44 -191q-4 -22 -10 -42t-10.5 -41t-7.5 -43t-1 -47q2 -14 7 -26.5t10 -26.5 q6 -20 -1.5 -34t-20.5 -19q-6 -2 -13 -2t-15 2q-15 6 -25 24l-10 32l-10 32q-6 22 -4 51t8.5 58.5t14 57t12.5 47.5q8 37 17 74l18 72q-14 -15 -29 -28.5t-31.5 -22.5t-34 -12.5t-34.5 1.5q-6 2 -12 7l-13 10q-6 5 -11 10l-7 7q-10 9 -13 21t-11 22q-18 21 -28 57.5 t-11 81.5q-1 8 -1 16q0 38 7 81q7 51 24.5 101.5t44.5 96t65.5 80t89.5 53.5q45 18 101 18h11q9 0 20.5 -6t21.5 -13t17.5 -13t9.5 -7zM389 279q44 78 63 141q15 54 15 101v15q-2 0 -4 2q-11 7 -21 15t-22 12q-4 2 -10 2q-7 0 -15 -3q-15 -5 -31.5 -14.5t-34 -22 t-31.5 -25.5l-26 -22q-11 -10 -15 -14q-40 -41 -65 -91t-31 -103q-2 -16 -2 -32q0 -38 11 -75q14 -53 52 -100q12 3 24 13t23 22.5t20 25.5l15 20q23 31 44 64z" />
<glyph unicode="r" horiz-adv-x="533" d="M131 582q3 18 14 27.5t24 10t24.5 -7.5t16.5 -26q0 -60 -4.5 -117.5t-10.5 -115.5q47 84 112 152.5t151 113.5q17 9 35 13.5t35 10.5h4q15 0 26 -7q12 -9 16 -21q1 -5 1 -10q0 -7 -3 -15q-6 -14 -22 -24q-18 -6 -30.5 -9.5t-23.5 -7.5t-22 -10.5t-26 -16.5 q-39 -26 -74 -60.5t-64 -74.5t-52.5 -83.5t-38.5 -88.5q-15 -43 -26 -86t-24 -88q-6 -15 -16 -22.5t-21 -8.5h-1q-11 0 -21 7q-12 7 -19 21q-5 24 -5 49q0 17 2 35l11 82l21 190q11 92 11 188z" />
<glyph unicode="s" horiz-adv-x="570" d="M446 655q2 -8 2 -15q0 -8 -2 -16q-6 -13 -16.5 -19.5t-25 -4.5t-27.5 15q-1 2 -5 6q-6 1 -13 0q-8 0 -17.5 -3.5t-18.5 -6.5q-38 -14 -67 -30.5t-52 -48.5q3 -25 17 -44t34.5 -35t45 -30t47 -28.5t41.5 -31t29 -38.5q7 -15 5.5 -33t-8.5 -35.5t-16 -34t-17 -29.5 q-54 -87 -123.5 -153.5t-159.5 -117.5q-6 -1 -11 -1q-11 0 -20 5q-12 6 -18 17q-4 7 -4 16q0 4 1 9q3 14 17 26q73 42 132 95.5t104 124.5l25 38q13 21 16 43q-9 12 -21 21l-26 17l-59 40q-31 21 -56.5 46t-42.5 55q-14 28 -14 62v8q1 20 17 41t40.5 41t55.5 36.5t62 26.5 t60 12h10q23 0 39 -7q15 -6 23.5 -15.5t16.5 -23.5z" />
<glyph unicode="t" horiz-adv-x="473" d="M115 481q-18 -11 -33.5 -7t-23.5 16q-8 9 -8 22q0 18 18 34q32 20 65 33.5t68 24.5q14 64 34 124t49 111q11 18 26 22q7 2 12 2q9 0 16 -4q13 -6 19 -20.5t-1 -34.5q-23 -40 -39.5 -85.5t-29.5 -94.5q38 8 76 14.5t77 14.5q18 1 30 -7.5t16 -20.5q1 -5 1 -10q0 -7 -3 -15 q-6 -14 -22 -24q-48 -10 -97 -17t-97 -18q-14 -69 -22 -137.5t-14 -130.5q-3 -29 -5 -58t-1 -58t6.5 -57.5t17.5 -55.5q6 -20 -1.5 -34t-20.5 -19q-6 -2 -13 -2t-15 3q-15 5 -25 23q-15 33 -22 65.5t-8 65.5v16q0 24 2 50l6 70q5 54 12 113t18 120q-35 -13 -68 -34z" />
<glyph unicode="u" horiz-adv-x="644" d="M196 617q7 15 20 19q5 3 11 3t11 -3q11 -5 15.5 -18.5t-4.5 -34.5q-5 -5 -12.5 -31.5t-16 -67t-17.5 -90t-16 -100t-11.5 -97.5t-4.5 -82t5.5 -54t18.5 -13q14 6 30.5 18t32.5 25.5t28.5 27.5t18.5 25q19 32 36.5 69.5t33.5 77t29 78.5l26 75q11 42 23.5 83t27.5 80 q1 2 1.5 4t1.5 4l1 -1q10 14 23 18.5t24.5 1t19.5 -15t7 -29.5q-2 -4 -2.5 -7.5t-2.5 -6.5q2 4 3 7l-4 -12l-4 -14q-2 -5 -3.5 -10t-3.5 -10q-17 -54 -36 -121.5t-32.5 -135t-17.5 -127.5v-22q0 -46 13 -79q6 -20 -1.5 -34t-20.5 -19t-28 0.5t-25 23.5q-4 11 -8 20.5 t-7 19.5q-8 24 -6 59q-19 -31 -41.5 -62t-51.5 -55q-16 -14 -36.5 -24t-41.5 -12q-6 -1 -11 -1q-15 0 -31 5q-20 7 -35 28q-3 5 -6.5 14.5t-6.5 19t-5 16.5l-2 8v27q0 28 1 64q2 54 11 124t27.5 156t51.5 188zM560 592l1 1l-1 -2l-3 -9q1 2 1.5 5t1.5 5z" />
<glyph unicode="v" horiz-adv-x="547" d="M80 613q4 22 17 32q11 9 23 9h4q14 -2 25 -15t10 -35q-4 -30 -4 -60q0 -23 3 -46q5 -54 9 -106q5 -62 9 -127t15 -128l15 52q8 26 18 50q47 109 106.5 211t134.5 190q16 14 32 13t26 -11q11 -12 11 -30q0 -16 -12 -32q-72 -83 -127 -179t-99 -199q-10 -23 -18 -48 l-14 -49q-8 -25 -17.5 -48.5t-23.5 -44.5q-10 -14 -19 -18q-7 -3 -16 -3q-5 0 -11 1q-23 6 -35.5 25.5t-18.5 43.5t-7.5 50t-4.5 46q-7 58 -13 116l-10 115l-10 114q-3 23 -3 46q0 33 5 65z" />
<glyph unicode="w" horiz-adv-x="699" d="M91 582q3 18 14 27.5t24 10t24.5 -7.5t16.5 -26q0 -91 -3 -182t-15 -182l-6 -51q-3 -25 -3 -51q27 53 49 110l45 112q23 55 50 108t64 101q21 17 41.5 11t28.5 -32q3 -15 4 -26.5t0.5 -23t-1.5 -24.5l-4 -30q-4 -37 -9.5 -74.5t-9 -75t-4.5 -74.5v-11q0 -32 5 -64 q29 40 49 86t36 94l31 96q15 48 34.5 94t46 87t65.5 75q15 12 30 12h2q16 -1 26 -11q11 -11 11 -28q0 -15 -12 -30q-34 -29 -54 -60t-38 -73q-15 -34 -30.5 -75t-27.5 -76q-12 -32 -23 -68.5t-25 -71.5t-33 -67t-46 -56q-29 -25 -52.5 -18.5t-49.5 29.5q-4 5 -8.5 10 t-6.5 11q-3 17 -5 33l-4 31q-2 13 -2.5 24t0 22t1.5 24t3 31q2 25 7 56l10 62q-20 -41 -37 -84l-34 -86q-17 -42 -36 -83.5t-42 -80.5q-11 -18 -26.5 -29.5t-31.5 -12.5q-3 -1 -5 -1q-14 0 -27 9q-15 10 -24 36q-9 29 -10 58v19q0 20 1 39q3 42 9.5 82t8.5 82q4 66 6 132 t2 132z" />
<glyph unicode="x" horiz-adv-x="633" d="M433 604q16 13 32 12t26 -11q11 -11 11 -28q0 -15 -12 -30q-51 -56 -93.5 -115.5t-79.5 -122.5q20 -70 42.5 -138.5t54.5 -134.5q6 -20 -1.5 -34t-20.5 -19t-28 0.5t-25 23.5q-23 49 -41 99t-34 101q-61 -130 -98 -264q-7 -20 -22 -27q-8 -4 -17 -4q-5 0 -11 2 q-13 4 -22 18q-6 9 -6 21q0 6 1 12q26 94 61.5 181.5t80.5 171.5l-2 8l-2 8q-10 34 -19 68.5t-20 68t-25.5 66.5t-33.5 63q-9 19 -4 34t17 22q9 5 19 5q5 0 9 -1q16 -3 28 -20q33 -52 53 -109t37 -117q32 50 68 97.5t77 92.5z" />
<glyph unicode="y" horiz-adv-x="616" d="M441 607q10 16 23 21q9 4 16 4q5 0 10 -2q12 -3 20.5 -15t7.5 -30l-98 -286q-49 -142 -103 -284q-1 -14 -9 -23q-28 -72 -58 -142l-62 -139q-12 -14 -26 -17q-5 -1 -9 -1q-9 0 -16 4q-11 6 -17.5 18.5t-3.5 30.5q32 68 60 136l56 136q-71 132 -106 273t-41 291 q3 18 14 27.5t24 10t24.5 -7.5t16.5 -26q5 -124 30.5 -240t76.5 -227l87 243z" />
<glyph unicode="z" horiz-adv-x="627" d="M204 510q-20 -4 -33.5 5t-17.5 22.5t2.5 28t26.5 21.5q38 13 76.5 24t78.5 18q20 3 39 5.5t38 2.5q17 1 29 1t27 -2q40 -6 51 -22.5t5.5 -36.5t-22.5 -41l-30 -39l-20 -23l-14 -17l-14 -17q-8 -9 -20 -24q-52 -64 -96.5 -131t-86.5 -139l-9 -14q-5 -8 -10 -18l6 3 q72 36 145 52t152 19q21 1 33 -10q14 -13 14 -29q0 -12 -8 -23q-9 -13 -30 -17q-73 -3 -139 -17t-132 -47q-28 -14 -53 -32t-54 -32q-7 -2 -13 -2q-11 0 -18 5q-12 6 -22 23q-5 12 -5 24q0 6 1 11q3 18 11 36t18.5 34.5t18.5 30.5l85 143q43 70 94 136l50 62l51 60q3 4 6 7 t6 7q-57 -2 -110 -16t-107 -32z" />
<glyph unicode="{" horiz-adv-x="460" d="M321 781q10 4 19 4q6 0 12 -2q14 -4 22 -14q7 -9 7 -23q0 -15 -13 -30q-17 -13 -27.5 -30t-18 -35.5t-12.5 -39t-11 -40.5q-19 -65 -35.5 -132.5t-42.5 -131.5q15 -14 24 -31q20 -37 20 -76q0 -35 -9 -70q-9 -36 -23 -71.5t-24 -70.5q-11 -38 -11 -71q0 -31 15 -60 q5 -17 -0.5 -30.5t-16.5 -20.5q-8 -4 -18 -4h-6q-15 2 -28 15q-5 11 -11.5 21t-10.5 21q-7 23 -7 48q0 17 3 35q9 44 24 88l30 86q15 42 15 82q0 12 -8 30q-15 -20 -35 -35t-46 -16q-25 -1 -37.5 12.5t-15.5 34.5q-1 7 -1 14q0 15 4 31q7 24 21.5 43t35 30.5t46.5 6.5 q6 16 10.5 29.5t6.5 20.5q10 31 21.5 81t25.5 102.5t30.5 98.5t36.5 69q8 10 18.5 16.5t20.5 14.5zM124 230q0 1 -1 1zM123 232v3v-3z" />
<glyph unicode="|" horiz-adv-x="301" d="M148 810q3 18 14 27.5t24 10.5h2q12 0 22 -8q12 -8 17 -26q-2 -158 -13 -314.5t-33 -313.5q-5 -32 -12 -63l-13 -62l-13 -63q-6 -31 -7 -63q-6 -17 -18 -25q-11 -6 -21 -6h-5q-12 2 -22.5 12t-12.5 28q3 65 19.5 126.5t25.5 124.5q21 155 32.5 307.5t13.5 307.5z" />
<glyph unicode="}" horiz-adv-x="460" d="M195 740q-2 18 5.5 30.5t19.5 17.5q6 3 13 3q6 0 13 -3q13 -4 24 -19q15 -42 15 -92.5t-7 -103.5t-17 -104.5t-15 -94.5q-5 -40 9 -59.5t32 -8.5l12 24q6 11 13 22q14 23 36 24.5t37 -21.5q7 -12 7 -22t-5 -23q-8 -21 -15 -34t-24 -28q-19 -38 -38 -81.5t-34 -86.5 t-24.5 -83t-9.5 -71q0 -9 3 -17.5t5 -17.5q0 -18 -9 -29t-21 -14h-8q-9 0 -18 4q-13 6 -22 22q-3 14 -8 26q-3 11 -3 21q0 19 9 67.5t22 90.5q23 76 56 148q-27 8 -48.5 26.5t-27.5 46.5t-6 60v17q2 42 8.5 85.5t14.5 85.5t11 78q3 31 4.5 58.5t-9.5 55.5z" />
<glyph unicode="~" horiz-adv-x="638" d="M108 344q-12 -14 -26 -17q-5 -1 -9 -1q-9 0 -16 4q-11 6 -17 18q-5 9 -5 20q0 5 1 11q6 14 22.5 41t39.5 57.5t50.5 59.5t55.5 48.5t54 24.5h10q21 0 39 -15q20 -17 24 -40t3.5 -47t-1 -45.5t10.5 -36.5q14 -2 40.5 14.5t53.5 38.5l51 42q23 20 31 26q17 6 31 2t21 -14 q8 -9 8 -23q0 -15 -13 -30l-35 -29q-18 -15 -37 -29q-15 -12 -41.5 -31.5t-56.5 -33t-59 -15t-48 21.5q-7 9 -15 17.5t-10 19.5q-3 13 -4.5 26t-3.5 26q-2 17 -1.5 34.5t0.5 34.5q-23 -14 -45 -35t-41.5 -45t-35.5 -50t-26 -50z" />
<glyph horiz-adv-x="734" d="M333 271q-9 40 -24 78q-8 6 -11 14l-44 -9q-23 -4 -45 -7t-42.5 -3t-38.5 5q-14 5 -25 12.5t-18 21.5q-5 12 -5 24q0 10 4 19q8 21 25.5 38.5t38.5 31.5l36 22l26 16l30 17l30 17l27 13l65 31q33 15 67 25q69 21 133 27q24 2 49 2q41 0 84 -6q20 -6 27 -20q6 -9 6 -19 q0 -4 -1 -8q-3 -14 -15.5 -23.5t-33.5 -7.5q-33 4 -65 4q-22 0 -44 -2q-52 -5 -100.5 -19.5t-96.5 -36.5t-98 -50l-42 -24q-23 -13 -42 -28q27 2 57 9t61 12t61 5t56 -12q15 -7 30.5 -13.5t26.5 -18.5q35 -36 52.5 -79.5t19.5 -90.5v-14q0 -40 -9 -80q-11 -48 -32 -91 q-5 -11 -15 -20t-18 -19q-11 -6 -18 -8h-11h-9l-22 10q-12 5 -20 15q-17 22 -27 52.5t-17 63.5t-12 65t-11 59zM468 282q-11 38 -30.5 57.5t-44.5 25.5q7 -17 12 -36.5t8.5 -39t6 -37.5t5.5 -31q6 -26 8.5 -38.5t4.5 -20.5l4 -19q3 -10 9 -32l9 20q3 8 5.5 15.5t4 16.5 t3.5 23q2 17 2 37q0 6 -1 11q0 27 -6 48z" />
<glyph unicode="&#xf700;" horiz-adv-x="734" d="M333 271q-9 40 -24 78q-8 6 -11 14l-44 -9q-23 -4 -45 -7t-42.5 -3t-38.5 5q-14 5 -25 12.5t-18 21.5q-5 12 -5 24q0 10 4 19q8 21 25.5 38.5t38.5 31.5l36 22l26 16l30 17l30 17l27 13l65 31q33 15 67 25q69 21 133 27q24 2 49 2q41 0 84 -6q20 -6 27 -20q6 -9 6 -19 q0 -4 -1 -8q-3 -14 -15.5 -23.5t-33.5 -7.5q-33 4 -65 4q-22 0 -44 -2q-52 -5 -100.5 -19.5t-96.5 -36.5t-98 -50l-42 -24q-23 -13 -42 -28q27 2 57 9t61 12t61 5t56 -12q15 -7 30.5 -13.5t26.5 -18.5q35 -36 52.5 -79.5t19.5 -90.5v-14q0 -40 -9 -80q-11 -48 -32 -91 q-5 -11 -15 -20t-18 -19q-11 -6 -18 -8h-11h-9l-22 10q-12 5 -20 15q-17 22 -27 52.5t-17 63.5t-12 65t-11 59zM468 282q-11 38 -30.5 57.5t-44.5 25.5q7 -17 12 -36.5t8.5 -39t6 -37.5t5.5 -31q6 -26 8.5 -38.5t4.5 -20.5l4 -19q3 -10 9 -32l9 20q3 8 5.5 15.5t4 16.5 t3.5 23q2 17 2 37q0 6 -1 11q0 27 -6 48z" />
<glyph unicode="&#x20ac;" horiz-adv-x="734" d="M333 271q-9 40 -24 78q-8 6 -11 14l-44 -9q-23 -4 -45 -7t-42.5 -3t-38.5 5q-14 5 -25 12.5t-18 21.5q-5 12 -5 24q0 10 4 19q8 21 25.5 38.5t38.5 31.5l36 22l26 16l30 17l30 17l27 13l65 31q33 15 67 25q69 21 133 27q24 2 49 2q41 0 84 -6q20 -6 27 -20q6 -9 6 -19 q0 -4 -1 -8q-3 -14 -15.5 -23.5t-33.5 -7.5q-33 4 -65 4q-22 0 -44 -2q-52 -5 -100.5 -19.5t-96.5 -36.5t-98 -50l-42 -24q-23 -13 -42 -28q27 2 57 9t61 12t61 5t56 -12q15 -7 30.5 -13.5t26.5 -18.5q35 -36 52.5 -79.5t19.5 -90.5v-14q0 -40 -9 -80q-11 -48 -32 -91 q-5 -11 -15 -20t-18 -19q-11 -6 -18 -8h-11h-9l-22 10q-12 5 -20 15q-17 22 -27 52.5t-17 63.5t-12 65t-11 59zM468 282q-11 38 -30.5 57.5t-44.5 25.5q7 -17 12 -36.5t8.5 -39t6 -37.5t5.5 -31q6 -26 8.5 -38.5t4.5 -20.5l4 -19q3 -10 9 -32l9 20q3 8 5.5 15.5t4 16.5 t3.5 23q2 17 2 37q0 6 -1 11q0 27 -6 48z" />
<glyph d="M-269 957q15 -4 23 -13t10 -20q1 -3 1 -6q0 -7 -3 -14q-5 -11 -15 -18q0 -14 -6.5 -24.5t-16.5 -15.5q-7 -2 -14 -2q-5 0 -10 1q-12 3 -24 15q-2 5 -5 9.5t-5 9.5q-40 2 -79.5 4.5t-80.5 7.5l-88 11q-43 6 -88 17q-15 4 -34 10t-37 14t-34.5 19t-26.5 25q-12 17 -13 40v5 q0 21 7 40q7 23 20.5 41.5t31.5 26.5l36 16q18 7 37 11q17 3 35 3q16 0 32 -2q34 -6 67 -18.5t64 -29.5l57 -32q45 -26 78.5 -58.5t60.5 -72.5h20zM-732 1033q27 -19 66.5 -32t85 -21t94 -12.5t94.5 -6.5q-45 45 -102.5 77t-117.5 45q-11 3 -32 3q-3 1 -5 1q-19 0 -37 -5 q-21 -4 -36 -16q-11 -9 -11 -24q0 -4 1 -9z" />
<glyph unicode="&#xf701;" d="M-269 957q15 -4 23 -13t10 -20q1 -3 1 -6q0 -7 -3 -14q-5 -11 -15 -18q0 -14 -6.5 -24.5t-16.5 -15.5q-7 -2 -14 -2q-5 0 -10 1q-12 3 -24 15q-2 5 -5 9.5t-5 9.5q-40 2 -79.5 4.5t-80.5 7.5l-88 11q-43 6 -88 17q-15 4 -34 10t-37 14t-34.5 19t-26.5 25q-12 17 -13 40v5 q0 21 7 40q7 23 20.5 41.5t31.5 26.5l36 16q18 7 37 11q17 3 35 3q16 0 32 -2q34 -6 67 -18.5t64 -29.5l57 -32q45 -26 78.5 -58.5t60.5 -72.5h20zM-732 1033q27 -19 66.5 -32t85 -21t94 -12.5t94.5 -6.5q-45 45 -102.5 77t-117.5 45q-11 3 -32 3q-3 1 -5 1q-19 0 -37 -5 q-21 -4 -36 -16q-11 -9 -11 -24q0 -4 1 -9z" />
<glyph d="M-364 827q-5 14 -8 28.5t-7 28.5q-85 2 -169 7t-168 19q-10 2 -26 5.5t-33.5 9t-34.5 14t-29 19.5t-17 26q-1 5 -1 12q0 9 4 21q16 40 46 64.5t68 36.5q36 11 77 11q2 0 4 -1q43 0 85 -8.5t79.5 -24t65.5 -34.5q26 -18 48 -36.5t39 -40.5q18 35 27 57l18 39q8 17 18 35 t29 46q15 12 30 12h2q16 -1 26 -11q11 -11 11 -28q0 -15 -12 -30q-17 -26 -25.5 -40.5t-14.5 -28t-13 -31.5l-20 -49q11 -7 15.5 -18t2.5 -21.5t-10 -19.5t-23 -12q-2 -14 -3.5 -27t-3.5 -26q-5 -15 -15 -23t-21.5 -8t-22.5 6.5t-18 20.5zM-765 1005q25 -12 63.5 -19.5 t84.5 -12.5t96 -7t97 -3q-18 17 -40.5 30t-47 23t-48.5 17t-45 11q-20 4 -43 6h-13q-16 0 -31 -2q-22 -4 -41 -14t-32 -29z" />
<glyph unicode="&#xf702;" d="M-364 827q-5 14 -8 28.5t-7 28.5q-85 2 -169 7t-168 19q-10 2 -26 5.5t-33.5 9t-34.5 14t-29 19.5t-17 26q-1 5 -1 12q0 9 4 21q16 40 46 64.5t68 36.5q36 11 77 11q2 0 4 -1q43 0 85 -8.5t79.5 -24t65.5 -34.5q26 -18 48 -36.5t39 -40.5q18 35 27 57l18 39q8 17 18 35 t29 46q15 12 30 12h2q16 -1 26 -11q11 -11 11 -28q0 -15 -12 -30q-17 -26 -25.5 -40.5t-14.5 -28t-13 -31.5l-20 -49q11 -7 15.5 -18t2.5 -21.5t-10 -19.5t-23 -12q-2 -14 -3.5 -27t-3.5 -26q-5 -15 -15 -23t-21.5 -8t-22.5 6.5t-18 20.5zM-765 1005q25 -12 63.5 -19.5 t84.5 -12.5t96 -7t97 -3q-18 17 -40.5 30t-47 23t-48.5 17t-45 11q-20 4 -43 6h-13q-16 0 -31 -2q-22 -4 -41 -14t-32 -29z" />
<glyph unicode="&#x201a;" d="M-364 827q-5 14 -8 28.5t-7 28.5q-85 2 -169 7t-168 19q-10 2 -26 5.5t-33.5 9t-34.5 14t-29 19.5t-17 26q-1 5 -1 12q0 9 4 21q16 40 46 64.5t68 36.5q36 11 77 11q2 0 4 -1q43 0 85 -8.5t79.5 -24t65.5 -34.5q26 -18 48 -36.5t39 -40.5q18 35 27 57l18 39q8 17 18 35 t29 46q15 12 30 12h2q16 -1 26 -11q11 -11 11 -28q0 -15 -12 -30q-17 -26 -25.5 -40.5t-14.5 -28t-13 -31.5l-20 -49q11 -7 15.5 -18t2.5 -21.5t-10 -19.5t-23 -12q-2 -14 -3.5 -27t-3.5 -26q-5 -15 -15 -23t-21.5 -8t-22.5 6.5t-18 20.5zM-765 1005q25 -12 63.5 -19.5 t84.5 -12.5t96 -7t97 -3q-18 17 -40.5 30t-47 23t-48.5 17t-45 11q-20 4 -43 6h-13q-16 0 -31 -2q-22 -4 -41 -14t-32 -29z" />
<glyph horiz-adv-x="2" d="M-356 1099q9 -9 15 -18q21 19 48.5 31.5t55 16.5t52.5 -3t42 -26q26 -29 31 -60q2 -11 2 -21q0 -21 -7 -41q-10 -29 -32 -53t-50.5 -39t-60.5 -18q-5 -1 -11 -1q-25 0 -49 12q-15 8 -22 22q-5 2 -10.5 4t-10.5 7q-32 10 -68 13.5t-73 4.5h-36.5h-35.5q-8 -1 -15 -1 q-27 0 -52 2q-14 1 -34.5 5t-43 11.5t-44 18.5t-36.5 25.5t-22 32.5q-3 10 -3 20t3 22q4 12 15 25.5t23.5 25.5t23 20.5t12.5 10.5q18 18 43 31t50 16q42 6 78 6h10q40 -1 75.5 -12.5t68.5 -33.5t68 -56zM-742 1043q40 -23 84 -30.5t90 -8.5q30 -1 60 -1l30 1h7q42 0 83 -6 q-13 35 -40 62t-61.5 43.5t-72.5 20.5q-11 1 -21 1q-27 0 -52 -7q-22 -6 -35.5 -13t-24 -15.5t-21.5 -19.5zM-289 969q0 -1 1 -2q2 -2 3 -2q10 -8 15 -15q18 1 36 11t30 24q16 17 16 34q0 13 -11 23q-7 7 -20 7q-5 0 -9 -1q-20 -3 -38.5 -12t-30.5 -22q-8 -8 -8 -16 q0 -3 1 -6l8 -12z" />
<glyph unicode="&#xf703;" horiz-adv-x="2" d="M-356 1099q9 -9 15 -18q21 19 48.5 31.5t55 16.5t52.5 -3t42 -26q26 -29 31 -60q2 -11 2 -21q0 -21 -7 -41q-10 -29 -32 -53t-50.5 -39t-60.5 -18q-5 -1 -11 -1q-25 0 -49 12q-15 8 -22 22q-5 2 -10.5 4t-10.5 7q-32 10 -68 13.5t-73 4.5h-36.5h-35.5q-8 -1 -15 -1 q-27 0 -52 2q-14 1 -34.5 5t-43 11.5t-44 18.5t-36.5 25.5t-22 32.5q-3 10 -3 20t3 22q4 12 15 25.5t23.5 25.5t23 20.5t12.5 10.5q18 18 43 31t50 16q42 6 78 6h10q40 -1 75.5 -12.5t68.5 -33.5t68 -56zM-742 1043q40 -23 84 -30.5t90 -8.5q30 -1 60 -1l30 1h7q42 0 83 -6 q-13 35 -40 62t-61.5 43.5t-72.5 20.5q-11 1 -21 1q-27 0 -52 -7q-22 -6 -35.5 -13t-24 -15.5t-21.5 -19.5zM-289 969q0 -1 1 -2q2 -2 3 -2q10 -8 15 -15q18 1 36 11t30 24q16 17 16 34q0 13 -11 23q-7 7 -20 7q-5 0 -9 -1q-20 -3 -38.5 -12t-30.5 -22q-8 -8 -8 -16 q0 -3 1 -6l8 -12z" />
<glyph unicode="&#x192;" horiz-adv-x="2" d="M-356 1099q9 -9 15 -18q21 19 48.5 31.5t55 16.5t52.5 -3t42 -26q26 -29 31 -60q2 -11 2 -21q0 -21 -7 -41q-10 -29 -32 -53t-50.5 -39t-60.5 -18q-5 -1 -11 -1q-25 0 -49 12q-15 8 -22 22q-5 2 -10.5 4t-10.5 7q-32 10 -68 13.5t-73 4.5h-36.5h-35.5q-8 -1 -15 -1 q-27 0 -52 2q-14 1 -34.5 5t-43 11.5t-44 18.5t-36.5 25.5t-22 32.5q-3 10 -3 20t3 22q4 12 15 25.5t23.5 25.5t23 20.5t12.5 10.5q18 18 43 31t50 16q42 6 78 6h10q40 -1 75.5 -12.5t68.5 -33.5t68 -56zM-742 1043q40 -23 84 -30.5t90 -8.5q30 -1 60 -1l30 1h7q42 0 83 -6 q-13 35 -40 62t-61.5 43.5t-72.5 20.5q-11 1 -21 1q-27 0 -52 -7q-22 -6 -35.5 -13t-24 -15.5t-21.5 -19.5zM-289 969q0 -1 1 -2q2 -2 3 -2q10 -8 15 -15q18 1 36 11t30 24q16 17 16 34q0 13 -11 23q-7 7 -20 7q-5 0 -9 -1q-20 -3 -38.5 -12t-30.5 -22q-8 -8 -8 -16 q0 -3 1 -6l8 -12z" />
<glyph d="M-181 1115q13 -9 18 -20q4 -8 4 -17q0 -13 -9 -24q-7 -8 -18 -12q-16 -19 -29.5 -48.5t-24.5 -60.5t-19.5 -58.5t-14.5 -40.5q-12 -14 -26 -17q-5 -1 -9 -1q-9 0 -16 4q-11 6 -17.5 18.5t-3.5 30.5l6 14l6 14q-6 -17 -16 -32t-24 -20q-19 -8 -36 2t-27 27l-5 10 q-3 4 -5 9q-1 0 -1 1q-1 1 -1 1.5t-1 1.5q-22 2 -45 2t-46 1l-137 8q-70 5 -135 26q-54 17 -81.5 47.5t-29.5 65.5v6q0 32 20 65q23 35 69 63q36 22 75 31q29 6 57 6h23q39 -4 76.5 -20t69.5 -44q43 -37 75 -86t60 -100h1q2 5 3 10t3 10q12 32 18 50l10 32q4 13 10.5 28 t22.5 42q14 12 29 11.5t26 -9t14.5 -22t-4.5 -27.5q-18 -32 -28.5 -56t-16.5 -46t-11 -44t-12 -50q7 19 19 47l25 58q14 29 29.5 55.5t30.5 41.5q10 10 24 15t25 1zM-538 980q10 -1 19.5 -1t19.5 -1q-1 1 -1 1.5t-1 1.5q-18 30 -38.5 60t-47.5 53q-30 26 -69 37q-26 8 -52 8 q-11 0 -23 -2q-37 -5 -67.5 -27t-44.5 -63q9 -15 24.5 -24t33.5 -14.5t36.5 -8.5t33.5 -6q41 -6 88.5 -9t88.5 -5z" />
<glyph unicode="&#xf704;" d="M-181 1115q13 -9 18 -20q4 -8 4 -17q0 -13 -9 -24q-7 -8 -18 -12q-16 -19 -29.5 -48.5t-24.5 -60.5t-19.5 -58.5t-14.5 -40.5q-12 -14 -26 -17q-5 -1 -9 -1q-9 0 -16 4q-11 6 -17.5 18.5t-3.5 30.5l6 14l6 14q-6 -17 -16 -32t-24 -20q-19 -8 -36 2t-27 27l-5 10 q-3 4 -5 9q-1 0 -1 1q-1 1 -1 1.5t-1 1.5q-22 2 -45 2t-46 1l-137 8q-70 5 -135 26q-54 17 -81.5 47.5t-29.5 65.5v6q0 32 20 65q23 35 69 63q36 22 75 31q29 6 57 6h23q39 -4 76.5 -20t69.5 -44q43 -37 75 -86t60 -100h1q2 5 3 10t3 10q12 32 18 50l10 32q4 13 10.5 28 t22.5 42q14 12 29 11.5t26 -9t14.5 -22t-4.5 -27.5q-18 -32 -28.5 -56t-16.5 -46t-11 -44t-12 -50q7 19 19 47l25 58q14 29 29.5 55.5t30.5 41.5q10 10 24 15t25 1zM-538 980q10 -1 19.5 -1t19.5 -1q-1 1 -1 1.5t-1 1.5q-18 30 -38.5 60t-47.5 53q-30 26 -69 37q-26 8 -52 8 q-11 0 -23 -2q-37 -5 -67.5 -27t-44.5 -63q9 -15 24.5 -24t33.5 -14.5t36.5 -8.5t33.5 -6q41 -6 88.5 -9t88.5 -5z" />
<glyph unicode="&#x201e;" d="M-181 1115q13 -9 18 -20q4 -8 4 -17q0 -13 -9 -24q-7 -8 -18 -12q-16 -19 -29.5 -48.5t-24.5 -60.5t-19.5 -58.5t-14.5 -40.5q-12 -14 -26 -17q-5 -1 -9 -1q-9 0 -16 4q-11 6 -17.5 18.5t-3.5 30.5l6 14l6 14q-6 -17 -16 -32t-24 -20q-19 -8 -36 2t-27 27l-5 10 q-3 4 -5 9q-1 0 -1 1q-1 1 -1 1.5t-1 1.5q-22 2 -45 2t-46 1l-137 8q-70 5 -135 26q-54 17 -81.5 47.5t-29.5 65.5v6q0 32 20 65q23 35 69 63q36 22 75 31q29 6 57 6h23q39 -4 76.5 -20t69.5 -44q43 -37 75 -86t60 -100h1q2 5 3 10t3 10q12 32 18 50l10 32q4 13 10.5 28 t22.5 42q14 12 29 11.5t26 -9t14.5 -22t-4.5 -27.5q-18 -32 -28.5 -56t-16.5 -46t-11 -44t-12 -50q7 19 19 47l25 58q14 29 29.5 55.5t30.5 41.5q10 10 24 15t25 1zM-538 980q10 -1 19.5 -1t19.5 -1q-1 1 -1 1.5t-1 1.5q-18 30 -38.5 60t-47.5 53q-30 26 -69 37q-26 8 -52 8 q-11 0 -23 -2q-37 -5 -67.5 -27t-44.5 -63q9 -15 24.5 -24t33.5 -14.5t36.5 -8.5t33.5 -6q41 -6 88.5 -9t88.5 -5z" />
<glyph unicode="&#x85;" horiz-adv-x="693" d="M150 105q14 0 27 -7t20.5 -20.5t7.5 -27.5t-7 -27t-20.5 -20.5t-27.5 -7.5t-27 7.5t-20.5 20.5t-7.5 27t7.5 27.5t20.5 20.5t27 7zM344 105q14 0 27 -7t20.5 -20.5t7.5 -27.5t-7 -27t-20.5 -20.5t-27.5 -7.5t-27 7.5t-20.5 20.5t-7.5 27t7.5 27.5t20.5 20.5t27 7z M545 105q14 0 27 -7t20.5 -20.5t7.5 -27.5t-7 -27t-20.5 -20.5t-27.5 -7.5t-27 7.5t-20.5 20.5t-7.5 27t7.5 27.5t20.5 20.5t27 7z" />
<glyph unicode="&#x2026;" horiz-adv-x="693" d="M150 105q14 0 27 -7t20.5 -20.5t7.5 -27.5t-7 -27t-20.5 -20.5t-27.5 -7.5t-27 7.5t-20.5 20.5t-7.5 27t7.5 27.5t20.5 20.5t27 7zM344 105q14 0 27 -7t20.5 -20.5t7.5 -27.5t-7 -27t-20.5 -20.5t-27.5 -7.5t-27 7.5t-20.5 20.5t-7.5 27t7.5 27.5t20.5 20.5t27 7z M545 105q14 0 27 -7t20.5 -20.5t7.5 -27.5t-7 -27t-20.5 -20.5t-27.5 -7.5t-27 7.5t-20.5 20.5t-7.5 27t7.5 27.5t20.5 20.5t27 7z" />
<glyph d="M-355 1240q3 18 14 27.5t24 10.5h2q12 0 23 -8t16 -26q-1 -95 -11 -187t-29 -185q-7 -20 -22 -26q-8 -5 -17 -5q-5 0 -11 2q-13 4 -22 17q-6 10 -6 22q0 6 1 12q17 87 27 172.5t11 173.5z" />
<glyph unicode="&#xf705;" d="M-355 1240q3 18 14 27.5t24 10.5h2q12 0 23 -8t16 -26q-1 -95 -11 -187t-29 -185q-7 -20 -22 -26q-8 -5 -17 -5q-5 0 -11 2q-13 4 -22 17q-6 10 -6 22q0 6 1 12q17 87 27 172.5t11 173.5z" />
<glyph unicode="&#x2020;" d="M-355 1240q3 18 14 27.5t24 10.5h2q12 0 23 -8t16 -26q-1 -95 -11 -187t-29 -185q-7 -20 -22 -26q-8 -5 -17 -5q-5 0 -11 2q-13 4 -22 17q-6 10 -6 22q0 6 1 12q17 87 27 172.5t11 173.5z" />
<glyph d="M-358 1102q-18 -11 -33.5 -7t-24.5 15q-7 10 -7 23q0 18 18 34q1 1 9 6l16 11q9 6 19 11t17 7q17 3 30 3q17 0 28 -5q22 -8 31.5 -27t9.5 -45t-5.5 -53.5t-14.5 -54t-17 -45.5q-3 -7 -11.5 -21t-18.5 -29q26 10 50 21t34 16l141 68q69 35 143 63q20 7 34.5 1t20.5 -18 q4 -8 4 -17q0 -5 -2 -11q-4 -16 -22 -27q-44 -17 -87 -37l-84 -40l-84 -41q-42 -20 -86 -38l-32 -13q-16 -7 -34 -12.5t-36 -7.5q-6 -1 -12 -1q-12 0 -23 3q-10 6 -15.5 11.5t-11.5 15.5q-5 27 4.5 48.5t23.5 43.5l18 27q1 2 1.5 3.5t2.5 3.5v1q3 5 6 11l4 11q8 17 15.5 40 t10.5 40q2 8 3 15.5t1 15.5v3q-9 -3 -17.5 -10t-16.5 -12z" />
<glyph unicode="&#xf706;" d="M-358 1102q-18 -11 -33.5 -7t-24.5 15q-7 10 -7 23q0 18 18 34q1 1 9 6l16 11q9 6 19 11t17 7q17 3 30 3q17 0 28 -5q22 -8 31.5 -27t9.5 -45t-5.5 -53.5t-14.5 -54t-17 -45.5q-3 -7 -11.5 -21t-18.5 -29q26 10 50 21t34 16l141 68q69 35 143 63q20 7 34.5 1t20.5 -18 q4 -8 4 -17q0 -5 -2 -11q-4 -16 -22 -27q-44 -17 -87 -37l-84 -40l-84 -41q-42 -20 -86 -38l-32 -13q-16 -7 -34 -12.5t-36 -7.5q-6 -1 -12 -1q-12 0 -23 3q-10 6 -15.5 11.5t-11.5 15.5q-5 27 4.5 48.5t23.5 43.5l18 27q1 2 1.5 3.5t2.5 3.5v1q3 5 6 11l4 11q8 17 15.5 40 t10.5 40q2 8 3 15.5t1 15.5v3q-9 -3 -17.5 -10t-16.5 -12z" />
<glyph unicode="&#x2021;" d="M-358 1102q-18 -11 -33.5 -7t-24.5 15q-7 10 -7 23q0 18 18 34q1 1 9 6l16 11q9 6 19 11t17 7q17 3 30 3q17 0 28 -5q22 -8 31.5 -27t9.5 -45t-5.5 -53.5t-14.5 -54t-17 -45.5q-3 -7 -11.5 -21t-18.5 -29q26 10 50 21t34 16l141 68q69 35 143 63q20 7 34.5 1t20.5 -18 q4 -8 4 -17q0 -5 -2 -11q-4 -16 -22 -27q-44 -17 -87 -37l-84 -40l-84 -41q-42 -20 -86 -38l-32 -13q-16 -7 -34 -12.5t-36 -7.5q-6 -1 -12 -1q-12 0 -23 3q-10 6 -15.5 11.5t-11.5 15.5q-5 27 4.5 48.5t23.5 43.5l18 27q1 2 1.5 3.5t2.5 3.5v1q3 5 6 11l4 11q8 17 15.5 40 t10.5 40q2 8 3 15.5t1 15.5v3q-9 -3 -17.5 -10t-16.5 -12z" />
<glyph d="M-553 882q-6 -17 -18.5 -24.5t-25 -6t-23 11.5t-12.5 28q7 57 38.5 106t81.5 76q20 11 41 14.5t39 -1.5t31 -18.5t18 -36.5q13 13 26 24.5t27 19.5t29.5 11.5t33.5 0.5q14 -3 22.5 -11.5t13.5 -19.5t7 -24t3 -25q0 -2 0.5 -3t0.5 -2l34 48q17 25 36 48t41 43.5t51 38.5 q10 4 19 4q6 0 12 -2q14 -4 21 -14q8 -9 8 -23q0 -15 -13 -30q-41 -24 -70 -58t-55 -71l-53 -75q-27 -37 -62 -68q-14 -8 -26.5 -8t-21.5 7t-14 19t-2 27q2 4 2 7v-3q0 1 0.5 1.5t0.5 1.5h-1h1q5 25 9.5 51t2.5 51q-7 -5 -17 -13q-21 -19 -40.5 -40t-43.5 -37 q-17 -10 -31 -8t-28 16q-8 10 -10 20t-0.5 20t4 20.5t4.5 22.5q2 6 2 11q-38 -17 -63 -51t-30 -76zM-313 898q1 0 1 -0.5t-1 -2.5v3z" />
<glyph unicode="&#xf707;" d="M-553 882q-6 -17 -18.5 -24.5t-25 -6t-23 11.5t-12.5 28q7 57 38.5 106t81.5 76q20 11 41 14.5t39 -1.5t31 -18.5t18 -36.5q13 13 26 24.5t27 19.5t29.5 11.5t33.5 0.5q14 -3 22.5 -11.5t13.5 -19.5t7 -24t3 -25q0 -2 0.5 -3t0.5 -2l34 48q17 25 36 48t41 43.5t51 38.5 q10 4 19 4q6 0 12 -2q14 -4 21 -14q8 -9 8 -23q0 -15 -13 -30q-41 -24 -70 -58t-55 -71l-53 -75q-27 -37 -62 -68q-14 -8 -26.5 -8t-21.5 7t-14 19t-2 27q2 4 2 7v-3q0 1 0.5 1.5t0.5 1.5h-1h1q5 25 9.5 51t2.5 51q-7 -5 -17 -13q-21 -19 -40.5 -40t-43.5 -37 q-17 -10 -31 -8t-28 16q-8 10 -10 20t-0.5 20t4 20.5t4.5 22.5q2 6 2 11q-38 -17 -63 -51t-30 -76zM-313 898q1 0 1 -0.5t-1 -2.5v3z" />
<glyph unicode="&#x2c6;" d="M-553 882q-6 -17 -18.5 -24.5t-25 -6t-23 11.5t-12.5 28q7 57 38.5 106t81.5 76q20 11 41 14.5t39 -1.5t31 -18.5t18 -36.5q13 13 26 24.5t27 19.5t29.5 11.5t33.5 0.5q14 -3 22.5 -11.5t13.5 -19.5t7 -24t3 -25q0 -2 0.5 -3t0.5 -2l34 48q17 25 36 48t41 43.5t51 38.5 q10 4 19 4q6 0 12 -2q14 -4 21 -14q8 -9 8 -23q0 -15 -13 -30q-41 -24 -70 -58t-55 -71l-53 -75q-27 -37 -62 -68q-14 -8 -26.5 -8t-21.5 7t-14 19t-2 27q2 4 2 7v-3q0 1 0.5 1.5t0.5 1.5h-1h1q5 25 9.5 51t2.5 51q-7 -5 -17 -13q-21 -19 -40.5 -40t-43.5 -37 q-17 -10 -31 -8t-28 16q-8 10 -10 20t-0.5 20t4 20.5t4.5 22.5q2 6 2 11q-38 -17 -63 -51t-30 -76zM-313 898q1 0 1 -0.5t-1 -2.5v3z" />
<glyph d="M-474 947q-20 -4 -33.5 5t-17.5 22q-2 6 -2 11q0 9 5 17q6 15 26 22l38 8l28 7l29 7l36 7q7 35 11 70t6 71q4 21 17 30q11 8 23 8h4q14 -2 25 -14t10 -33q-1 -31 -4 -60.5t-8 -58.5q26 3 34.5 5.5t13.5 3.5t14 0.5t36 -2.5q18 -5 26 -17q8 -10 8 -22q0 -14 -11 -26 q-9 -11 -27 -14q-29 2 -39.5 2.5t-17 -1t-16.5 -4.5t-38 -7q-11 -48 -24 -96l-27 -96q-7 -20 -21 -26q-9 -5 -18 -5q-5 0 -10 2q-14 4 -23 17.5t-5 33.5l22 78l20 76q-16 -3 -26 -6l-18 -4l-19 -4z" />
<glyph unicode="&#xf708;" d="M-474 947q-20 -4 -33.5 5t-17.5 22q-2 6 -2 11q0 9 5 17q6 15 26 22l38 8l28 7l29 7l36 7q7 35 11 70t6 71q4 21 17 30q11 8 23 8h4q14 -2 25 -14t10 -33q-1 -31 -4 -60.5t-8 -58.5q26 3 34.5 5.5t13.5 3.5t14 0.5t36 -2.5q18 -5 26 -17q8 -10 8 -22q0 -14 -11 -26 q-9 -11 -27 -14q-29 2 -39.5 2.5t-17 -1t-16.5 -4.5t-38 -7q-11 -48 -24 -96l-27 -96q-7 -20 -21 -26q-9 -5 -18 -5q-5 0 -10 2q-14 4 -23 17.5t-5 33.5l22 78l20 76q-16 -3 -26 -6l-18 -4l-19 -4z" />
<glyph unicode="&#x2030;" d="M-474 947q-20 -4 -33.5 5t-17.5 22q-2 6 -2 11q0 9 5 17q6 15 26 22l38 8l28 7l29 7l36 7q7 35 11 70t6 71q4 21 17 30q11 8 23 8h4q14 -2 25 -14t10 -33q-1 -31 -4 -60.5t-8 -58.5q26 3 34.5 5.5t13.5 3.5t14 0.5t36 -2.5q18 -5 26 -17q8 -10 8 -22q0 -14 -11 -26 q-9 -11 -27 -14q-29 2 -39.5 2.5t-17 -1t-16.5 -4.5t-38 -7q-11 -48 -24 -96l-27 -96q-7 -20 -21 -26q-9 -5 -18 -5q-5 0 -10 2q-14 4 -23 17.5t-5 33.5l22 78l20 76q-16 -3 -26 -6l-18 -4l-19 -4z" />
<glyph d="M-282 892q-14 -8 -26 -8h-4q-15 2 -24 11q-11 11 -11 28q0 12 8 26q81 77 170 132t194 93q11 4 20 4q8 0 15 -3q14 -6 20 -19q4 -7 4 -16q0 -5 -2 -12q-4 -15 -22 -26q-99 -35 -182 -86t-160 -124z" />
<glyph unicode="&#xf709;" d="M-282 892q-14 -8 -26 -8h-4q-15 2 -24 11q-11 11 -11 28q0 12 8 26q81 77 170 132t194 93q11 4 20 4q8 0 15 -3q14 -6 20 -19q4 -7 4 -16q0 -5 -2 -12q-4 -15 -22 -26q-99 -35 -182 -86t-160 -124z" />
<glyph unicode="&#x160;" d="M-282 892q-14 -8 -26 -8h-4q-15 2 -24 11q-11 11 -11 28q0 12 8 26q81 77 170 132t194 93q11 4 20 4q8 0 15 -3q14 -6 20 -19q4 -7 4 -16q0 -5 -2 -12q-4 -15 -22 -26q-99 -35 -182 -86t-160 -124z" />
<glyph d="M-119 1190q3 18 14 27.5t24 10.5h2q12 0 23 -8t16 -26q0 -47 -3 -84t-7.5 -72t-11.5 -72l-17 -82q-7 -20 -21 -26q-9 -5 -18 -5q-5 0 -10 2q-14 4 -23 17q-6 10 -6 22q0 6 1 12l16 76q6 34 10.5 65.5t7.5 65t3 77.5z" />
<glyph unicode="&#xf70a;" d="M-119 1190q3 18 14 27.5t24 10.5h2q12 0 23 -8t16 -26q0 -47 -3 -84t-7.5 -72t-11.5 -72l-17 -82q-7 -20 -21 -26q-9 -5 -18 -5q-5 0 -10 2q-14 4 -23 17q-6 10 -6 22q0 6 1 12l16 76q6 34 10.5 65.5t7.5 65t3 77.5z" />
<glyph unicode="&#x2039;" d="M-119 1190q3 18 14 27.5t24 10.5h2q12 0 23 -8t16 -26q0 -47 -3 -84t-7.5 -72t-11.5 -72l-17 -82q-7 -20 -21 -26q-9 -5 -18 -5q-5 0 -10 2q-14 4 -23 17q-6 10 -6 22q0 6 1 12l16 76q6 34 10.5 65.5t7.5 65t3 77.5z" />
<glyph d="M-97 1117q-18 -11 -33.5 -7t-24.5 15q-7 10 -7 23q0 18 18 34q1 1 9 6l16 11q9 6 19 11t17 7q17 3 30 3q17 0 28 -5q22 -8 31.5 -27t9.5 -45t-5.5 -53.5t-14.5 -54t-17 -45.5q-3 -7 -11.5 -21t-18.5 -29q26 10 50 21t34 16l141 68q69 35 143 63q20 7 34.5 1t20.5 -18 q4 -8 4 -17q0 -5 -2 -11q-4 -16 -22 -27q-44 -17 -87 -37l-84 -40l-84 -41q-42 -20 -86 -38l-32 -13q-16 -7 -34 -12.5t-36 -7.5q-6 -1 -12 -1q-12 0 -23 3q-10 6 -15.5 11.5t-11.5 15.5q-5 27 4.5 48.5t23.5 43.5l18 27q1 2 1.5 3.5t2.5 3.5v1q3 5 6 11l4 11q8 17 15.5 40 t10.5 40q2 8 3 15.5t1 15.5v3q-9 -3 -17.5 -10t-16.5 -12z" />
<glyph unicode="&#xf70b;" d="M-97 1117q-18 -11 -33.5 -7t-24.5 15q-7 10 -7 23q0 18 18 34q1 1 9 6l16 11q9 6 19 11t17 7q17 3 30 3q17 0 28 -5q22 -8 31.5 -27t9.5 -45t-5.5 -53.5t-14.5 -54t-17 -45.5q-3 -7 -11.5 -21t-18.5 -29q26 10 50 21t34 16l141 68q69 35 143 63q20 7 34.5 1t20.5 -18 q4 -8 4 -17q0 -5 -2 -11q-4 -16 -22 -27q-44 -17 -87 -37l-84 -40l-84 -41q-42 -20 -86 -38l-32 -13q-16 -7 -34 -12.5t-36 -7.5q-6 -1 -12 -1q-12 0 -23 3q-10 6 -15.5 11.5t-11.5 15.5q-5 27 4.5 48.5t23.5 43.5l18 27q1 2 1.5 3.5t2.5 3.5v1q3 5 6 11l4 11q8 17 15.5 40 t10.5 40q2 8 3 15.5t1 15.5v3q-9 -3 -17.5 -10t-16.5 -12z" />
<glyph unicode="&#x152;" d="M-97 1117q-18 -11 -33.5 -7t-24.5 15q-7 10 -7 23q0 18 18 34q1 1 9 6l16 11q9 6 19 11t17 7q17 3 30 3q17 0 28 -5q22 -8 31.5 -27t9.5 -45t-5.5 -53.5t-14.5 -54t-17 -45.5q-3 -7 -11.5 -21t-18.5 -29q26 10 50 21t34 16l141 68q69 35 143 63q20 7 34.5 1t20.5 -18 q4 -8 4 -17q0 -5 -2 -11q-4 -16 -22 -27q-44 -17 -87 -37l-84 -40l-84 -41q-42 -20 -86 -38l-32 -13q-16 -7 -34 -12.5t-36 -7.5q-6 -1 -12 -1q-12 0 -23 3q-10 6 -15.5 11.5t-11.5 15.5q-5 27 4.5 48.5t23.5 43.5l18 27q1 2 1.5 3.5t2.5 3.5v1q3 5 6 11l4 11q8 17 15.5 40 t10.5 40q2 8 3 15.5t1 15.5v3q-9 -3 -17.5 -10t-16.5 -12z" />
<glyph horiz-adv-x="2" d="M-313 909q6 -20 -1.5 -34t-20.5 -19t-28 0.5t-25 23.5q-9 21 -9 42q0 17 7 35q13 39 42.5 71.5t69 55t75.5 28.5q9 1 18 1q25 0 45 -12q27 -16 32 -60q24 22 50.5 41t53.5 31.5t53 15.5q6 1 12 1q19 0 36 -8q23 -11 32.5 -28t10 -37t-6 -41.5t-14.5 -40.5q11 9 23 17 l23 17q49 32 99 59l103 52q20 7 34.5 1t20.5 -19q4 -7 4 -16q0 -5 -2 -12q-4 -15 -22 -26l-96 -49q-48 -25 -95 -55q-18 -12 -36 -26l-37 -30q-19 -14 -38 -26.5t-40 -20.5q-6 -1 -12 -1q-11 0 -19 4q-12 6 -22 23q-9 21 -4 43t14.5 44t21 45t16.5 46q-23 1 -51 -17 t-55.5 -42.5t-50 -49.5t-32.5 -38q-12 -14 -26 -17t-25 3t-17.5 18.5t-3.5 30.5q7 20 12 41t7 43q1 4 -1 9l-4 11q-7 0 -13.5 -3.5t-13.5 -6.5q-11 -5 -29.5 -18.5t-35 -30.5t-26 -35.5t-3.5 -33.5z" />
<glyph unicode="&#xf70c;" horiz-adv-x="2" d="M-313 909q6 -20 -1.5 -34t-20.5 -19t-28 0.5t-25 23.5q-9 21 -9 42q0 17 7 35q13 39 42.5 71.5t69 55t75.5 28.5q9 1 18 1q25 0 45 -12q27 -16 32 -60q24 22 50.5 41t53.5 31.5t53 15.5q6 1 12 1q19 0 36 -8q23 -11 32.5 -28t10 -37t-6 -41.5t-14.5 -40.5q11 9 23 17 l23 17q49 32 99 59l103 52q20 7 34.5 1t20.5 -19q4 -7 4 -16q0 -5 -2 -12q-4 -15 -22 -26l-96 -49q-48 -25 -95 -55q-18 -12 -36 -26l-37 -30q-19 -14 -38 -26.5t-40 -20.5q-6 -1 -12 -1q-11 0 -19 4q-12 6 -22 23q-9 21 -4 43t14.5 44t21 45t16.5 46q-23 1 -51 -17 t-55.5 -42.5t-50 -49.5t-32.5 -38q-12 -14 -26 -17t-25 3t-17.5 18.5t-3.5 30.5q7 20 12 41t7 43q1 4 -1 9l-4 11q-7 0 -13.5 -3.5t-13.5 -6.5q-11 -5 -29.5 -18.5t-35 -30.5t-26 -35.5t-3.5 -33.5z" />
<glyph horiz-adv-x="2" d="M-254 985q-20 -4 -33.5 5t-17.5 22q-2 6 -2 11q0 9 5 17q6 15 26 22l88 20q42 9 85 17q7 35 11 70t6 71q4 21 17 30q11 8 23 8h4q14 -2 25 -14t10 -33q-1 -31 -4 -60.5t-8 -58.5q52 7 105 10h35q36 0 72 -3q18 -5 26 -17q8 -10 8 -22q0 -14 -11 -26q-9 -11 -27 -14 q-34 3 -67 3q-24 0 -46 -1q-56 -4 -112 -12q-11 -48 -24 -96l-27 -96q-7 -20 -21 -26q-9 -5 -18 -5q-5 0 -10 2q-14 4 -23 17.5t-5 33.5l22 78l20 76l-65 -14q-33 -7 -67 -15z" />
<glyph unicode="&#xf70d;" horiz-adv-x="2" d="M-254 985q-20 -4 -33.5 5t-17.5 22q-2 6 -2 11q0 9 5 17q6 15 26 22l88 20q42 9 85 17q7 35 11 70t6 71q4 21 17 30q11 8 23 8h4q14 -2 25 -14t10 -33q-1 -31 -4 -60.5t-8 -58.5q52 7 105 10h35q36 0 72 -3q18 -5 26 -17q8 -10 8 -22q0 -14 -11 -26q-9 -11 -27 -14 q-34 3 -67 3q-24 0 -46 -1q-56 -4 -112 -12q-11 -48 -24 -96l-27 -96q-7 -20 -21 -26q-9 -5 -18 -5q-5 0 -10 2q-14 4 -23 17.5t-5 33.5l22 78l20 76l-65 -14q-33 -7 -67 -15z" />
<glyph unicode="&#x17d;" horiz-adv-x="2" d="M-254 985q-20 -4 -33.5 5t-17.5 22q-2 6 -2 11q0 9 5 17q6 15 26 22l88 20q42 9 85 17q7 35 11 70t6 71q4 21 17 30q11 8 23 8h4q14 -2 25 -14t10 -33q-1 -31 -4 -60.5t-8 -58.5q52 7 105 10h35q36 0 72 -3q18 -5 26 -17q8 -10 8 -22q0 -14 -11 -26q-9 -11 -27 -14 q-34 3 -67 3q-24 0 -46 -1q-56 -4 -112 -12q-11 -48 -24 -96l-27 -96q-7 -20 -21 -26q-9 -5 -18 -5q-5 0 -10 2q-14 4 -23 17.5t-5 33.5l22 78l20 76l-65 -14q-33 -7 -67 -15z" />
<glyph d="M-60 898q-14 -8 -26 -8h-4q-15 2 -24 11q-11 11 -11 28q0 12 8 26q81 77 170 132t194 93q11 4 20 4q8 0 15 -3q14 -6 20 -19q4 -7 4 -16q0 -5 -2 -12q-4 -15 -22 -26q-49 -18 -86 -38t-74 -46l-80 -56q-42 -31 -102 -70z" />
<glyph unicode="&#xf70e;" d="M-60 898q-14 -8 -26 -8h-4q-15 2 -24 11q-11 11 -11 28q0 12 8 26q81 77 170 132t194 93q11 4 20 4q8 0 15 -3q14 -6 20 -19q4 -7 4 -16q0 -5 -2 -12q-4 -15 -22 -26q-49 -18 -86 -38t-74 -46l-80 -56q-42 -31 -102 -70z" />
<glyph horiz-adv-x="902" d="M272 132q1 0 4 3q6 18 19 25.5t26.5 5t23.5 -14t9 -31.5q-3 -24 -19 -40t-37.5 -26.5t-44.5 -17.5l-41 -11q-8 -1 -14.5 -1t-11.5 1q-9 3 -21 14q-10 14 -22.5 27t-17.5 30q-9 28 -9 62v11q2 41 11.5 85.5t24 91t31.5 89.5t33.5 80.5t29.5 64.5t31 50l35 46 q7 9 22.5 20.5t34.5 19t37 7.5t29 -15q9 -11 13 -25.5t6 -30.5t2.5 -31.5t2.5 -26.5l3 -28q3 -19 5 -40.5t5 -41.5l3 -27l15 -101q7 -51 18 -102l15 -57q2 -5 4.5 -15.5t7.5 -23.5q2 5 4 11t4 11q13 34 23 66l20 67l40 135q20 67 46 132q6 15 13.5 36.5t18 42.5t24.5 38.5 t32 23.5q37 1 47 -34q1 -1 1 -4q-1 -28 -19 -38l-9 -18q-11 -20 -19 -39l-17 -43q-32 -78 -54 -159t-48 -162l-32 -100q-16 -46 -30 -72q-5 -8 -13.5 -16t-18.5 -10q-18 -3 -31 3.5t-22 18.5t-15.5 27.5t-11.5 29.5l-12 37q-4 15 -8.5 28.5t-8.5 28.5t-9 38q-7 32 -13 68 l-11 67q-8 52 -14 103l-11 102q-1 9 -3 21t-4 26l-3 -3q-29 -29 -51.5 -66.5t-40 -78.5t-31 -83t-23.5 -80l-11 -43q-7 -27 -11.5 -57.5t-3.5 -59t14 -45.5l30 10q15 6 29 14zM276 134v-1v1z" />
<glyph unicode="&#xf70f;" horiz-adv-x="902" d="M272 132q1 0 4 3q6 18 19 25.5t26.5 5t23.5 -14t9 -31.5q-3 -24 -19 -40t-37.5 -26.5t-44.5 -17.5l-41 -11q-8 -1 -14.5 -1t-11.5 1q-9 3 -21 14q-10 14 -22.5 27t-17.5 30q-9 28 -9 62v11q2 41 11.5 85.5t24 91t31.5 89.5t33.5 80.5t29.5 64.5t31 50l35 46 q7 9 22.5 20.5t34.5 19t37 7.5t29 -15q9 -11 13 -25.5t6 -30.5t2.5 -31.5t2.5 -26.5l3 -28q3 -19 5 -40.5t5 -41.5l3 -27l15 -101q7 -51 18 -102l15 -57q2 -5 4.5 -15.5t7.5 -23.5q2 5 4 11t4 11q13 34 23 66l20 67l40 135q20 67 46 132q6 15 13.5 36.5t18 42.5t24.5 38.5 t32 23.5q37 1 47 -34q1 -1 1 -4q-1 -28 -19 -38l-9 -18q-11 -20 -19 -39l-17 -43q-32 -78 -54 -159t-48 -162l-32 -100q-16 -46 -30 -72q-5 -8 -13.5 -16t-18.5 -10q-18 -3 -31 3.5t-22 18.5t-15.5 27.5t-11.5 29.5l-12 37q-4 15 -8.5 28.5t-8.5 28.5t-9 38q-7 32 -13 68 l-11 67q-8 52 -14 103l-11 102q-1 9 -3 21t-4 26l-3 -3q-29 -29 -51.5 -66.5t-40 -78.5t-31 -83t-23.5 -80l-11 -43q-7 -27 -11.5 -57.5t-3.5 -59t14 -45.5l30 10q15 6 29 14zM276 134v-1v1z" />
<glyph horiz-adv-x="391" d="M194 780q3 -23 3 -46t2 -46q8 -56 21 -110l27 -109q0 -18 -9 -29t-22 -14h-7q-9 0 -18 4q-13 6 -22 22l-27 109q-13 54 -21 110q-2 23 -2.5 45.5t-2.5 43.5v4q-1 2 -1 6q-1 1 -1 3q1 1 1 2v1q3 18 14 27.5t23 10.5h2q12 0 22 -8q12 -8 17 -25h1v-1z" />
<glyph unicode="&#x2018;" horiz-adv-x="391" d="M194 780q3 -23 3 -46t2 -46q8 -56 21 -110l27 -109q0 -18 -9 -29t-22 -14h-7q-9 0 -18 4q-13 6 -22 22l-27 109q-13 54 -21 110q-2 23 -2.5 45.5t-2.5 43.5v4q-1 2 -1 6q-1 1 -1 3q1 1 1 2v1q3 18 14 27.5t23 10.5h2q12 0 22 -8q12 -8 17 -25h1v-1z" />
<glyph horiz-adv-x="473" d="M264 780q4 21 17 30q11 8 23 8h4q14 -2 25 -14q10 -11 10 -30q0 -39 -15 -93q-13 -43 -30 -84l-34 -83q-18 -41 -33 -84q-7 -20 -21 -26q-9 -5 -18 -5q-5 0 -10 2q-14 4 -23 17q-6 10 -6 22q0 6 1 12q14 42 32 81.5t34 79.5t28.5 81.5t15.5 85.5z" />
<glyph unicode="&#x2019;" horiz-adv-x="473" d="M264 780q4 21 17 30q11 8 23 8h4q14 -2 25 -14q10 -11 10 -30q0 -39 -15 -93q-13 -43 -30 -84l-34 -83q-18 -41 -33 -84q-7 -20 -21 -26q-9 -5 -18 -5q-5 0 -10 2q-14 4 -23 17q-6 10 -6 22q0 6 1 12q14 42 32 81.5t34 79.5t28.5 81.5t15.5 85.5z" />
<glyph horiz-adv-x="630" d="M100 740q-6 12 -6 22q0 4 1 8q3 14 12.5 22t24 8.5t29.5 -9.5q31 -38 48.5 -83t32.5 -92t32.5 -93.5t47.5 -88.5q12 -17 9.5 -32.5t-13 -24.5t-26.5 -9t-31 15q-27 37 -46.5 78t-35 83t-29.5 85t-31 85l-9 14zM335 698q-6 20 -10.5 39t-11.5 38q-10 10 -11 27q0 2 0.5 3 t0.5 3q3 16 12 25.5t20 11.5q3 1 6 1q8 0 17 -4q12 -5 21 -18q14 -20 18.5 -47t12.5 -50q20 -62 44.5 -122t56.5 -118q2 -8 2 -15q0 -8 -3 -16q-5 -13 -16 -20q-8 -4 -18 -4h-6q-15 2 -28 15q-33 60 -59 122.5t-48 128.5z" />
<glyph unicode="&#x201c;" horiz-adv-x="630" d="M100 740q-6 12 -6 22q0 4 1 8q3 14 12.5 22t24 8.5t29.5 -9.5q31 -38 48.5 -83t32.5 -92t32.5 -93.5t47.5 -88.5q12 -17 9.5 -32.5t-13 -24.5t-26.5 -9t-31 15q-27 37 -46.5 78t-35 83t-29.5 85t-31 85l-9 14zM335 698q-6 20 -10.5 39t-11.5 38q-10 10 -11 27q0 2 0.5 3 t0.5 3q3 16 12 25.5t20 11.5q3 1 6 1q8 0 17 -4q12 -5 21 -18q14 -20 18.5 -47t12.5 -50q20 -62 44.5 -122t56.5 -118q2 -8 2 -15q0 -8 -3 -16q-5 -13 -16 -20q-8 -4 -18 -4h-6q-15 2 -28 15q-33 60 -59 122.5t-48 128.5z" />
<glyph horiz-adv-x="523" d="M355 748q4 21 17 30q11 8 23 8h4q14 -2 25 -14q10 -11 10 -30q0 -41 -19 -98q-15 -46 -33 -91l-36 -89q-18 -45 -29 -93q-7 -20 -21 -27q-9 -4 -18 -4q-5 0 -10 2q-14 4 -23 17.5t-5 33.5q10 46 28 89l36 88q18 43 32.5 87t18.5 91zM142 748q4 21 17 30q11 8 23 8h4 q14 -2 25 -14q10 -11 10 -30q0 -35 -12 -95q-9 -45 -22 -89t-28 -88l-29 -88q-7 -20 -22 -26q-8 -5 -17 -5q-5 0 -11 2q-13 4 -22 17q-6 10 -6 22q0 6 1 12l29 85q14 42 26.5 84.5t21.5 86t12 88.5z" />
<glyph unicode="&#x201d;" horiz-adv-x="523" d="M355 748q4 21 17 30q11 8 23 8h4q14 -2 25 -14q10 -11 10 -30q0 -41 -19 -98q-15 -46 -33 -91l-36 -89q-18 -45 -29 -93q-7 -20 -21 -27q-9 -4 -18 -4q-5 0 -10 2q-14 4 -23 17.5t-5 33.5q10 46 28 89l36 88q18 43 32.5 87t18.5 91zM142 748q4 21 17 30q11 8 23 8h4 q14 -2 25 -14q10 -11 10 -30q0 -35 -12 -95q-9 -45 -22 -89t-28 -88l-29 -88q-7 -20 -22 -26q-8 -5 -17 -5q-5 0 -11 2q-13 4 -22 17q-6 10 -6 22q0 6 1 12l29 85q14 42 26.5 84.5t21.5 86t12 88.5z" />
<glyph horiz-adv-x="480" d="M161 507q19 16 37.5 12.5t26.5 -20.5q10 5 21 9l22 10l12 6h5t8 -1q14 -2 26 -6l24 -8q11 -7 15 -13t7 -18l5 -19q3 -9 5 -20q1 -8 1 -16q0 -24 -10 -52q-15 -38 -40.5 -74t-57 -64t-58.5 -39q-23 -9 -44 -9q-11 0 -21 2q-30 7 -50 27t-28 50q-4 14 -4 29q0 17 5 34l7 23 l6 18q3 9 7 18.5t10 21.5q13 26 29 51t34 48zM162 337q-3 -4 -6 -6.5t-6 -4.5q-6 -20 -6 -36q0 -18 10 -24q4 -3 10 -3q7 0 16 3q16 7 41 30q12 11 26.5 28.5t26 37.5t16.5 40q4 12 4 23q0 8 -2 16q-5 3 -12 3q-10 0 -22 -7q-20 -11 -39 -30t-35 -39t-22 -31z" />
<glyph unicode="&#x2022;" horiz-adv-x="480" d="M161 507q19 16 37.5 12.5t26.5 -20.5q10 5 21 9l22 10l12 6h5t8 -1q14 -2 26 -6l24 -8q11 -7 15 -13t7 -18l5 -19q3 -9 5 -20q1 -8 1 -16q0 -24 -10 -52q-15 -38 -40.5 -74t-57 -64t-58.5 -39q-23 -9 -44 -9q-11 0 -21 2q-30 7 -50 27t-28 50q-4 14 -4 29q0 17 5 34l7 23 l6 18q3 9 7 18.5t10 21.5q13 26 29 51t34 48zM162 337q-3 -4 -6 -6.5t-6 -4.5q-6 -20 -6 -36q0 -18 10 -24q4 -3 10 -3q7 0 16 3q16 7 41 30q12 11 26.5 28.5t26 37.5t16.5 40q4 12 4 23q0 8 -2 16q-5 3 -12 3q-10 0 -22 -7q-20 -11 -39 -30t-35 -39t-22 -31z" />
<glyph horiz-adv-x="554" d="M81 280q-21 2 -31 14q-9 12 -9 26t12 26q11 12 32 13q93 4 183.5 22t182.5 32h3q19 0 30 -10q14 -13 14 -29q0 -12 -8 -23q-9 -13 -30 -17q-47 -7 -94 -16l-95 -16q-47 -8 -94.5 -14.5t-95.5 -7.5z" />
<glyph unicode="&#x2013;" horiz-adv-x="554" d="M81 280q-21 2 -31 14q-9 12 -9 26t12 26q11 12 32 13q93 4 183.5 22t182.5 32h3q19 0 30 -10q14 -13 14 -29q0 -12 -8 -23q-9 -13 -30 -17q-47 -7 -94 -16l-95 -16q-47 -8 -94.5 -14.5t-95.5 -7.5z" />
<glyph horiz-adv-x="554" d="M51 256q-6 -1 -11 -1q-11 0 -20 5q-12 6 -18 17q-4 7 -4 16q0 4 1 9q3 14 17 26q61 25 124 31t128 11q69 5 138 7.5t138 3.5q18 -5 26 -17q8 -10 8 -22q0 -14 -10 -26q-10 -11 -28 -14q-66 -1 -131.5 -3.5t-131.5 -7.5q-57 -4 -114.5 -8.5t-111.5 -26.5z" />
<glyph unicode="&#x2014;" horiz-adv-x="554" d="M51 256q-6 -1 -11 -1q-11 0 -20 5q-12 6 -18 17q-4 7 -4 16q0 4 1 9q3 14 17 26q61 25 124 31t128 11q69 5 138 7.5t138 3.5q18 -5 26 -17q8 -10 8 -22q0 -14 -10 -26q-10 -11 -28 -14q-66 -1 -131.5 -3.5t-131.5 -7.5q-57 -4 -114.5 -8.5t-111.5 -26.5z" />
<glyph d="M-399 1056q14 12 28.5 12.5t24.5 -7t14 -21.5t-2 -31q-8 -10 -9 -21.5t-1 -23.5q1 -2 1.5 -5t2.5 -5q15 -2 33 3t35.5 13.5t33.5 17.5l27 16q60 34 116.5 72.5t116.5 73.5q11 4 20 4q8 0 14 -3q15 -6 21 -19q4 -7 4 -16q0 -5 -2 -12q-4 -15 -22 -26q-23 -13 -53 -34 l-65 -42l-69 -46q-36 -22 -71 -40.5t-66.5 -30.5t-56.5 -13q-14 0 -28 2.5t-28 4.5q-10 5 -15.5 10.5t-11.5 16.5q-7 18 -12 37.5t-5 39t5.5 38.5t19.5 35z" />
<glyph unicode="&#xf710;" d="M-399 1056q14 12 28.5 12.5t24.5 -7t14 -21.5t-2 -31q-8 -10 -9 -21.5t-1 -23.5q1 -2 1.5 -5t2.5 -5q15 -2 33 3t35.5 13.5t33.5 17.5l27 16q60 34 116.5 72.5t116.5 73.5q11 4 20 4q8 0 14 -3q15 -6 21 -19q4 -7 4 -16q0 -5 -2 -12q-4 -15 -22 -26q-23 -13 -53 -34 l-65 -42l-69 -46q-36 -22 -71 -40.5t-66.5 -30.5t-56.5 -13q-14 0 -28 2.5t-28 4.5q-10 5 -15.5 10.5t-11.5 16.5q-7 18 -12 37.5t-5 39t5.5 38.5t19.5 35z" />
<glyph unicode="&#x2dc;" d="M-399 1056q14 12 28.5 12.5t24.5 -7t14 -21.5t-2 -31q-8 -10 -9 -21.5t-1 -23.5q1 -2 1.5 -5t2.5 -5q15 -2 33 3t35.5 13.5t33.5 17.5l27 16q60 34 116.5 72.5t116.5 73.5q11 4 20 4q8 0 14 -3q15 -6 21 -19q4 -7 4 -16q0 -5 -2 -12q-4 -15 -22 -26q-23 -13 -53 -34 l-65 -42l-69 -46q-36 -22 -71 -40.5t-66.5 -30.5t-56.5 -13q-14 0 -28 2.5t-28 4.5q-10 5 -15.5 10.5t-11.5 16.5q-7 18 -12 37.5t-5 39t5.5 38.5t19.5 35z" />
<glyph horiz-adv-x="1" d="M-432 1139q21 7 35 1q29 14 57 20q18 4 32 4q30 0 46 -16q25 -22 26 -58q1 -3 1 -6q0 -33 -15 -70q-17 -39 -45 -63q-32 -27 -61 -37q-24 -8 -45 -8h-11q-25 3 -45 16.5t-32 34.5q-4 -5 -7.5 -8.5t-6.5 -7.5q-16 -9 -30.5 -7.5t-23.5 10.5q-11 11 -11 28q0 12 8 26l33 37 q17 19 37 37q17 38 58 67zM-314 1080h-6q-23 0 -48 -15q-29 -17 -55 -40q-1 -2 -1.5 -5t-1.5 -5q-1 -3 -1 -6q0 -7 3 -11q5 -6 12 -8h9h7q9 1 18 4q27 10 45.5 34t18.5 52z" />
<glyph unicode="&#xf711;" horiz-adv-x="1" d="M-432 1139q21 7 35 1q29 14 57 20q18 4 32 4q30 0 46 -16q25 -22 26 -58q1 -3 1 -6q0 -33 -15 -70q-17 -39 -45 -63q-32 -27 -61 -37q-24 -8 -45 -8h-11q-25 3 -45 16.5t-32 34.5q-4 -5 -7.5 -8.5t-6.5 -7.5q-16 -9 -30.5 -7.5t-23.5 10.5q-11 11 -11 28q0 12 8 26l33 37 q17 19 37 37q17 38 58 67zM-314 1080h-6q-23 0 -48 -15q-29 -17 -55 -40q-1 -2 -1.5 -5t-1.5 -5q-1 -3 -1 -6q0 -7 3 -11q5 -6 12 -8h9h7q9 1 18 4q27 10 45.5 34t18.5 52z" />
<glyph unicode="&#x2122;" horiz-adv-x="1" d="M-432 1139q21 7 35 1q29 14 57 20q18 4 32 4q30 0 46 -16q25 -22 26 -58q1 -3 1 -6q0 -33 -15 -70q-17 -39 -45 -63q-32 -27 -61 -37q-24 -8 -45 -8h-11q-25 3 -45 16.5t-32 34.5q-4 -5 -7.5 -8.5t-6.5 -7.5q-16 -9 -30.5 -7.5t-23.5 10.5q-11 11 -11 28q0 12 8 26l33 37 q17 19 37 37q17 38 58 67zM-314 1080h-6q-23 0 -48 -15q-29 -17 -55 -40q-1 -2 -1.5 -5t-1.5 -5q-1 -3 -1 -6q0 -7 3 -11q5 -6 12 -8h9h7q9 1 18 4q27 10 45.5 34t18.5 52z" />
<glyph d="M-281 1073q3 18 14 27.5t24 10t24.5 -7.5t16.5 -26q0 -20 1 -52t-2.5 -63.5t-16 -56.5t-39.5 -30q-18 -4 -31 1.5t-29 16.5q-18 14 -31 31l-28 35q-7 -20 -12.5 -39.5t-21.5 -34.5q-18 -18 -43 -25q-15 -4 -31 -4q-10 0 -20 2q-25 4 -47 17t-34 36q-6 12 -12 21 q-5 9 -5 19q0 57 36 99q32 37 83 62q58 29 120 48l123 38l74 25q37 13 75 24t76.5 19t77.5 10h3q19 0 30 -10q14 -13 14 -29q0 -12 -8 -23q-9 -13 -30 -17q-37 -2 -73.5 -9.5t-73 -18.5t-72.5 -23l-71 -25q-31 -10 -62.5 -18.5t-62.5 -20.5q-22 -8 -48 -16.5t-50.5 -20.5 t-45.5 -28.5t-33 -40.5q-4 -8 -1.5 -15.5t8.5 -13t14 -8.5t15 -2q4 0 7 2t7 4q4 4 7 7.5t4 7.5l9 29q5 16 12 31t17.5 26.5t27.5 14.5t31.5 -5t27 -20.5t23 -27t18.5 -24.5l6 -6q3 -3 5 -6q5 25 4 51.5t-1 51.5z" />
<glyph unicode="&#xf712;" d="M-281 1073q3 18 14 27.5t24 10t24.5 -7.5t16.5 -26q0 -20 1 -52t-2.5 -63.5t-16 -56.5t-39.5 -30q-18 -4 -31 1.5t-29 16.5q-18 14 -31 31l-28 35q-7 -20 -12.5 -39.5t-21.5 -34.5q-18 -18 -43 -25q-15 -4 -31 -4q-10 0 -20 2q-25 4 -47 17t-34 36q-6 12 -12 21 q-5 9 -5 19q0 57 36 99q32 37 83 62q58 29 120 48l123 38l74 25q37 13 75 24t76.5 19t77.5 10h3q19 0 30 -10q14 -13 14 -29q0 -12 -8 -23q-9 -13 -30 -17q-37 -2 -73.5 -9.5t-73 -18.5t-72.5 -23l-71 -25q-31 -10 -62.5 -18.5t-62.5 -20.5q-22 -8 -48 -16.5t-50.5 -20.5 t-45.5 -28.5t-33 -40.5q-4 -8 -1.5 -15.5t8.5 -13t14 -8.5t15 -2q4 0 7 2t7 4q4 4 7 7.5t4 7.5l9 29q5 16 12 31t17.5 26.5t27.5 14.5t31.5 -5t27 -20.5t23 -27t18.5 -24.5l6 -6q3 -3 5 -6q5 25 4 51.5t-1 51.5z" />
<glyph unicode="&#x161;" d="M-281 1073q3 18 14 27.5t24 10t24.5 -7.5t16.5 -26q0 -20 1 -52t-2.5 -63.5t-16 -56.5t-39.5 -30q-18 -4 -31 1.5t-29 16.5q-18 14 -31 31l-28 35q-7 -20 -12.5 -39.5t-21.5 -34.5q-18 -18 -43 -25q-15 -4 -31 -4q-10 0 -20 2q-25 4 -47 17t-34 36q-6 12 -12 21 q-5 9 -5 19q0 57 36 99q32 37 83 62q58 29 120 48l123 38l74 25q37 13 75 24t76.5 19t77.5 10h3q19 0 30 -10q14 -13 14 -29q0 -12 -8 -23q-9 -13 -30 -17q-37 -2 -73.5 -9.5t-73 -18.5t-72.5 -23l-71 -25q-31 -10 -62.5 -18.5t-62.5 -20.5q-22 -8 -48 -16.5t-50.5 -20.5 t-45.5 -28.5t-33 -40.5q-4 -8 -1.5 -15.5t8.5 -13t14 -8.5t15 -2q4 0 7 2t7 4q4 4 7 7.5t4 7.5l9 29q5 16 12 31t17.5 26.5t27.5 14.5t31.5 -5t27 -20.5t23 -27t18.5 -24.5l6 -6q3 -3 5 -6q5 25 4 51.5t-1 51.5z" />
<glyph d="M-246 1444q4 18 16 27.5t24 10.5h2q12 0 22 -8q12 -9 15 -27q-4 -47 -6.5 -72.5t-6.5 -46.5t-12 -46l-20 -71q-9 -20 -24 -26q-8 -3 -16 -3q-5 0 -11 2q-13 4 -21 18q-4 8 -4 18q0 7 2 15l13 47q5 19 9 32.5t6 24.5t4 24.5t3.5 32.5t4.5 48z" />
<glyph unicode="&#xf713;" d="M-246 1444q4 18 16 27.5t24 10.5h2q12 0 22 -8q12 -9 15 -27q-4 -47 -6.5 -72.5t-6.5 -46.5t-12 -46l-20 -71q-9 -20 -24 -26q-8 -3 -16 -3q-5 0 -11 2q-13 4 -21 18q-4 8 -4 18q0 7 2 15l13 47q5 19 9 32.5t6 24.5t4 24.5t3.5 32.5t4.5 48z" />
<glyph unicode="&#x203a;" d="M-246 1444q4 18 16 27.5t24 10.5h2q12 0 22 -8q12 -9 15 -27q-4 -47 -6.5 -72.5t-6.5 -46.5t-12 -46l-20 -71q-9 -20 -24 -26q-8 -3 -16 -3q-5 0 -11 2q-13 4 -21 18q-4 8 -4 18q0 7 2 15l13 47q5 19 9 32.5t6 24.5t4 24.5t3.5 32.5t4.5 48z" />
<glyph d="M-315 1436q-18 -11 -33.5 -7t-23.5 15q-8 10 -8 23q0 18 18 34q1 1 8 6l17 11q9 6 19 11t17 7q21 5 37 5q12 0 22 -3q21 -6 31 -20t10.5 -35t-4.5 -44t-14 -46l-17 -42q-3 -7 -11.5 -21t-18.5 -29q26 10 50 21t34 16l141 68q69 35 143 63q20 7 34.5 1t20.5 -18 q4 -8 4 -17q0 -5 -2 -11q-4 -16 -22 -27q-44 -17 -87 -37l-84 -40l-84 -41q-42 -20 -86 -38l-32 -13q-16 -7 -34 -12.5t-36 -7.5q-6 -1 -12 -1q-12 0 -23 3q-10 6 -15.5 11.5t-11.5 15.5q-3 24 3 42.5t17 34.5t24 31t24 31.5t17 35.5t2 43v3q-9 -3 -17.5 -10t-16.5 -12z" />
<glyph unicode="&#xf714;" d="M-315 1436q-18 -11 -33.5 -7t-23.5 15q-8 10 -8 23q0 18 18 34q1 1 8 6l17 11q9 6 19 11t17 7q21 5 37 5q12 0 22 -3q21 -6 31 -20t10.5 -35t-4.5 -44t-14 -46l-17 -42q-3 -7 -11.5 -21t-18.5 -29q26 10 50 21t34 16l141 68q69 35 143 63q20 7 34.5 1t20.5 -18 q4 -8 4 -17q0 -5 -2 -11q-4 -16 -22 -27q-44 -17 -87 -37l-84 -40l-84 -41q-42 -20 -86 -38l-32 -13q-16 -7 -34 -12.5t-36 -7.5q-6 -1 -12 -1q-12 0 -23 3q-10 6 -15.5 11.5t-11.5 15.5q-3 24 3 42.5t17 34.5t24 31t24 31.5t17 35.5t2 43v3q-9 -3 -17.5 -10t-16.5 -12z" />
<glyph unicode="&#x153;" d="M-315 1436q-18 -11 -33.5 -7t-23.5 15q-8 10 -8 23q0 18 18 34q1 1 8 6l17 11q9 6 19 11t17 7q21 5 37 5q12 0 22 -3q21 -6 31 -20t10.5 -35t-4.5 -44t-14 -46l-17 -42q-3 -7 -11.5 -21t-18.5 -29q26 10 50 21t34 16l141 68q69 35 143 63q20 7 34.5 1t20.5 -18 q4 -8 4 -17q0 -5 -2 -11q-4 -16 -22 -27q-44 -17 -87 -37l-84 -40l-84 -41q-42 -20 -86 -38l-32 -13q-16 -7 -34 -12.5t-36 -7.5q-6 -1 -12 -1q-12 0 -23 3q-10 6 -15.5 11.5t-11.5 15.5q-3 24 3 42.5t17 34.5t24 31t24 31.5t17 35.5t2 43v3q-9 -3 -17.5 -10t-16.5 -12z" />
<glyph d="M-505 1292q6 -20 -1.5 -34t-20.5 -19t-28 0.5t-25 23.5q-9 21 -9 42q0 17 7 35q13 39 42.5 71.5t69 55t75.5 28.5q9 1 18 1q25 0 45 -12q27 -16 32 -60q24 22 50.5 41t53.5 31.5t53 15.5q6 1 12 1q19 0 36 -8q23 -11 32.5 -28t10 -37t-6 -41.5t-14.5 -40.5q11 9 23 17 l23 17q49 32 99 59l103 52q20 7 34.5 1t20.5 -19q4 -7 4 -16q0 -5 -2 -12q-4 -15 -22 -26l-96 -49q-48 -25 -95 -55q-18 -12 -36 -26l-37 -30q-19 -14 -38 -26.5t-40 -20.5q-6 -1 -12 -1q-11 0 -19 4q-12 6 -22 23q-9 21 -4 43t14.5 44t21 45t16.5 46q-23 1 -51 -17 t-55.5 -42.5t-50 -49.5t-32.5 -38q-12 -14 -26 -17t-25 3t-17.5 18.5t-3.5 30.5q7 20 12 41t7 43q1 4 -1 9l-4 11q-7 0 -13.5 -3.5t-13.5 -6.5q-11 -5 -29.5 -18.5t-35 -30.5t-26 -35.5t-3.5 -33.5z" />
<glyph unicode="&#xf715;" d="M-505 1292q6 -20 -1.5 -34t-20.5 -19t-28 0.5t-25 23.5q-9 21 -9 42q0 17 7 35q13 39 42.5 71.5t69 55t75.5 28.5q9 1 18 1q25 0 45 -12q27 -16 32 -60q24 22 50.5 41t53.5 31.5t53 15.5q6 1 12 1q19 0 36 -8q23 -11 32.5 -28t10 -37t-6 -41.5t-14.5 -40.5q11 9 23 17 l23 17q49 32 99 59l103 52q20 7 34.5 1t20.5 -19q4 -7 4 -16q0 -5 -2 -12q-4 -15 -22 -26l-96 -49q-48 -25 -95 -55q-18 -12 -36 -26l-37 -30q-19 -14 -38 -26.5t-40 -20.5q-6 -1 -12 -1q-11 0 -19 4q-12 6 -22 23q-9 21 -4 43t14.5 44t21 45t16.5 46q-23 1 -51 -17 t-55.5 -42.5t-50 -49.5t-32.5 -38q-12 -14 -26 -17t-25 3t-17.5 18.5t-3.5 30.5q7 20 12 41t7 43q1 4 -1 9l-4 11q-7 0 -13.5 -3.5t-13.5 -6.5q-11 -5 -29.5 -18.5t-35 -30.5t-26 -35.5t-3.5 -33.5z" />
<glyph d="M-388 1277q-20 -4 -33.5 5t-17.5 22q-2 6 -2 11q0 9 5 17q6 15 26 22l88 20q42 9 85 17l5 31q3 14 4.5 27.5t2 28t1.5 32.5q4 21 17 30q11 8 23 8h4q14 -2 25 -14t10 -33q0 -15 -0.5 -27t-1.5 -22.5t-3 -21.5l-3 -26q52 7 105 10h35q36 0 72 -3q18 -5 26 -17q8 -10 8 -22 q0 -14 -11 -26q-9 -11 -27 -14q-34 3 -67 3q-24 0 -46 -1q-56 -4 -112 -12q-6 -24 -8 -36l-5 -21q-2 -9 -5 -21t-10 -36q-7 -20 -22 -26q-8 -5 -17 -5q-5 0 -11 2q-13 4 -22 17.5t-5 33.5q6 19 7.5 26.5t2.5 11.5l3 12q1 7 6 26l-65 -14q-33 -7 -67 -15z" />
<glyph unicode="&#xf716;" d="M-388 1277q-20 -4 -33.5 5t-17.5 22q-2 6 -2 11q0 9 5 17q6 15 26 22l88 20q42 9 85 17l5 31q3 14 4.5 27.5t2 28t1.5 32.5q4 21 17 30q11 8 23 8h4q14 -2 25 -14t10 -33q0 -15 -0.5 -27t-1.5 -22.5t-3 -21.5l-3 -26q52 7 105 10h35q36 0 72 -3q18 -5 26 -17q8 -10 8 -22 q0 -14 -11 -26q-9 -11 -27 -14q-34 3 -67 3q-24 0 -46 -1q-56 -4 -112 -12q-6 -24 -8 -36l-5 -21q-2 -9 -5 -21t-10 -36q-7 -20 -22 -26q-8 -5 -17 -5q-5 0 -11 2q-13 4 -22 17.5t-5 33.5q6 19 7.5 26.5t2.5 11.5l3 12q1 7 6 26l-65 -14q-33 -7 -67 -15z" />
<glyph unicode="&#x17e;" d="M-388 1277q-20 -4 -33.5 5t-17.5 22q-2 6 -2 11q0 9 5 17q6 15 26 22l88 20q42 9 85 17l5 31q3 14 4.5 27.5t2 28t1.5 32.5q4 21 17 30q11 8 23 8h4q14 -2 25 -14t10 -33q0 -15 -0.5 -27t-1.5 -22.5t-3 -21.5l-3 -26q52 7 105 10h35q36 0 72 -3q18 -5 26 -17q8 -10 8 -22 q0 -14 -11 -26q-9 -11 -27 -14q-34 3 -67 3q-24 0 -46 -1q-56 -4 -112 -12q-6 -24 -8 -36l-5 -21q-2 -9 -5 -21t-10 -36q-7 -20 -22 -26q-8 -5 -17 -5q-5 0 -11 2q-13 4 -22 17.5t-5 33.5q6 19 7.5 26.5t2.5 11.5l3 12q1 7 6 26l-65 -14q-33 -7 -67 -15z" />
<glyph d="M-200 1110q-14 -8 -26 -8h-4q-15 2 -24 11q-11 11 -11 28q0 12 8 26q81 77 170 132t194 93q11 4 20 4q8 0 15 -3q14 -6 20 -19q4 -7 4 -16q0 -5 -2 -12q-4 -15 -22 -26q-99 -35 -182 -86t-160 -124z" />
<glyph unicode="&#xf717;" d="M-200 1110q-14 -8 -26 -8h-4q-15 2 -24 11q-11 11 -11 28q0 12 8 26q81 77 170 132t194 93q11 4 20 4q8 0 15 -3q14 -6 20 -19q4 -7 4 -16q0 -5 -2 -12q-4 -15 -22 -26q-99 -35 -182 -86t-160 -124z" />
<glyph unicode="&#x178;" d="M-200 1110q-14 -8 -26 -8h-4q-15 2 -24 11q-11 11 -11 28q0 12 8 26q81 77 170 132t194 93q11 4 20 4q8 0 15 -3q14 -6 20 -19q4 -7 4 -16q0 -5 -2 -12q-4 -15 -22 -26q-99 -35 -182 -86t-160 -124z" />
<glyph unicode="&#xe00;" horiz-adv-x="925" />
<glyph unicode="&#xa1;" horiz-adv-x="702" d="M190 15q-6 -17 -18 -25q-11 -6 -21 -6h-5q-12 2 -22.5 12t-12.5 28q8 140 40.5 270t87.5 258l41 90q20 44 46 84q8 13 21 27.5t28.5 25t32.5 14.5q6 1 12 1l22 -4q17 -7 38.5 -15t30.5 -26q35 -65 45 -129q6 -43 6 -90q0 -24 -2 -50q-5 -71 -12.5 -140t-21.5 -139 q-5 -29 -15.5 -58t-12.5 -59q-6 -17 -18.5 -24.5t-25 -6t-23 11.5t-12.5 28q2 35 13.5 69t18.5 68q14 64 21 129t9 130q1 22 2 51t-1.5 58.5t-10.5 56.5t-25 46q-5 5 -12 6.5t-13 4.5q-14 -5 -32 -33t-34 -61.5t-28.5 -63t-15.5 -37.5q-52 -121 -83 -245t-38 -257z" />
<glyph unicode="&#xe01;" horiz-adv-x="702" d="M190 15q-6 -17 -18 -25q-11 -6 -21 -6h-5q-12 2 -22.5 12t-12.5 28q8 140 40.5 270t87.5 258l41 90q20 44 46 84q8 13 21 27.5t28.5 25t32.5 14.5q6 1 12 1l22 -4q17 -7 38.5 -15t30.5 -26q35 -65 45 -129q6 -43 6 -90q0 -24 -2 -50q-5 -71 -12.5 -140t-21.5 -139 q-5 -29 -15.5 -58t-12.5 -59q-6 -17 -18.5 -24.5t-25 -6t-23 11.5t-12.5 28q2 35 13.5 69t18.5 68q14 64 21 129t9 130q1 22 2 51t-1.5 58.5t-10.5 56.5t-25 46q-5 5 -12 6.5t-13 4.5q-14 -5 -32 -33t-34 -61.5t-28.5 -63t-15.5 -37.5q-52 -121 -83 -245t-38 -257z" />
<glyph unicode="&#xa2;" horiz-adv-x="610" d="M139 683v7q0 16 7 26q10 13 24 16t27.5 -4.5t19.5 -27.5q22 -89 25.5 -179.5t5.5 -181.5q2 -43 2 -89q0 -9 -0.5 -17t-0.5 -9q0 -56 14 -108q5 12 8 22l13 42q6 16 10 31t7.5 32t9.5 43q15 70 27 133t27.5 122.5t39 118t61.5 118.5q14 12 28 12q1 1 2 1q14 0 23 -7 q10 -8 14 -22q2 -6 2 -12q0 -9 -4 -19q-31 -49 -51 -96t-35 -104q-11 -43 -20 -87l-17 -86l-18 -88q-9 -43 -21 -86q-5 -18 -11 -42t-14.5 -48t-20 -45.5t-26.5 -35.5q-20 -18 -36 -19h-3q-14 0 -26 9q-13 10 -22.5 28t-16 38t-10 39t-4.5 31l-5 60q-1 20 -2 36t-2 37l-1 64 q-2 44 -2.5 87.5t-3 87t-8 86.5t-16.5 86z" />
<glyph unicode="&#xe02;" horiz-adv-x="610" d="M139 683v7q0 16 7 26q10 13 24 16t27.5 -4.5t19.5 -27.5q22 -89 25.5 -179.5t5.5 -181.5q2 -43 2 -89q0 -9 -0.5 -17t-0.5 -9q0 -56 14 -108q5 12 8 22l13 42q6 16 10 31t7.5 32t9.5 43q15 70 27 133t27.5 122.5t39 118t61.5 118.5q14 12 28 12q1 1 2 1q14 0 23 -7 q10 -8 14 -22q2 -6 2 -12q0 -9 -4 -19q-31 -49 -51 -96t-35 -104q-11 -43 -20 -87l-17 -86l-18 -88q-9 -43 -21 -86q-5 -18 -11 -42t-14.5 -48t-20 -45.5t-26.5 -35.5q-20 -18 -36 -19h-3q-14 0 -26 9q-13 10 -22.5 28t-16 38t-10 39t-4.5 31l-5 60q-1 20 -2 36t-2 37l-1 64 q-2 44 -2.5 87.5t-3 87t-8 86.5t-16.5 86z" />
<glyph unicode="&#xa3;" horiz-adv-x="760" d="M171 523q-7 -20 -21.5 -26.5t-28 -2.5t-22.5 18q-6 9 -6 21q0 6 1 12q4 16 11.5 42.5t18.5 55.5t25.5 55t32.5 40t40 11.5t48 -30.5q14 -14 21 -34.5t17 -38.5q16 14 28 32l23 36q11 18 23.5 35t29.5 30q12 5 21 5h5q10 -2 23 -11q9 -6 12 -21t2 -34t-4.5 -40.5t-7.5 -40 t-7.5 -33t-4.5 -19.5q-9 -63 -16 -127t-16 -128q-7 -55 -19 -110.5t-12 -111.5q19 15 35 45t29 64t22 67l15 55q20 67 34 134.5t32 134.5q8 32 23 60.5t24 59.5q5 20 30 30h1h5q42 0 42 -42v-5q-5 -20 -15.5 -37.5t-16.5 -37.5q-17 -55 -30 -110l-27 -112q-9 -38 -15 -58 l-10 -38l-11 -38q-6 -20 -18 -57q-8 -24 -23 -61t-37 -71.5t-51 -58.5q-26 -20 -55 -20h-8q-22 1 -34 17q-17 22 -21 53q-1 16 -1 32.5t1 33.5q4 35 11.5 68.5t11.5 58.5q13 81 21.5 160.5t19.5 159.5v2q-20 -23 -44 -34.5t-50 3.5q-14 8 -21 13.5t-15 18.5l-14 28l-13 27 q-14 -32 -24 -65z" />
<glyph unicode="&#xe03;" horiz-adv-x="760" d="M171 523q-7 -20 -21.5 -26.5t-28 -2.5t-22.5 18q-6 9 -6 21q0 6 1 12q4 16 11.5 42.5t18.5 55.5t25.5 55t32.5 40t40 11.5t48 -30.5q14 -14 21 -34.5t17 -38.5q16 14 28 32l23 36q11 18 23.5 35t29.5 30q12 5 21 5h5q10 -2 23 -11q9 -6 12 -21t2 -34t-4.5 -40.5t-7.5 -40 t-7.5 -33t-4.5 -19.5q-9 -63 -16 -127t-16 -128q-7 -55 -19 -110.5t-12 -111.5q19 15 35 45t29 64t22 67l15 55q20 67 34 134.5t32 134.5q8 32 23 60.5t24 59.5q5 20 30 30h1h5q42 0 42 -42v-5q-5 -20 -15.5 -37.5t-16.5 -37.5q-17 -55 -30 -110l-27 -112q-9 -38 -15 -58 l-10 -38l-11 -38q-6 -20 -18 -57q-8 -24 -23 -61t-37 -71.5t-51 -58.5q-26 -20 -55 -20h-8q-22 1 -34 17q-17 22 -21 53q-1 16 -1 32.5t1 33.5q4 35 11.5 68.5t11.5 58.5q13 81 21.5 160.5t19.5 159.5v2q-20 -23 -44 -34.5t-50 3.5q-14 8 -21 13.5t-15 18.5l-14 28l-13 27 q-14 -32 -24 -65z" />
<glyph unicode="&#xa4;" horiz-adv-x="740" d="M446 541q15 -11 18.5 -24.5t-1.5 -25.5t-17.5 -19.5t-30.5 -5.5q-4 2 -7 3q-9 -8 -17.5 -23.5t-16 -32.5t-13.5 -33.5t-10 -25.5q-12 -32 -24 -79.5t-26.5 -97t-33 -94.5t-42.5 -72q-14 -8 -24.5 -8.5t-24.5 6.5q-14 12 -19 29.5t-6 37.5v12q0 13 1 26q2 19 2 34 q1 23 0 46t0 46q1 41 5 96t14 110.5t28 106t48 83.5q18 19 34 40t39 33q25 13 48.5 27.5t51.5 19.5q19 4 40 4h5q24 -1 45.5 -8t38.5 -21.5t25 -39.5q10 -29 15.5 -48.5t8 -37.5t3.5 -38.5t3 -53.5v-21q0 -40 -6 -83q-7 -54 -15 -104q-2 -12 -6 -38t-11 -59l-14 -70 q-7 -37 -15.5 -69.5t-18 -57.5t-18.5 -34q-14 -8 -26 -8q-1 0 -2 1q-13 0 -22.5 7t-13 19t1.5 26l11 36q8 30 15 60t15 60l-4 -16q9 29 17.5 69.5t15.5 87t11 95.5t4 94t-5 83t-16 63q-10 21 -29 24.5t-40 -2t-40.5 -16.5t-30.5 -19q-36 -26 -59 -63t-36.5 -79t-20 -86.5 t-10.5 -85.5q-4 -42 -6 -86q10 40 22.5 82t28.5 82t37.5 75t50.5 61q12 11 23 13t25 -3q7 -2 13.5 -5t13.5 -5z" />
<glyph unicode="&#xe04;" horiz-adv-x="740" d="M446 541q15 -11 18.5 -24.5t-1.5 -25.5t-17.5 -19.5t-30.5 -5.5q-4 2 -7 3q-9 -8 -17.5 -23.5t-16 -32.5t-13.5 -33.5t-10 -25.5q-12 -32 -24 -79.5t-26.5 -97t-33 -94.5t-42.5 -72q-14 -8 -24.5 -8.5t-24.5 6.5q-14 12 -19 29.5t-6 37.5v12q0 13 1 26q2 19 2 34 q1 23 0 46t0 46q1 41 5 96t14 110.5t28 106t48 83.5q18 19 34 40t39 33q25 13 48.5 27.5t51.5 19.5q19 4 40 4h5q24 -1 45.5 -8t38.5 -21.5t25 -39.5q10 -29 15.5 -48.5t8 -37.5t3.5 -38.5t3 -53.5v-21q0 -40 -6 -83q-7 -54 -15 -104q-2 -12 -6 -38t-11 -59l-14 -70 q-7 -37 -15.5 -69.5t-18 -57.5t-18.5 -34q-14 -8 -26 -8q-1 0 -2 1q-13 0 -22.5 7t-13 19t1.5 26l11 36q8 30 15 60t15 60l-4 -16q9 29 17.5 69.5t15.5 87t11 95.5t4 94t-5 83t-16 63q-10 21 -29 24.5t-40 -2t-40.5 -16.5t-30.5 -19q-36 -26 -59 -63t-36.5 -79t-20 -86.5 t-10.5 -85.5q-4 -42 -6 -86q10 40 22.5 82t28.5 82t37.5 75t50.5 61q12 11 23 13t25 -3q7 -2 13.5 -5t13.5 -5z" />
<glyph unicode="&#xa5;" horiz-adv-x="771" d="M467 439q0 -15 -6.5 -25.5t-16.5 -15t-21 -3t-21 9.5q-11 -16 -19 -33l-16 -36q-29 -63 -55 -126.5t-58 -125.5l-16 -34q-9 -16 -23 -28q-5 -4 -17 -9.5t-16 -7.5q-19 -3 -31 3t-22 23q-10 63 -10 139t9 153t26.5 150t41.5 130q8 19 17 37.5t22 35.5l23 32q10 16 26 28 q3 2 10 8t16 12.5t18.5 12t17.5 7.5q9 2 17 2q11 0 20 -4q16 -5 27.5 -18t19.5 -30.5t14 -37.5q17 19 36 34.5t43 28.5q28 15 52.5 16.5t42.5 -9t29.5 -31.5t13.5 -51q1 -6 1 -12q0 -15 -4 -33q-5 -25 -12 -50.5t-15 -50.5t-12 -46q-10 -51 -17 -104l-12 -104 q-7 -53 -15.5 -105t-23.5 -103q2 -12 -3 -26q-4 -8 -8 -17t-9 -17q-12 -14 -26 -17q-5 -1 -9 -1q-9 0 -16 4q-11 6 -17.5 18.5t-3.5 30.5q19 54 30.5 110t19.5 113t14.5 114t16.5 113q4 23 12 47.5t15 49t11.5 49t1.5 47.5q-48 -15 -75.5 -50t-47.5 -80q-18 -21 -39 -18 t-34 27l-8 65q-4 34 -21 62q-14 -8 -27.5 -24.5t-25 -35t-20.5 -36t-13 -27.5q-18 -41 -31.5 -91.5t-22.5 -106t-13 -112.5q-3 -46 -3 -89v-21q6 14 10.5 26.5t8.5 21.5l53 120q26 60 56 119q7 14 17 27.5t23 21.5q15 9 31.5 8.5t30.5 -7.5t24.5 -19.5t13.5 -27.5z" />
<glyph unicode="&#xe05;" horiz-adv-x="771" d="M467 439q0 -15 -6.5 -25.5t-16.5 -15t-21 -3t-21 9.5q-11 -16 -19 -33l-16 -36q-29 -63 -55 -126.5t-58 -125.5l-16 -34q-9 -16 -23 -28q-5 -4 -17 -9.5t-16 -7.5q-19 -3 -31 3t-22 23q-10 63 -10 139t9 153t26.5 150t41.5 130q8 19 17 37.5t22 35.5l23 32q10 16 26 28 q3 2 10 8t16 12.5t18.5 12t17.5 7.5q9 2 17 2q11 0 20 -4q16 -5 27.5 -18t19.5 -30.5t14 -37.5q17 19 36 34.5t43 28.5q28 15 52.5 16.5t42.5 -9t29.5 -31.5t13.5 -51q1 -6 1 -12q0 -15 -4 -33q-5 -25 -12 -50.5t-15 -50.5t-12 -46q-10 -51 -17 -104l-12 -104 q-7 -53 -15.5 -105t-23.5 -103q2 -12 -3 -26q-4 -8 -8 -17t-9 -17q-12 -14 -26 -17q-5 -1 -9 -1q-9 0 -16 4q-11 6 -17.5 18.5t-3.5 30.5q19 54 30.5 110t19.5 113t14.5 114t16.5 113q4 23 12 47.5t15 49t11.5 49t1.5 47.5q-48 -15 -75.5 -50t-47.5 -80q-18 -21 -39 -18 t-34 27l-8 65q-4 34 -21 62q-14 -8 -27.5 -24.5t-25 -35t-20.5 -36t-13 -27.5q-18 -41 -31.5 -91.5t-22.5 -106t-13 -112.5q-3 -46 -3 -89v-21q6 14 10.5 26.5t8.5 21.5l53 120q26 60 56 119q7 14 17 27.5t23 21.5q15 9 31.5 8.5t30.5 -7.5t24.5 -19.5t13.5 -27.5z" />
<glyph unicode="&#xa6;" horiz-adv-x="840" d="M176 448q-6 -17 -18.5 -24.5t-25 -6t-23 11.5t-12.5 28q2 20 3.5 39.5t7.5 37.5q7 22 20 55.5t31.5 66.5t42 58.5t51.5 30.5q12 3 25 -1l23 -9q11 -7 15 -13t7 -18q2 -8 3 -14.5t2 -11.5q21 26 48 41q17 10 38 10q11 0 24 -3q23 -5 36.5 -21t19 -38.5t5 -49t-3.5 -52.5 t-7.5 -48.5t-6.5 -36.5l-9 -58l-10 -53q33 -24 57 -61.5t36 -74.5l37 202q17 100 38 201q6 27 9.5 54t11.5 53q8 13 19 19q10 6 19 6h4q11 -2 20.5 -10.5t14.5 -23.5q2 -6 2 -10q0 -9 -2.5 -16t-6.5 -12q-4 -20 -6.5 -41t-7.5 -41q-19 -88 -34 -175.5t-32 -176.5 q-3 -16 -8 -51t-12.5 -73.5t-16 -71.5t-17.5 -44q-15 -18 -34 -18q-11 0 -23 6q-23 18 -29.5 50t-9 67.5t-8 70t-25.5 58.5q-4 5 -8 8l-7 8q-16 -74 -35.5 -141t-59.5 -130q-10 -12 -20 -16q-6 -3 -16 -3q-4 0 -10 1q-27 6 -43 14t-25.5 22t-16.5 35t-16 53q-11 37 -11 80v7 q1 47 16.5 89.5t46 74t78.5 40.5q14 2 28 1.5t28 -2.5q7 49 15 93l16 78q3 17 3 32q0 24 -7 47q-18 -8 -31 -29.5t-25 -44t-25.5 -41.5t-32.5 -23q-20 -4 -32 2.5t-21 23.5q-4 11 -4 27.5t2 33t4.5 30.5t2.5 21q-35 -46 -51.5 -93.5t-24.5 -105.5zM300 75q28 48 45.5 111 t28.5 129q-10 3 -20 3q-20 0 -38 -11q-26 -16 -40 -67q-7 -25 -7 -49q0 -18 5 -36q9 -40 26 -80z" />
<glyph unicode="&#xe06;" horiz-adv-x="840" d="M176 448q-6 -17 -18.5 -24.5t-25 -6t-23 11.5t-12.5 28q2 20 3.5 39.5t7.5 37.5q7 22 20 55.5t31.5 66.5t42 58.5t51.5 30.5q12 3 25 -1l23 -9q11 -7 15 -13t7 -18q2 -8 3 -14.5t2 -11.5q21 26 48 41q17 10 38 10q11 0 24 -3q23 -5 36.5 -21t19 -38.5t5 -49t-3.5 -52.5 t-7.5 -48.5t-6.5 -36.5l-9 -58l-10 -53q33 -24 57 -61.5t36 -74.5l37 202q17 100 38 201q6 27 9.5 54t11.5 53q8 13 19 19q10 6 19 6h4q11 -2 20.5 -10.5t14.5 -23.5q2 -6 2 -10q0 -9 -2.5 -16t-6.5 -12q-4 -20 -6.5 -41t-7.5 -41q-19 -88 -34 -175.5t-32 -176.5 q-3 -16 -8 -51t-12.5 -73.5t-16 -71.5t-17.5 -44q-15 -18 -34 -18q-11 0 -23 6q-23 18 -29.5 50t-9 67.5t-8 70t-25.5 58.5q-4 5 -8 8l-7 8q-16 -74 -35.5 -141t-59.5 -130q-10 -12 -20 -16q-6 -3 -16 -3q-4 0 -10 1q-27 6 -43 14t-25.5 22t-16.5 35t-16 53q-11 37 -11 80v7 q1 47 16.5 89.5t46 74t78.5 40.5q14 2 28 1.5t28 -2.5q7 49 15 93l16 78q3 17 3 32q0 24 -7 47q-18 -8 -31 -29.5t-25 -44t-25.5 -41.5t-32.5 -23q-20 -4 -32 2.5t-21 23.5q-4 11 -4 27.5t2 33t4.5 30.5t2.5 21q-35 -46 -51.5 -93.5t-24.5 -105.5zM300 75q28 48 45.5 111 t28.5 129q-10 3 -20 3q-20 0 -38 -11q-26 -16 -40 -67q-7 -25 -7 -49q0 -18 5 -36q9 -40 26 -80z" />
<glyph unicode="&#xa7;" horiz-adv-x="600" d="M311 625q-18 -11 -33.5 -7t-24 15.5t-7 27t17.5 29.5q40 32 58 49t30.5 24.5t29.5 8.5h14q16 0 41 -1q16 -5 23 -12t12 -23l8 -29q5 -15 8 -30q2 -11 2 -26q0 -13 -2 -30q-3 -36 -12 -79t-22 -90l-24 -92l-24 -81q-12 -37 -18 -60q-4 -14 -9.5 -44.5t-14.5 -62.5t-22 -58 t-32 -31q-7 -1 -13 -1q-7 0 -13 2q-9 3 -21 14q-18 20 -34 58.5t-29 81.5t-23 83.5t-17 64.5q-7 28 -15.5 54.5t-18.5 52.5q-2 7 -12 28q-20 10 -23 36q0 2 0.5 3t0.5 3q7 37 45 38q18 -2 30 -15t21 -30.5t14.5 -36t10.5 -32.5q23 -66 40 -133.5t41 -133.5q5 21 9 41.5 t9 40.5l32 113q17 57 31 113l13 52q8 29 13 58.5t6 58.5t-6 55q-14 0 -25.5 -7t-22.5 -17.5t-21 -22t-21 -20.5zM106 476v1l-7 15z" />
<glyph unicode="&#xe07;" horiz-adv-x="600" d="M311 625q-18 -11 -33.5 -7t-24 15.5t-7 27t17.5 29.5q40 32 58 49t30.5 24.5t29.5 8.5h14q16 0 41 -1q16 -5 23 -12t12 -23l8 -29q5 -15 8 -30q2 -11 2 -26q0 -13 -2 -30q-3 -36 -12 -79t-22 -90l-24 -92l-24 -81q-12 -37 -18 -60q-4 -14 -9.5 -44.5t-14.5 -62.5t-22 -58 t-32 -31q-7 -1 -13 -1q-7 0 -13 2q-9 3 -21 14q-18 20 -34 58.5t-29 81.5t-23 83.5t-17 64.5q-7 28 -15.5 54.5t-18.5 52.5q-2 7 -12 28q-20 10 -23 36q0 2 0.5 3t0.5 3q7 37 45 38q18 -2 30 -15t21 -30.5t14.5 -36t10.5 -32.5q23 -66 40 -133.5t41 -133.5q5 21 9 41.5 t9 40.5l32 113q17 57 31 113l13 52q8 29 13 58.5t6 58.5t-6 55q-14 0 -25.5 -7t-22.5 -17.5t-21 -22t-21 -20.5zM106 476v1l-7 15z" />
<glyph unicode="&#xa8;" horiz-adv-x="674" d="M275 473q-2 5 -2 10.5t-1 10.5q-5 11 -2 27q1 2 1 3.5t1 3.5q8 13 19.5 19.5t22.5 5t20.5 -10t14.5 -24.5q11 -74 17.5 -147.5t12.5 -148.5l48 137q24 68 39 140q3 14 8 42t5.5 57.5t-6.5 55.5t-27 36t-42.5 11t-45 -5t-43.5 -16t-37 -22q-31 -22 -55 -52t-38.5 -65.5 t-18.5 -73.5q-2 -14 -2 -27q0 -25 5 -49q3 -16 9.5 -30.5t11.5 -30.5q6 -20 -1.5 -34t-20.5 -19t-28 0.5t-25 23.5l-12 35l-12 35q-9 31 -9 65v13q2 41 13.5 81t31.5 76t45 64q22 26 53.5 48.5t66.5 38t72 21.5q19 4 36.5 4t34.5 -4q34 -6 62.5 -27t47.5 -61q10 -21 13 -48 q1 -16 1 -32q0 -12 -1 -26q-2 -29 -6.5 -56.5t-8.5 -47.5q-11 -56 -28.5 -111.5t-37.5 -109.5q-3 -8 -9 -28l-14 -46l-18 -55q-10 -30 -20 -56t-19.5 -45.5t-16.5 -26.5q-14 -8 -26 -8q-6 0 -11 2q-17 5 -28 25q-9 38 -9 78t-3 78l-13 148q-7 73 -15 147v1z" />
<glyph unicode="&#xe08;" horiz-adv-x="674" d="M275 473q-2 5 -2 10.5t-1 10.5q-5 11 -2 27q1 2 1 3.5t1 3.5q8 13 19.5 19.5t22.5 5t20.5 -10t14.5 -24.5q11 -74 17.5 -147.5t12.5 -148.5l48 137q24 68 39 140q3 14 8 42t5.5 57.5t-6.5 55.5t-27 36t-42.5 11t-45 -5t-43.5 -16t-37 -22q-31 -22 -55 -52t-38.5 -65.5 t-18.5 -73.5q-2 -14 -2 -27q0 -25 5 -49q3 -16 9.5 -30.5t11.5 -30.5q6 -20 -1.5 -34t-20.5 -19t-28 0.5t-25 23.5l-12 35l-12 35q-9 31 -9 65v13q2 41 13.5 81t31.5 76t45 64q22 26 53.5 48.5t66.5 38t72 21.5q19 4 36.5 4t34.5 -4q34 -6 62.5 -27t47.5 -61q10 -21 13 -48 q1 -16 1 -32q0 -12 -1 -26q-2 -29 -6.5 -56.5t-8.5 -47.5q-11 -56 -28.5 -111.5t-37.5 -109.5q-3 -8 -9 -28l-14 -46l-18 -55q-10 -30 -20 -56t-19.5 -45.5t-16.5 -26.5q-14 -8 -26 -8q-6 0 -11 2q-17 5 -28 25q-9 38 -9 78t-3 78l-13 148q-7 73 -15 147v1z" />
<glyph unicode="&#xa9;" horiz-adv-x="748" d="M231 391q4 23 17.5 33t27.5 8.5t25 -14.5t10 -36q-7 -63 -18 -124.5t-16 -125.5q13 18 29.5 37.5t35 39t39 37.5t42.5 32q11 56 25 109.5t25 107.5q3 16 7 34t6 36t0 36t-9 34q-6 14 -21 17.5t-32.5 1.5t-34 -7t-24.5 -8q-35 -14 -68 -33.5t-61 -46t-47.5 -60 t-27.5 -74.5q-8 -22 -22.5 -29t-28.5 -2.5t-23 18.5q-6 11 -6 25q0 6 1 13q10 51 32 92.5t60 74.5q22 19 51 41t62 40t68 30.5t69 13.5q4 1 7 1q30 0 57 -11q31 -13 56 -44q22 -28 24 -75v-14q0 -41 -8 -86q-9 -53 -22.5 -106.5t-22.5 -93.5q5 2 11 2h12q2 0 9 -0.5t15 -1.5 t15.5 -2.5t12.5 -3.5q33 -17 42 -51q6 -22 6 -44q0 -15 -2 -30q-6 -39 -23.5 -74.5t-38.5 -54.5q-28 -26 -54.5 -34t-48 0t-36 32.5t-19.5 64.5q-3 22 -3 48q-26 -26 -50 -56l-42 -54q-2 -2 1 2t8 10l8 9q3 4 1 1l-17 -22l-15 -17t-15 -15.5t-19 -16.5q-15 -10 -27 -10 q-3 0 -5 1q-14 2 -28 16q-4 5 -10 14.5t-8 16.5q-6 19 -6 48q0 12 1 26q4 46 12 96t17 98t12 80zM554 226q-7 1 -14 1q-21 0 -40 -7q-2 -15 -2.5 -29.5t-1.5 -29.5q0 -11 0.5 -26.5t2.5 -26.5q0 -1 2 -5q5 1 10 6t9 10q12 14 20 30.5t13 33.5q6 16 6 31q0 12 -5 12z" />
<glyph unicode="&#xe09;" horiz-adv-x="748" d="M231 391q4 23 17.5 33t27.5 8.5t25 -14.5t10 -36q-7 -63 -18 -124.5t-16 -125.5q13 18 29.5 37.5t35 39t39 37.5t42.5 32q11 56 25 109.5t25 107.5q3 16 7 34t6 36t0 36t-9 34q-6 14 -21 17.5t-32.5 1.5t-34 -7t-24.5 -8q-35 -14 -68 -33.5t-61 -46t-47.5 -60 t-27.5 -74.5q-8 -22 -22.5 -29t-28.5 -2.5t-23 18.5q-6 11 -6 25q0 6 1 13q10 51 32 92.5t60 74.5q22 19 51 41t62 40t68 30.5t69 13.5q4 1 7 1q30 0 57 -11q31 -13 56 -44q22 -28 24 -75v-14q0 -41 -8 -86q-9 -53 -22.5 -106.5t-22.5 -93.5q5 2 11 2h12q2 0 9 -0.5t15 -1.5 t15.5 -2.5t12.5 -3.5q33 -17 42 -51q6 -22 6 -44q0 -15 -2 -30q-6 -39 -23.5 -74.5t-38.5 -54.5q-28 -26 -54.5 -34t-48 0t-36 32.5t-19.5 64.5q-3 22 -3 48q-26 -26 -50 -56l-42 -54q-2 -2 1 2t8 10l8 9q3 4 1 1l-17 -22l-15 -17t-15 -15.5t-19 -16.5q-15 -10 -27 -10 q-3 0 -5 1q-14 2 -28 16q-4 5 -10 14.5t-8 16.5q-6 19 -6 48q0 12 1 26q4 46 12 96t17 98t12 80zM554 226q-7 1 -14 1q-21 0 -40 -7q-2 -15 -2.5 -29.5t-1.5 -29.5q0 -11 0.5 -26.5t2.5 -26.5q0 -1 2 -5q5 1 10 6t9 10q12 14 20 30.5t13 33.5q6 16 6 31q0 12 -5 12z" />
<glyph unicode="&#xaa;" horiz-adv-x="689" d="M152 591q-13 -15 -28.5 -16.5t-27 6.5t-15.5 23q-1 4 -1 8q0 12 8 24q29 42 67 69t84 48q8 4 16.5 9t18.5 6q15 2 29 2h29q15 1 24.5 -3.5t18.5 -16.5q6 -17 14 -32.5t10 -33.5v-16q50 47 102.5 90.5t106.5 81.5q10 4 19 4q6 0 12 -2q14 -4 21 -14q8 -8 8 -21 q0 -15 -13 -29q-23 -16 -60 -44t-74.5 -59.5t-70 -62.5t-47.5 -55q22 -8 43 -18t38 -27q24 -23 32 -54q6 -26 6 -54v-14q-2 -36 -12.5 -73.5t-24 -72t-28.5 -64.5l-25 -49l-23 -41q-15 -27 -34.5 -51.5t-42.5 -40.5q-16 -10 -32 -10q-8 0 -15 2q-32 10 -44 38.5t-13 62.5 q-1 9 -1 17q0 26 3 51q5 34 7 54q3 26 12 65l20 86l23 94q11 49 18.5 93.5t8.5 81.5t-7 60q-23 -1 -46 -10t-44.5 -23.5t-39.5 -32.5t-30 -36zM425 459q-11 11 -24 16l-27 10q-2 -8 -3 -14t-3 -13l-12 -58l-16 -68q-8 -35 -15 -69t-11 -60q-5 -29 -8 -59v-16q0 -22 5 -43 q21 26 39.5 58t34 65t28 66t21.5 62t11 63v6q0 30 -20 54z" />
<glyph unicode="&#xe0a;" horiz-adv-x="689" d="M152 591q-13 -15 -28.5 -16.5t-27 6.5t-15.5 23q-1 4 -1 8q0 12 8 24q29 42 67 69t84 48q8 4 16.5 9t18.5 6q15 2 29 2h29q15 1 24.5 -3.5t18.5 -16.5q6 -17 14 -32.5t10 -33.5v-16q50 47 102.5 90.5t106.5 81.5q10 4 19 4q6 0 12 -2q14 -4 21 -14q8 -8 8 -21 q0 -15 -13 -29q-23 -16 -60 -44t-74.5 -59.5t-70 -62.5t-47.5 -55q22 -8 43 -18t38 -27q24 -23 32 -54q6 -26 6 -54v-14q-2 -36 -12.5 -73.5t-24 -72t-28.5 -64.5l-25 -49l-23 -41q-15 -27 -34.5 -51.5t-42.5 -40.5q-16 -10 -32 -10q-8 0 -15 2q-32 10 -44 38.5t-13 62.5 q-1 9 -1 17q0 26 3 51q5 34 7 54q3 26 12 65l20 86l23 94q11 49 18.5 93.5t8.5 81.5t-7 60q-23 -1 -46 -10t-44.5 -23.5t-39.5 -32.5t-30 -36zM425 459q-11 11 -24 16l-27 10q-2 -8 -3 -14t-3 -13l-12 -58l-16 -68q-8 -35 -15 -69t-11 -60q-5 -29 -8 -59v-16q0 -22 5 -43 q21 26 39.5 58t34 65t28 66t21.5 62t11 63v6q0 30 -20 54z" />
<glyph unicode="&#xab;" horiz-adv-x="814" d="M150 526q-1 -22 -12 -33t-24.5 -12t-25.5 9.5t-14 31.5q-1 3 -2 7q-2 8 -2 12q-2 12 -2 23t2 22q4 21 12 41q9 21 24 44t33 42.5t39 34.5t43 20q17 4 31 4q24 0 40 -12q26 -20 43 -63q2 -4 4.5 -12.5t5.5 -16.5q29 31 44 50t28 29t29.5 13t49.5 2q14 -4 21.5 -11.5 t11.5 -23.5q1 -26 0 -51l1 1l48 39q26 22 55 42.5t58.5 36.5t56.5 21h3q18 0 29 -10q13 -14 13 -31q0 -12 -7 -23q-9 -14 -29 -18q-17 -3 -46.5 -21.5t-60.5 -42t-56 -46t-32 -32.5q0 -1 9.5 -13t29.5 -41q14 -17 24 -36.5t13 -41.5q11 -58 11 -109q0 -47 -11 -91 q-10 -47 -32 -90.5t-57 -86.5l-18 -24q-10 -13 -21.5 -26t-24.5 -23.5t-26 -15.5l-13 -5q-7 -3 -15.5 -5t-16.5 -3h-6q-5 0 -9 1q-18 6 -31.5 19.5t-23 31t-13.5 37t-2 37.5q3 28 6.5 51.5t8 46.5t10.5 46.5t14 50.5q8 34 18 66l18 66l17 64q8 29 14 55.5t10 52.5t6 56 q-12 -14 -25 -26l-24 -26l-27 -26q-13 -12 -27 -16t-28.5 3.5t-29.5 31.5q-12 21 -18.5 44.5t-20.5 43.5q-18 -3 -36 -16t-32.5 -32t-24.5 -40t-13 -40q1 -9 3 -18.5t2 -18.5zM563 442q-8 29 -23 48l-31 40q-14 -63 -33 -126l-35 -125q-1 -3 -5 -18l-10 -37 q-5 -21 -10 -45.5t-8 -46.5q-1 -13 -1 -24q0 -9 1 -16q2 -18 10 -25q12 3 23 12t20.5 19.5t18.5 21.5l15 21q48 66 69 142q11 37 11 75q0 41 -12 84z" />
<glyph unicode="&#xe0b;" horiz-adv-x="814" d="M150 526q-1 -22 -12 -33t-24.5 -12t-25.5 9.5t-14 31.5q-1 3 -2 7q-2 8 -2 12q-2 12 -2 23t2 22q4 21 12 41q9 21 24 44t33 42.5t39 34.5t43 20q17 4 31 4q24 0 40 -12q26 -20 43 -63q2 -4 4.5 -12.5t5.5 -16.5q29 31 44 50t28 29t29.5 13t49.5 2q14 -4 21.5 -11.5 t11.5 -23.5q1 -26 0 -51l1 1l48 39q26 22 55 42.5t58.5 36.5t56.5 21h3q18 0 29 -10q13 -14 13 -31q0 -12 -7 -23q-9 -14 -29 -18q-17 -3 -46.5 -21.5t-60.5 -42t-56 -46t-32 -32.5q0 -1 9.5 -13t29.5 -41q14 -17 24 -36.5t13 -41.5q11 -58 11 -109q0 -47 -11 -91 q-10 -47 -32 -90.5t-57 -86.5l-18 -24q-10 -13 -21.5 -26t-24.5 -23.5t-26 -15.5l-13 -5q-7 -3 -15.5 -5t-16.5 -3h-6q-5 0 -9 1q-18 6 -31.5 19.5t-23 31t-13.5 37t-2 37.5q3 28 6.5 51.5t8 46.5t10.5 46.5t14 50.5q8 34 18 66l18 66l17 64q8 29 14 55.5t10 52.5t6 56 q-12 -14 -25 -26l-24 -26l-27 -26q-13 -12 -27 -16t-28.5 3.5t-29.5 31.5q-12 21 -18.5 44.5t-20.5 43.5q-18 -3 -36 -16t-32.5 -32t-24.5 -40t-13 -40q1 -9 3 -18.5t2 -18.5zM563 442q-8 29 -23 48l-31 40q-14 -63 -33 -126l-35 -125q-1 -3 -5 -18l-10 -37 q-5 -21 -10 -45.5t-8 -46.5q-1 -13 -1 -24q0 -9 1 -16q2 -18 10 -25q12 3 23 12t20.5 19.5t18.5 21.5l15 21q48 66 69 142q11 37 11 75q0 41 -12 84z" />
<glyph unicode="&#xac;" horiz-adv-x="965" d="M170 39q0 -18 -9 -29t-21.5 -13.5t-25.5 3.5t-22 22q-3 19 -8 36q-5 15 -5 31v6q3 62 20 118.5t37 110.5l38 110q18 54 24 111q2 19 2.5 42.5t-5.5 43.5q-6 21 -16.5 44t-12 43.5t10.5 35.5t51 20q30 4 58 4q42 0 78 -9q59 -14 102.5 -46t72 -78.5t43 -102t15.5 -117.5 v-11q0 -57 -9 -113q26 -30 47 -61t39 -67l44 225l46 224q3 14 7 37.5t11 47t19 41.5t30 21h5q33 0 42 -34q1 -3 1 -10q-1 -14 -6 -23.5t-13 -14.5q-12 -30 -17 -64.5t-11 -65.5q-17 -77 -31 -153.5t-30 -154.5q-9 -46 -17 -92.5t-23 -91.5q-8 -22 -24.5 -28.5t-37.5 4.5 q-19 12 -32.5 31t-25 41.5t-22.5 46.5t-24 46q-10 -32 -25.5 -68.5t-36.5 -68t-48 -53t-60 -22.5h-4q-20 0 -37 11q-18 12 -30.5 31t-19 41t-7.5 42v11q0 29 4 62q5 38 19 72.5t39.5 60.5t66.5 34q19 4 38 1t38 -5q3 -1 6 -1t7 -1q3 31 3 61q0 34 -4 68q-8 63 -38 111.5 t-84 76.5q-49 26 -122 26h-16q26 -55 26 -111v-7q-2 -59 -18 -119t-39.5 -118.5t-39.5 -113.5l-17 -65q-7 -29 -7 -55v-11q1 -14 5 -28.5t6 -28.5zM393 79q24 14 41.5 35.5t30 47t21 53.5t14.5 54v2l-15 6q-15 5 -28 5q-16 0 -29 -8q-22 -13 -34.5 -39t-16.5 -57 q-2 -18 -2 -34q0 -12 1 -22q2 -8 3.5 -15.5t4.5 -15.5q2 -5 9 -12z" />
<glyph unicode="&#xe0c;" horiz-adv-x="965" d="M170 39q0 -18 -9 -29t-21.5 -13.5t-25.5 3.5t-22 22q-3 19 -8 36q-5 15 -5 31v6q3 62 20 118.5t37 110.5l38 110q18 54 24 111q2 19 2.5 42.5t-5.5 43.5q-6 21 -16.5 44t-12 43.5t10.5 35.5t51 20q30 4 58 4q42 0 78 -9q59 -14 102.5 -46t72 -78.5t43 -102t15.5 -117.5 v-11q0 -57 -9 -113q26 -30 47 -61t39 -67l44 225l46 224q3 14 7 37.5t11 47t19 41.5t30 21h5q33 0 42 -34q1 -3 1 -10q-1 -14 -6 -23.5t-13 -14.5q-12 -30 -17 -64.5t-11 -65.5q-17 -77 -31 -153.5t-30 -154.5q-9 -46 -17 -92.5t-23 -91.5q-8 -22 -24.5 -28.5t-37.5 4.5 q-19 12 -32.5 31t-25 41.5t-22.5 46.5t-24 46q-10 -32 -25.5 -68.5t-36.5 -68t-48 -53t-60 -22.5h-4q-20 0 -37 11q-18 12 -30.5 31t-19 41t-7.5 42v11q0 29 4 62q5 38 19 72.5t39.5 60.5t66.5 34q19 4 38 1t38 -5q3 -1 6 -1t7 -1q3 31 3 61q0 34 -4 68q-8 63 -38 111.5 t-84 76.5q-49 26 -122 26h-16q26 -55 26 -111v-7q-2 -59 -18 -119t-39.5 -118.5t-39.5 -113.5l-17 -65q-7 -29 -7 -55v-11q1 -14 5 -28.5t6 -28.5zM393 79q24 14 41.5 35.5t30 47t21 53.5t14.5 54v2l-15 6q-15 5 -28 5q-16 0 -29 -8q-22 -13 -34.5 -39t-16.5 -57 q-2 -18 -2 -34q0 -12 1 -22q2 -8 3.5 -15.5t4.5 -15.5q2 -5 9 -12z" />
<glyph unicode="&#xad;" horiz-adv-x="897" d="M272 132q1 0 4 3q6 18 19 25.5t26.5 5t23.5 -14t9 -31.5q-3 -24 -19 -40t-37.5 -26.5t-44.5 -17.5l-41 -11q-16 -3 -25.5 0t-21.5 14q-10 14 -22.5 27t-17.5 30q-9 28 -9 62v11q2 41 11.5 85.5t24 91t31.5 89.5t33.5 80.5t29.5 64.5t31 50l35 46q7 9 22.5 20.5t34.5 19 t37 7.5t29 -15q9 -11 13 -25.5t6 -30.5t2.5 -31.5t2.5 -26.5l3 -28q3 -19 5 -40.5t5 -41.5l3 -27l15 -101q7 -51 18 -102l15 -57q2 -5 4.5 -15.5t7.5 -23.5q2 5 4 11t4 11q13 34 23 66l20 67l40 135q20 67 46 132q6 15 13.5 36.5t18 42.5t24.5 38.5t32 23.5q37 1 47 -34 q1 -1 1 -4q-1 -28 -19 -38l-9 -18q-11 -20 -19 -39l-17 -43q-32 -78 -54 -159t-48 -162l-32 -100q-16 -46 -30 -72q-5 -8 -13.5 -16t-18.5 -10q-18 -3 -31 3.5t-22 18.5t-15.5 27.5t-11.5 29.5l-12 37q-4 15 -8.5 28.5t-8.5 28.5t-9 38q-7 32 -13 68l-11 67q-8 52 -14 103 l-11 102q-1 9 -3 21t-4 26l-3 -3q-29 -29 -51.5 -66.5t-40 -78.5t-31 -83t-23.5 -80l-11 -43q-7 -27 -11.5 -57.5t-3.5 -59t14 -45.5l30 10q15 6 29 14zM450 -192q-14 -16 -30 -18h-4q-13 0 -22 8q-12 8 -16 24q-1 4 -1 8q0 12 8 25q16 24 53.5 48t81.5 44t87.5 34.5 t73.5 20.5h3q19 0 30 -10q14 -13 14 -29q0 -12 -8 -23q-9 -13 -30 -17q-12 -2 -33 -9t-45.5 -16t-50 -20.5t-48 -23.5t-39.5 -24t-24 -22z" />
<glyph unicode="&#xe0d;" horiz-adv-x="897" d="M272 132q1 0 4 3q6 18 19 25.5t26.5 5t23.5 -14t9 -31.5q-3 -24 -19 -40t-37.5 -26.5t-44.5 -17.5l-41 -11q-16 -3 -25.5 0t-21.5 14q-10 14 -22.5 27t-17.5 30q-9 28 -9 62v11q2 41 11.5 85.5t24 91t31.5 89.5t33.5 80.5t29.5 64.5t31 50l35 46q7 9 22.5 20.5t34.5 19 t37 7.5t29 -15q9 -11 13 -25.5t6 -30.5t2.5 -31.5t2.5 -26.5l3 -28q3 -19 5 -40.5t5 -41.5l3 -27l15 -101q7 -51 18 -102l15 -57q2 -5 4.5 -15.5t7.5 -23.5q2 5 4 11t4 11q13 34 23 66l20 67l40 135q20 67 46 132q6 15 13.5 36.5t18 42.5t24.5 38.5t32 23.5q37 1 47 -34 q1 -1 1 -4q-1 -28 -19 -38l-9 -18q-11 -20 -19 -39l-17 -43q-32 -78 -54 -159t-48 -162l-32 -100q-16 -46 -30 -72q-5 -8 -13.5 -16t-18.5 -10q-18 -3 -31 3.5t-22 18.5t-15.5 27.5t-11.5 29.5l-12 37q-4 15 -8.5 28.5t-8.5 28.5t-9 38q-7 32 -13 68l-11 67q-8 52 -14 103 l-11 102q-1 9 -3 21t-4 26l-3 -3q-29 -29 -51.5 -66.5t-40 -78.5t-31 -83t-23.5 -80l-11 -43q-7 -27 -11.5 -57.5t-3.5 -59t14 -45.5l30 10q15 6 29 14zM450 -192q-14 -16 -30 -18h-4q-13 0 -22 8q-12 8 -16 24q-1 4 -1 8q0 12 8 25q16 24 53.5 48t81.5 44t87.5 34.5 t73.5 20.5h3q19 0 30 -10q14 -13 14 -29q0 -12 -8 -23q-9 -13 -30 -17q-12 -2 -33 -9t-45.5 -16t-50 -20.5t-48 -23.5t-39.5 -24t-24 -22z" />
<glyph unicode="&#xde;" horiz-adv-x="897" d="M272 132q1 0 4 3q6 18 19 25.5t26.5 5t23.5 -14t9 -31.5q-3 -24 -19 -40t-37.5 -26.5t-44.5 -17.5l-41 -11q-16 -3 -25.5 0t-21.5 14q-10 14 -22.5 27t-17.5 30q-9 28 -9 62v11q2 41 11.5 85.5t24 91t31.5 89.5t33.5 80.5t29.5 64.5t31 50l35 46q7 9 22.5 20.5t34.5 19 t37 7.5t29 -15q9 -11 13 -25.5t6 -30.5t2.5 -31.5t2.5 -26.5l3 -28q3 -19 5 -40.5t5 -41.5l3 -27l15 -101q7 -51 18 -102l15 -57q2 -5 4.5 -15.5t7.5 -23.5q2 5 4 11t4 11q13 34 23 66l20 67l40 135q20 67 46 132q6 15 13.5 36.5t18 42.5t24.5 38.5t32 23.5q37 1 47 -34 q1 -1 1 -4q-1 -28 -19 -38l-9 -18q-11 -20 -19 -39l-17 -43q-32 -78 -54 -159t-48 -162l-32 -100q-16 -46 -30 -72q-5 -8 -13.5 -16t-18.5 -10q-18 -3 -31 3.5t-22 18.5t-15.5 27.5t-11.5 29.5l-12 37q-4 15 -8.5 28.5t-8.5 28.5t-9 38q-7 32 -13 68l-11 67q-8 52 -14 103 l-11 102q-1 9 -3 21t-4 26l-3 -3q-29 -29 -51.5 -66.5t-40 -78.5t-31 -83t-23.5 -80l-11 -43q-7 -27 -11.5 -57.5t-3.5 -59t14 -45.5l30 10q15 6 29 14zM450 -192q-14 -16 -30 -18h-4q-13 0 -22 8q-12 8 -16 24q-1 4 -1 8q0 12 8 25q16 24 53.5 48t81.5 44t87.5 34.5 t73.5 20.5h3q19 0 30 -10q14 -13 14 -29q0 -12 -8 -23q-9 -13 -30 -17q-12 -2 -33 -9t-45.5 -16t-50 -20.5t-48 -23.5t-39.5 -24t-24 -22z" />
<glyph unicode="&#xae;" horiz-adv-x="722" d="M147 12q-11 -14 -24.5 -17t-25 3t-18.5 19t-4 31l57 172q28 86 59.5 168.5t71.5 161t95 150.5q21 27 46.5 40.5t52.5 15.5h6l48 -10q27 -11 50 -33q15 -15 23.5 -43t12.5 -63t4 -73.5t-2 -74t-4.5 -65.5t-4.5 -48q-8 -74 -20 -135.5t-27 -120.5l-31 -119 q-15 -61 -28 -134q-7 -34 -13 -68.5t-10 -69.5q-3 -27 -1 -56.5t-6 -55.5q-6 -18 -18 -25q-9 -7 -20 -7q-2 0 -4 1q-13 1 -23.5 11.5t-13.5 28.5q0 20 0.5 44t-1 48t-7 46.5t-17.5 40.5q-8 12 -22.5 13t-29.5 -4t-28 -12l-20 -12q-30 -17 -56.5 -41t-49.5 -50q2 -15 -11 -31 l-25 -25q-14 -8 -26 -8q-23 0 -39 28q-3 8 -3 17q0 7 2 14q5 16 15 30t21 26l21 21q24 24 51 48.5t57.5 43.5t64.5 29q23 7 49 7q10 0 20 -1q20 -2 34.5 -10.5t27.5 -20.5q6 37 13 73l15 73q11 55 23 99l23 86q11 42 20.5 86.5t15.5 100.5q3 27 7 68t5 84v14q0 36 -4 69 q-5 41 -21 68q-3 6 -10 8t-12 6q-5 1 -14 -0.5t-19 -6t-18 -10.5t-12 -13q-18 -19 -35.5 -43.5t-33 -51.5t-28.5 -53l-25 -50q-25 -53 -44 -106t-35 -107l-32 -109q-16 -54 -35 -110z" />
<glyph unicode="&#xe0e;" horiz-adv-x="722" d="M147 12q-11 -14 -24.5 -17t-25 3t-18.5 19t-4 31l57 172q28 86 59.5 168.5t71.5 161t95 150.5q21 27 46.5 40.5t52.5 15.5h6l48 -10q27 -11 50 -33q15 -15 23.5 -43t12.5 -63t4 -73.5t-2 -74t-4.5 -65.5t-4.5 -48q-8 -74 -20 -135.5t-27 -120.5l-31 -119 q-15 -61 -28 -134q-7 -34 -13 -68.5t-10 -69.5q-3 -27 -1 -56.5t-6 -55.5q-6 -18 -18 -25q-9 -7 -20 -7q-2 0 -4 1q-13 1 -23.5 11.5t-13.5 28.5q0 20 0.5 44t-1 48t-7 46.5t-17.5 40.5q-8 12 -22.5 13t-29.5 -4t-28 -12l-20 -12q-30 -17 -56.5 -41t-49.5 -50q2 -15 -11 -31 l-25 -25q-14 -8 -26 -8q-23 0 -39 28q-3 8 -3 17q0 7 2 14q5 16 15 30t21 26l21 21q24 24 51 48.5t57.5 43.5t64.5 29q23 7 49 7q10 0 20 -1q20 -2 34.5 -10.5t27.5 -20.5q6 37 13 73l15 73q11 55 23 99l23 86q11 42 20.5 86.5t15.5 100.5q3 27 7 68t5 84v14q0 36 -4 69 q-5 41 -21 68q-3 6 -10 8t-12 6q-5 1 -14 -0.5t-19 -6t-18 -10.5t-12 -13q-18 -19 -35.5 -43.5t-33 -51.5t-28.5 -53l-25 -50q-25 -53 -44 -106t-35 -107l-32 -109q-16 -54 -35 -110z" />
<glyph unicode="&#xaf;" horiz-adv-x="740" d="M186 21q-6 -17 -18 -24.5t-25 -6t-23 11.5t-13 28q18 47 30 99t22 108l21 114q11 58 28.5 117t43 117t65.5 114q21 29 48 40q22 9 45 9h10q29 -3 56.5 -16.5t51 -34t40 -46t22.5 -50.5q16 -66 16 -146v-22q-3 -93 -17.5 -199t-37.5 -223l-45 -239q-5 -24 -7 -49t-6 -49.5 t-11.5 -48t-21.5 -44.5q-16 -19 -33 -19t-34 17q-15 15 -27 41l-24 50q-13 26 -28 47t-37 28q-15 -9 -20.5 -25.5t-10.5 -34.5t-13 -34.5t-28 -26.5q-19 -4 -31 2.5t-22 23.5l-12 38q-6 18 -15.5 33.5t-24.5 25.5t-38 13q-20 2 -39 -5t-31 -24q-1 -1 -1 -2q11 -10 12 -26.5 t-12 -33.5q-17 -12 -36.5 -13t-35 7t-21.5 24q-3 6 -3 14q0 11 6 24q7 14 12.5 29.5t15.5 26.5q30 33 65 47q30 13 60 13l10 -1q35 -2 68.5 -21.5t61.5 -53.5q14 28 34.5 47.5t46.5 16.5q34 -4 56 -18t37 -33.5t25.5 -43.5t22.5 -47q1 13 5 30t9 43l14 64q7 37 16 93l17 101 q7 39 11 67l8 49q4 21 8 46l8 59l13 88q4 28 7 73q1 19 1 38q0 27 -3 54q-3 47 -15 89.5t-37 66.5q-12 12 -27 15.5t-31 1t-30 -10.5t-24 -20q-25 -30 -44.5 -74t-36 -96.5t-30 -110.5t-25.5 -117l-22 -113q-11 -55 -22 -102z" />
<glyph unicode="&#xe0f;" horiz-adv-x="740" d="M186 21q-6 -17 -18 -24.5t-25 -6t-23 11.5t-13 28q18 47 30 99t22 108l21 114q11 58 28.5 117t43 117t65.5 114q21 29 48 40q22 9 45 9h10q29 -3 56.5 -16.5t51 -34t40 -46t22.5 -50.5q16 -66 16 -146v-22q-3 -93 -17.5 -199t-37.5 -223l-45 -239q-5 -24 -7 -49t-6 -49.5 t-11.5 -48t-21.5 -44.5q-16 -19 -33 -19t-34 17q-15 15 -27 41l-24 50q-13 26 -28 47t-37 28q-15 -9 -20.5 -25.5t-10.5 -34.5t-13 -34.5t-28 -26.5q-19 -4 -31 2.5t-22 23.5l-12 38q-6 18 -15.5 33.5t-24.5 25.5t-38 13q-20 2 -39 -5t-31 -24q-1 -1 -1 -2q11 -10 12 -26.5 t-12 -33.5q-17 -12 -36.5 -13t-35 7t-21.5 24q-3 6 -3 14q0 11 6 24q7 14 12.5 29.5t15.5 26.5q30 33 65 47q30 13 60 13l10 -1q35 -2 68.5 -21.5t61.5 -53.5q14 28 34.5 47.5t46.5 16.5q34 -4 56 -18t37 -33.5t25.5 -43.5t22.5 -47q1 13 5 30t9 43l14 64q7 37 16 93l17 101 q7 39 11 67l8 49q4 21 8 46l8 59l13 88q4 28 7 73q1 19 1 38q0 27 -3 54q-3 47 -15 89.5t-37 66.5q-12 12 -27 15.5t-31 1t-30 -10.5t-24 -20q-25 -30 -44.5 -74t-36 -96.5t-30 -110.5t-25.5 -117l-22 -113q-11 -55 -22 -102z" />
<glyph unicode="&#xb0;" horiz-adv-x="720" d="M286 435q3 18 14 27.5t24 10t24.5 -7.5t16.5 -26q1 -22 1 -43v-33l-4 -76l-2 -76v-19q0 -28 2 -57q11 16 26 44t28.5 62t21.5 70q9 34 9 64q0 35 -13 60q-13 24 -42 35q-30 10 -61 10h-11q-37 -2 -73.5 -7.5t-73.5 -8.5q-8 -1 -16 -1q-28 0 -56 9q-11 3 -23 12t-21 20.5 t-12.5 25t3.5 26.5q11 20 20 41.5t26 37.5q41 38 79.5 64.5t79 44t86.5 27t102 14.5h8q15 0 35 -3q26 -3 51.5 -12.5t46.5 -24.5t28 -36q6 -17 10.5 -34.5t9.5 -34.5q3 -9 3 -17q0 -9 -5 -17q-7 -14 -20 -19t-28 0.5t-25 23.5q-4 15 -6 30t-10 28q-10 17 -29 26t-42.5 11 t-49.5 -1t-50.5 -8.5t-45.5 -12.5t-34 -12q-35 -14 -57.5 -26.5t-38 -27t-28 -31.5t-27.5 -40q6 -1 13 -1h12q27 0 62.5 4.5t71.5 7.5q22 2 43 2q14 0 28 -1q34 -2 58 -16l30 -16q15 -8 27 -21q25 -25 35 -64q8 -32 8 -68v-14q-2 -45 -14 -92t-30 -89.5t-40 -77.5t-45 -54 q-8 -6 -21 -11t-20 -7q-19 -4 -31 2.5t-22 23.5q-17 34 -21 83q-3 32 -3 66q0 17 1 34q2 53 5 104q3 33 3 62q0 16 -1 31zM482 3q11 18 26.5 22t28 -2t18.5 -21q3 -6 3 -14q0 -9 -4 -20l-15 -39q-9 -24 -20.5 -51.5t-25.5 -56t-30 -53t-32.5 -41.5t-33.5 -22 q-16 -3 -25.5 0.5t-21.5 14.5q-21 22 -24.5 48.5t-5.5 55.5v20q0 12 -5 20q0 -1 -0.5 -1t-0.5 -1q-12 -17 -20.5 -31t-17.5 -25.5t-21 -20.5t-30 -15q-16 -3 -25.5 0t-21.5 14q-6 10 -12.5 28t-15.5 34.5t-20 28.5t-24 11q-15 -1 -30 -4t-29 -10q-8 -4 -26.5 -14.5t-41 -25 t-45 -32t-39.5 -36.5t-25 -39t0 -39q6 -20 -1.5 -34t-20.5 -19q-6 -2 -13 -2t-15 3q-15 5 -25 23q-10 24 -11 47q-1 3 -1 6q0 21 10 43q10 24 31 50t49 50.5t61 46.5t65 38t62 24.5t53 5.5q25 -3 42 -12t30 -22.5t22 -29.5l18 -35q12 16 26 37.5t31 34.5t39 11.5t50 -30.5 q9 -8 14 -20.5t7 -23.5q3 -13 2.5 -29t1.5 -33q5 8 8.5 16t8.5 16q20 38 37 76.5t31 78.5zM112 509l1 1z" />
<glyph unicode="&#xe10;" horiz-adv-x="720" d="M286 435q3 18 14 27.5t24 10t24.5 -7.5t16.5 -26q1 -22 1 -43v-33l-4 -76l-2 -76v-19q0 -28 2 -57q11 16 26 44t28.5 62t21.5 70q9 34 9 64q0 35 -13 60q-13 24 -42 35q-30 10 -61 10h-11q-37 -2 -73.5 -7.5t-73.5 -8.5q-8 -1 -16 -1q-28 0 -56 9q-11 3 -23 12t-21 20.5 t-12.5 25t3.5 26.5q11 20 20 41.5t26 37.5q41 38 79.5 64.5t79 44t86.5 27t102 14.5h8q15 0 35 -3q26 -3 51.5 -12.5t46.5 -24.5t28 -36q6 -17 10.5 -34.5t9.5 -34.5q3 -9 3 -17q0 -9 -5 -17q-7 -14 -20 -19t-28 0.5t-25 23.5q-4 15 -6 30t-10 28q-10 17 -29 26t-42.5 11 t-49.5 -1t-50.5 -8.5t-45.5 -12.5t-34 -12q-35 -14 -57.5 -26.5t-38 -27t-28 -31.5t-27.5 -40q6 -1 13 -1h12q27 0 62.5 4.5t71.5 7.5q22 2 43 2q14 0 28 -1q34 -2 58 -16l30 -16q15 -8 27 -21q25 -25 35 -64q8 -32 8 -68v-14q-2 -45 -14 -92t-30 -89.5t-40 -77.5t-45 -54 q-8 -6 -21 -11t-20 -7q-19 -4 -31 2.5t-22 23.5q-17 34 -21 83q-3 32 -3 66q0 17 1 34q2 53 5 104q3 33 3 62q0 16 -1 31zM482 3q11 18 26.5 22t28 -2t18.5 -21q3 -6 3 -14q0 -9 -4 -20l-15 -39q-9 -24 -20.5 -51.5t-25.5 -56t-30 -53t-32.5 -41.5t-33.5 -22 q-16 -3 -25.5 0.5t-21.5 14.5q-21 22 -24.5 48.5t-5.5 55.5v20q0 12 -5 20q0 -1 -0.5 -1t-0.5 -1q-12 -17 -20.5 -31t-17.5 -25.5t-21 -20.5t-30 -15q-16 -3 -25.5 0t-21.5 14q-6 10 -12.5 28t-15.5 34.5t-20 28.5t-24 11q-15 -1 -30 -4t-29 -10q-8 -4 -26.5 -14.5t-41 -25 t-45 -32t-39.5 -36.5t-25 -39t0 -39q6 -20 -1.5 -34t-20.5 -19q-6 -2 -13 -2t-15 3q-15 5 -25 23q-10 24 -11 47q-1 3 -1 6q0 21 10 43q10 24 31 50t49 50.5t61 46.5t65 38t62 24.5t53 5.5q25 -3 42 -12t30 -22.5t22 -29.5l18 -35q12 16 26 37.5t31 34.5t39 11.5t50 -30.5 q9 -8 14 -20.5t7 -23.5q3 -13 2.5 -29t1.5 -33q5 8 8.5 16t8.5 16q20 38 37 76.5t31 78.5zM112 509l1 1z" />
<glyph unicode="&#xb1;" horiz-adv-x="833" d="M130 528q-6 -18 -18.5 -25.5t-25 -6t-23 12t-12.5 28.5q1 25 11 53t26.5 52.5t37.5 43.5t44.5 26.5t48.5 1.5t48 -31q2 -2 4 -5t4 -8l16 24q8 13 17 25q11 14 26 25q15 9 31 9h3q28 -1 45 -14t27.5 -33t15.5 -44l11 -49q20 29 44 56q20 22 44 38t47 35q11 5 19 5t19 -3 q14 -7 29 -13.5t26 -18.5q10 -10 15.5 -29.5t8 -43.5t3.5 -51v-13q0 -19 -2 -37q-1 -24 -2.5 -43.5t-2.5 -29.5q-10 -109 -31 -213l-40 -211q-6 -18 -18 -25q-11 -7 -21 -7l-5 1q-12 1 -22.5 11.5t-12.5 29.5l17 89l17 90v1l19 105q10 53 16 106.5t6 107t-9 105.5 q-1 1 -1.5 1t-1.5 2q-39 -31 -62 -54.5t-38.5 -48t-29.5 -54.5l-33 -73q-15 -47 -25 -94.5t-18 -95.5l-16 -98q-7 -48 -17 -96q0 -1 -1 -2v-2h-1q-7 -16 -19 -22.5t-24 -4t-22 13t-12 28.5l16 145q9 72 24 144q9 40 19.5 79.5t16.5 81.5q3 18 4.5 39.5t0.5 43t-6 42 t-16 35.5q-13 -14 -23 -30t-19 -33l-18 -34q-9 -16 -21 -31q-10 -12 -22.5 -16t-23.5 -0.5t-19 13.5t-10 26q0 9 1 14.5t1.5 10.5t0 11t-2.5 16q-6 26 -19 22t-27 -22.5t-25 -43.5t-12 -40zM473 450q-2 -4 -2 -6l3 7z" />
<glyph unicode="&#xe11;" horiz-adv-x="833" d="M130 528q-6 -18 -18.5 -25.5t-25 -6t-23 12t-12.5 28.5q1 25 11 53t26.5 52.5t37.5 43.5t44.5 26.5t48.5 1.5t48 -31q2 -2 4 -5t4 -8l16 24q8 13 17 25q11 14 26 25q15 9 31 9h3q28 -1 45 -14t27.5 -33t15.5 -44l11 -49q20 29 44 56q20 22 44 38t47 35q11 5 19 5t19 -3 q14 -7 29 -13.5t26 -18.5q10 -10 15.5 -29.5t8 -43.5t3.5 -51v-13q0 -19 -2 -37q-1 -24 -2.5 -43.5t-2.5 -29.5q-10 -109 -31 -213l-40 -211q-6 -18 -18 -25q-11 -7 -21 -7l-5 1q-12 1 -22.5 11.5t-12.5 29.5l17 89l17 90v1l19 105q10 53 16 106.5t6 107t-9 105.5 q-1 1 -1.5 1t-1.5 2q-39 -31 -62 -54.5t-38.5 -48t-29.5 -54.5l-33 -73q-15 -47 -25 -94.5t-18 -95.5l-16 -98q-7 -48 -17 -96q0 -1 -1 -2v-2h-1q-7 -16 -19 -22.5t-24 -4t-22 13t-12 28.5l16 145q9 72 24 144q9 40 19.5 79.5t16.5 81.5q3 18 4.5 39.5t0.5 43t-6 42 t-16 35.5q-13 -14 -23 -30t-19 -33l-18 -34q-9 -16 -21 -31q-10 -12 -22.5 -16t-23.5 -0.5t-19 13.5t-10 26q0 9 1 14.5t1.5 10.5t0 11t-2.5 16q-6 26 -19 22t-27 -22.5t-25 -43.5t-12 -40zM473 450q-2 -4 -2 -6l3 7z" />
<glyph unicode="&#xb2;" horiz-adv-x="1018" d="M239 315q-16 9 -22 22t-3.5 25.5t13.5 21.5t29 9q13 -2 26.5 -3.5t24.5 -6.5q29 -14 40 -35t10.5 -47t-10 -54t-23 -54.5t-28 -50t-23.5 -40.5l-17 -32q-8 -16 -18.5 -32t-23.5 -29t-30 -20q-8 -1 -14.5 -1t-11.5 1q-9 3 -21 14q-10 15 -14 33.5t-5 37.5q-1 10 -0.5 19.5 t0.5 18.5q1 19 1 36q-1 54 -1 110q-1 6 -1 12q0 49 4 98q4 56 14.5 110t33.5 104q7 15 18 35.5t26.5 42t33.5 41.5t38 33t41 17q7 1 13 1q15 0 30 -7q26 -12 39 -37t22 -54q1 1 3 5q11 17 23.5 33.5t27.5 29t33.5 19.5t41.5 6h9q8 0 18 -0.5t20.5 -1.5t16.5 -4 q25 -12 38.5 -32.5t20.5 -45.5t8.5 -51.5t2.5 -49.5v-11q0 -31 -5 -65q-6 -38 -13 -74q-2 -10 -3.5 -19t-3.5 -19q18 -11 31.5 -23t30.5 -32q21 -23 31.5 -54.5t18.5 -60.5l22 136l23 136q11 59 18.5 110t7.5 109q2 8 4 13q0 1 0.5 1.5t0.5 1.5q1 2 1.5 2.5t1.5 2.5l2 2 q2 2 3 3.5t3 2.5t2.5 1.5t2.5 1.5q11 6 22 5q5 0 7 -1q3 -2 6.5 -3t5.5 -3q10 -7 16 -23q0 -2 1 -3v-3q-1 -100 -18 -197l-35 -196q-5 -32 -9.5 -66t-10 -68t-14.5 -67.5t-23 -63.5q-15 -18 -34 -18q-11 0 -23 6q-18 14 -28 34t-16 44t-10.5 49.5t-11 50.5t-17.5 47t-29 38 q-5 -38 -9 -82.5t-15 -86.5t-32 -76.5t-58 -52.5q-12 -2 -19.5 -1t-18.5 6q-6 5 -13.5 10t-12.5 11q-17 23 -23 65q-4 29 -4 60v26q3 46 13 87.5t26 64.5q18 26 45.5 48t59.5 27l4 19l4 20q5 29 9.5 62.5t5.5 61.5q0 7 0.5 23.5t-1 34t-7 32t-17.5 18.5q-7 2 -14.5 1.5 t-15.5 0.5q-26 -7 -40.5 -25.5t-26 -40.5t-24.5 -42.5t-36 -32.5q-19 -3 -31 3t-22 23q-14 29 -21 59t-21 58q-32 -17 -54.5 -47t-38 -68t-25 -81t-14 -85.5t-6 -82t-1.5 -70.5q0 -14 -1 -46q-1 -19 -1 -39v-26q3 7 6 12q8 14 23 37t28.5 47.5t21.5 48t1 37.5q-4 8 -15 7 t-21 1zM545 132q13 45 18 86l10 86q-16 -13 -26.5 -38.5t-16 -56t-5.5 -61.5t6 -55q5 8 7.5 18t6.5 21z" />
<glyph unicode="&#xe12;" horiz-adv-x="1018" d="M239 315q-16 9 -22 22t-3.5 25.5t13.5 21.5t29 9q13 -2 26.5 -3.5t24.5 -6.5q29 -14 40 -35t10.5 -47t-10 -54t-23 -54.5t-28 -50t-23.5 -40.5l-17 -32q-8 -16 -18.5 -32t-23.5 -29t-30 -20q-8 -1 -14.5 -1t-11.5 1q-9 3 -21 14q-10 15 -14 33.5t-5 37.5q-1 10 -0.5 19.5 t0.5 18.5q1 19 1 36q-1 54 -1 110q-1 6 -1 12q0 49 4 98q4 56 14.5 110t33.5 104q7 15 18 35.5t26.5 42t33.5 41.5t38 33t41 17q7 1 13 1q15 0 30 -7q26 -12 39 -37t22 -54q1 1 3 5q11 17 23.5 33.5t27.5 29t33.5 19.5t41.5 6h9q8 0 18 -0.5t20.5 -1.5t16.5 -4 q25 -12 38.5 -32.5t20.5 -45.5t8.5 -51.5t2.5 -49.5v-11q0 -31 -5 -65q-6 -38 -13 -74q-2 -10 -3.5 -19t-3.5 -19q18 -11 31.5 -23t30.5 -32q21 -23 31.5 -54.5t18.5 -60.5l22 136l23 136q11 59 18.5 110t7.5 109q2 8 4 13q0 1 0.5 1.5t0.5 1.5q1 2 1.5 2.5t1.5 2.5l2 2 q2 2 3 3.5t3 2.5t2.5 1.5t2.5 1.5q11 6 22 5q5 0 7 -1q3 -2 6.5 -3t5.5 -3q10 -7 16 -23q0 -2 1 -3v-3q-1 -100 -18 -197l-35 -196q-5 -32 -9.5 -66t-10 -68t-14.5 -67.5t-23 -63.5q-15 -18 -34 -18q-11 0 -23 6q-18 14 -28 34t-16 44t-10.5 49.5t-11 50.5t-17.5 47t-29 38 q-5 -38 -9 -82.5t-15 -86.5t-32 -76.5t-58 -52.5q-12 -2 -19.5 -1t-18.5 6q-6 5 -13.5 10t-12.5 11q-17 23 -23 65q-4 29 -4 60v26q3 46 13 87.5t26 64.5q18 26 45.5 48t59.5 27l4 19l4 20q5 29 9.5 62.5t5.5 61.5q0 7 0.5 23.5t-1 34t-7 32t-17.5 18.5q-7 2 -14.5 1.5 t-15.5 0.5q-26 -7 -40.5 -25.5t-26 -40.5t-24.5 -42.5t-36 -32.5q-19 -3 -31 3t-22 23q-14 29 -21 59t-21 58q-32 -17 -54.5 -47t-38 -68t-25 -81t-14 -85.5t-6 -82t-1.5 -70.5q0 -14 -1 -46q-1 -19 -1 -39v-26q3 7 6 12q8 14 23 37t28.5 47.5t21.5 48t1 37.5q-4 8 -15 7 t-21 1zM545 132q13 45 18 86l10 86q-16 -13 -26.5 -38.5t-16 -56t-5.5 -61.5t6 -55q5 8 7.5 18t6.5 21z" />
<glyph unicode="&#xb3;" horiz-adv-x="1089" d="M167 14q-5 -17 -17 -24q-10 -7 -21 -7q-2 0 -4 1q-13 1 -24 11t-14 28q7 64 17 123.5t25.5 116.5t37.5 112.5t54 112.5l32 60q19 35 41.5 71t47.5 68t51 52q48 36 84 36q5 0 10 -1q40 -5 68 -40.5t45.5 -93t25.5 -120.5q6 -52 6 -103v-21q-2 -60 -10 -101q45 47 104 79 q6 3 12 6.5t12 6.5q7 51 21 98t35 91.5t49 87.5t64 88q12 10 24.5 12t23 -3t17 -16t6.5 -27l1 -4q-6 -17 -16 -24q-16 -20 -29.5 -42.5t-28.5 -44.5q-32 -53 -51.5 -98.5t-29.5 -94.5q30 2 56 -10q11 -5 21 -17t17 -19q26 -30 26 -75q0 -41 -12 -83q-13 -45 -32.5 -85 t-33.5 -63q-5 -9 -16 -18l-18 -15q-13 -8 -23.5 -9t-25.5 7q-8 5 -17 10t-15 13q-8 11 -13 29t-7 39.5t-2.5 44.5t0 43.5t1 36t0.5 22.5v27q-2 -2 -4 -3.5t-5 -3.5q-52 -38 -88.5 -87t-62.5 -107q-4 -13 -7.5 -25.5t-8.5 -23.5v-3q-2 -3 -2.5 -6t-2.5 -5q-11 -14 -24.5 -17 t-25.5 3t-19 18.5t-5 30.5q5 25 17 51q11 50 21 110t16 121.5t7 120.5v16q0 49 -5 89q-6 47 -21.5 78t-41.5 38q-10 -3 -21 -4.5t-19 -8.5q-24 -21 -45.5 -49t-40.5 -58.5t-35.5 -61.5t-29.5 -59q-15 -31 -31 -69.5t-31 -79.5t-28 -81.5t-20 -75.5q-5 -30 -7 -60.5t-5 -61.5 zM823 127q10 17 21 39.5t19 46t12 45.5q2 13 2 23q0 9 -1 16q-4 16 -16 25q-8 5 -20 5q-7 0 -16 -2q-2 -17 -2 -35t-1 -38q0 -32 -1 -63q-1 -7 -1 -14q0 -24 4 -48z" />
<glyph unicode="&#xe13;" horiz-adv-x="1089" d="M167 14q-5 -17 -17 -24q-10 -7 -21 -7q-2 0 -4 1q-13 1 -24 11t-14 28q7 64 17 123.5t25.5 116.5t37.5 112.5t54 112.5l32 60q19 35 41.5 71t47.5 68t51 52q48 36 84 36q5 0 10 -1q40 -5 68 -40.5t45.5 -93t25.5 -120.5q6 -52 6 -103v-21q-2 -60 -10 -101q45 47 104 79 q6 3 12 6.5t12 6.5q7 51 21 98t35 91.5t49 87.5t64 88q12 10 24.5 12t23 -3t17 -16t6.5 -27l1 -4q-6 -17 -16 -24q-16 -20 -29.5 -42.5t-28.5 -44.5q-32 -53 -51.5 -98.5t-29.5 -94.5q30 2 56 -10q11 -5 21 -17t17 -19q26 -30 26 -75q0 -41 -12 -83q-13 -45 -32.5 -85 t-33.5 -63q-5 -9 -16 -18l-18 -15q-13 -8 -23.5 -9t-25.5 7q-8 5 -17 10t-15 13q-8 11 -13 29t-7 39.5t-2.5 44.5t0 43.5t1 36t0.5 22.5v27q-2 -2 -4 -3.5t-5 -3.5q-52 -38 -88.5 -87t-62.5 -107q-4 -13 -7.5 -25.5t-8.5 -23.5v-3q-2 -3 -2.5 -6t-2.5 -5q-11 -14 -24.5 -17 t-25.5 3t-19 18.5t-5 30.5q5 25 17 51q11 50 21 110t16 121.5t7 120.5v16q0 49 -5 89q-6 47 -21.5 78t-41.5 38q-10 -3 -21 -4.5t-19 -8.5q-24 -21 -45.5 -49t-40.5 -58.5t-35.5 -61.5t-29.5 -59q-15 -31 -31 -69.5t-31 -79.5t-28 -81.5t-20 -75.5q-5 -30 -7 -60.5t-5 -61.5 zM823 127q10 17 21 39.5t19 46t12 45.5q2 13 2 23q0 9 -1 16q-4 16 -16 25q-8 5 -20 5q-7 0 -16 -2q-2 -17 -2 -35t-1 -38q0 -32 -1 -63q-1 -7 -1 -14q0 -24 4 -48z" />
<glyph unicode="&#xb4;" horiz-adv-x="714" d="M265 376q-15 15 -15 31t9 26.5t24.5 13t32.5 -9.5q9 -7 22 -15.5t18 -21.5q10 -22 10 -52q0 -13 -2 -27q-6 -47 -22.5 -96t-38 -93.5t-37.5 -69.5q-7 -11 -24 -22.5t-23 -16.5q-13 -8 -25 -8q-17 0 -33 16q-25 25 -35.5 50t-13.5 51q-2 15 -2 30q0 13 2 27q2 30 2 66 q1 112 37.5 210t105.5 188l37 47q20 24 45 41q21 14 50 21.5t59.5 7.5t58.5 -9t46 -27q17 -17 28.5 -39.5t18.5 -46.5t10.5 -49t4.5 -47q1 -18 1 -38v-20q-1 -31 -3 -62.5t-6 -62t-8 -57.5q-1 -8 -6.5 -33.5t-13.5 -58.5l-18 -72q-10 -39 -21.5 -73.5t-24 -60t-24.5 -34.5 q-14 -8 -26 -8q-6 0 -11 2q-17 5 -28 25q-3 7 -3 14.5t-1 14.5q2 14 9 22.5t16 12.5q1 3 2 5.5t2 5.5l17 41l11 30.5t9 32.5l12 48q19 78 30 159q7 55 7 110q0 26 -2 52q0 12 -2 29.5t-6 35.5t-11.5 34.5t-18.5 26.5q-8 8 -19.5 10.5t-22.5 5.5q-25 9 -50 -4t-46.5 -35 t-39 -46t-27.5 -39q-100 -151 -100 -330q0 -21 1 -42q2 -21 5 -41t5 -41q18 17 32.5 50t25 70t16 73t4.5 59q-4 4 -8 7z" />
<glyph unicode="&#xe14;" horiz-adv-x="714" d="M265 376q-15 15 -15 31t9 26.5t24.5 13t32.5 -9.5q9 -7 22 -15.5t18 -21.5q10 -22 10 -52q0 -13 -2 -27q-6 -47 -22.5 -96t-38 -93.5t-37.5 -69.5q-7 -11 -24 -22.5t-23 -16.5q-13 -8 -25 -8q-17 0 -33 16q-25 25 -35.5 50t-13.5 51q-2 15 -2 30q0 13 2 27q2 30 2 66 q1 112 37.5 210t105.5 188l37 47q20 24 45 41q21 14 50 21.5t59.5 7.5t58.5 -9t46 -27q17 -17 28.5 -39.5t18.5 -46.5t10.5 -49t4.5 -47q1 -18 1 -38v-20q-1 -31 -3 -62.5t-6 -62t-8 -57.5q-1 -8 -6.5 -33.5t-13.5 -58.5l-18 -72q-10 -39 -21.5 -73.5t-24 -60t-24.5 -34.5 q-14 -8 -26 -8q-6 0 -11 2q-17 5 -28 25q-3 7 -3 14.5t-1 14.5q2 14 9 22.5t16 12.5q1 3 2 5.5t2 5.5l17 41l11 30.5t9 32.5l12 48q19 78 30 159q7 55 7 110q0 26 -2 52q0 12 -2 29.5t-6 35.5t-11.5 34.5t-18.5 26.5q-8 8 -19.5 10.5t-22.5 5.5q-25 9 -50 -4t-46.5 -35 t-39 -46t-27.5 -39q-100 -151 -100 -330q0 -21 1 -42q2 -21 5 -41t5 -41q18 17 32.5 50t25 70t16 73t4.5 59q-4 4 -8 7z" />
<glyph unicode="&#xb5;" horiz-adv-x="744" d="M260 65q19 -5 26.5 -18.5t4.5 -26.5t-15 -22q-11 -8 -26 -8h-6q-2 1 -9.5 2.5t-16.5 3.5t-17.5 5t-13.5 7q-27 20 -42 47.5t-22 58.5t-9 64v28q0 18 1 35q2 60 17 137.5t41.5 154.5t63.5 143.5t84 103.5q11 5 20 5q2 0 4 -1q10 -1 22 -10q20 -17 30 -44t13 -58 q3 -25 3 -51v-15q-1 -33 -3 -61l31 61q16 31 34 57.5t37.5 47.5t40.5 33q12 7 31 5t30 -3q15 -3 22 -10.5t12 -21.5q2 -28 2 -55q0 -18 -1 -35q-2 -44 -8.5 -86.5t-16.5 -85.5l-20 -90q-20 -81 -43 -161t-51 -159q-7 -19 -20.5 -25.5t-26.5 -2.5t-21.5 16.5t-4.5 32.5 q39 113 71 226.5t53 231.5q7 33 12 67q4 24 4 49q0 10 -1 20q-43 -52 -75 -104t-57 -115q-5 -13 -9 -27.5t-10 -28t-14.5 -25t-21.5 -18.5q-14 -3 -22 -0.5t-18 10.5l-2 3q-2 3 -5 7t-5.5 8.5t-2.5 7.5q-3 21 -3 42t1 42q0 14 2 41t3 60q1 16 1 32t-1 32q-1 33 -6 57 q-31 -42 -56.5 -100t-43.5 -120.5t-28.5 -122.5t-12.5 -105q-1 -16 -1.5 -39t3 -46.5t12 -43.5t26.5 -30q7 -5 14.5 -6t15.5 -3zM345 353l4 -4q-2 1 -2.5 2t-1.5 2z" />
<glyph unicode="&#xe15;" horiz-adv-x="744" d="M260 65q19 -5 26.5 -18.5t4.5 -26.5t-15 -22q-11 -8 -26 -8h-6q-2 1 -9.5 2.5t-16.5 3.5t-17.5 5t-13.5 7q-27 20 -42 47.5t-22 58.5t-9 64v28q0 18 1 35q2 60 17 137.5t41.5 154.5t63.5 143.5t84 103.5q11 5 20 5q2 0 4 -1q10 -1 22 -10q20 -17 30 -44t13 -58 q3 -25 3 -51v-15q-1 -33 -3 -61l31 61q16 31 34 57.5t37.5 47.5t40.5 33q12 7 31 5t30 -3q15 -3 22 -10.5t12 -21.5q2 -28 2 -55q0 -18 -1 -35q-2 -44 -8.5 -86.5t-16.5 -85.5l-20 -90q-20 -81 -43 -161t-51 -159q-7 -19 -20.5 -25.5t-26.5 -2.5t-21.5 16.5t-4.5 32.5 q39 113 71 226.5t53 231.5q7 33 12 67q4 24 4 49q0 10 -1 20q-43 -52 -75 -104t-57 -115q-5 -13 -9 -27.5t-10 -28t-14.5 -25t-21.5 -18.5q-14 -3 -22 -0.5t-18 10.5l-2 3q-2 3 -5 7t-5.5 8.5t-2.5 7.5q-3 21 -3 42t1 42q0 14 2 41t3 60q1 16 1 32t-1 32q-1 33 -6 57 q-31 -42 -56.5 -100t-43.5 -120.5t-28.5 -122.5t-12.5 -105q-1 -16 -1.5 -39t3 -46.5t12 -43.5t26.5 -30q7 -5 14.5 -6t15.5 -3zM345 353l4 -4q-2 1 -2.5 2t-1.5 2z" />
<glyph unicode="&#xb6;" horiz-adv-x="662" d="M214 37q12 -17 10 -33.5t-13 -25.5q-10 -10 -26 -10h-1q-17 1 -32 16q-16 21 -35.5 40t-27.5 44q-16 58 -17 104q-1 7 -1 13q0 39 8 75q9 43 27 87l41 98l29 67q16 33 28 67.5t18 70.5q3 17 3 35t-3 36q-2 16 3.5 28t15.5 18q9 5 19 5h4q13 -1 27 -10q1 -1 1 -1.5t1 -1.5 q28 -5 57.5 -4t58 -0.5t55.5 -10t51 -33.5q45 -47 57 -100q7 -35 7 -71q0 -19 -2 -38q-6 -57 -22 -115t-27 -113l-16 -83q-7 -41 -16 -83q-2 -14 -3.5 -30t-6.5 -30q0 -1 -0.5 -1.5t-0.5 0.5q-4 -17 -16 -25t-25 -7t-24 11t-13 30q0 20 4 38l8 37l17 96q9 49 19 97 q9 41 19 81t17 82q3 20 5.5 42.5t0.5 44.5t-10 41.5t-27 33.5q-17 13 -36.5 18t-39.5 6t-40.5 0t-39.5 1q-3 -47 -16 -92t-31 -89t-38 -87t-36 -87q-9 -24 -17.5 -52t-13 -56.5t-2.5 -57t15 -53.5q9 -18 23 -32t26 -31zM486 54q0 1 0.5 2t0.5 3q0 -2 -0.5 -3t-0.5 -2z" />
<glyph unicode="&#xe16;" horiz-adv-x="662" d="M214 37q12 -17 10 -33.5t-13 -25.5q-10 -10 -26 -10h-1q-17 1 -32 16q-16 21 -35.5 40t-27.5 44q-16 58 -17 104q-1 7 -1 13q0 39 8 75q9 43 27 87l41 98l29 67q16 33 28 67.5t18 70.5q3 17 3 35t-3 36q-2 16 3.5 28t15.5 18q9 5 19 5h4q13 -1 27 -10q1 -1 1 -1.5t1 -1.5 q28 -5 57.5 -4t58 -0.5t55.5 -10t51 -33.5q45 -47 57 -100q7 -35 7 -71q0 -19 -2 -38q-6 -57 -22 -115t-27 -113l-16 -83q-7 -41 -16 -83q-2 -14 -3.5 -30t-6.5 -30q0 -1 -0.5 -1.5t-0.5 0.5q-4 -17 -16 -25t-25 -7t-24 11t-13 30q0 20 4 38l8 37l17 96q9 49 19 97 q9 41 19 81t17 82q3 20 5.5 42.5t0.5 44.5t-10 41.5t-27 33.5q-17 13 -36.5 18t-39.5 6t-40.5 0t-39.5 1q-3 -47 -16 -92t-31 -89t-38 -87t-36 -87q-9 -24 -17.5 -52t-13 -56.5t-2.5 -57t15 -53.5q9 -18 23 -32t26 -31zM486 54q0 1 0.5 2t0.5 3q0 -2 -0.5 -3t-0.5 -2z" />
<glyph unicode="&#xb7;" horiz-adv-x="785" d="M169 610q-2 -2 -3.5 -5t-1.5 -5q-2 -5 -3 -10t-7 -9q-5 -16 -17 -23t-23 -7q-12 0 -22 10.5t-12 27.5q3 25 24 55.5t50.5 57.5t63.5 45t64 18q29 0 48 -19q9 -10 15.5 -21t11.5 -22q10 -19 13 -44.5t3 -54.5v-25q0 -13 -1 -26l9 -2q5 11 11 19l10 15q21 34 41 61t43 47 t50.5 33t62.5 19q8 0 17 -2.5t17 -8.5l6 -8l6 -8l17 -21q7 -10 12 -19h-1q8 -21 10.5 -43t2.5 -45q0 -8 -0.5 -16.5t-0.5 -17.5q-3 -139 -37.5 -273t-85.5 -267q-6 -15 -16.5 -23t-21.5 -8t-21 7t-16 20v-1q-2 7 -0.5 13t3.5 11q5 14 8.5 26.5t8.5 25.5l37 113 q18 54 30.5 108.5t20.5 112.5t10 127q1 29 -2 60t-21 56q-15 -1 -33 -16.5t-34.5 -35t-28.5 -37.5t-15 -24v1q-38 -56 -65.5 -107.5t-48 -101.5t-36.5 -100l-32 -104l-17 -57q-9 -29 -20 -61h1q-2 -3 -2 -8q-8 -14 -19 -20t-22 -6q-14 0 -25.5 12.5t-9.5 30.5q1 2 1 6 q0 1 0.5 1.5t0.5 1.5q0 2 2 8l11 43l10 44q5 18 8.5 36t8.5 35l9 33l10 35q22 74 40 151.5t18 152.5v18q0 9 -1 18q-3 30 -8.5 52t-16.5 20q-23 -5 -43.5 -20.5t-36.5 -31.5q-12 -12 -19 -22v-1zM170 54h10l-1 -5l-10 1z" />
<glyph unicode="&#x2219;" horiz-adv-x="785" d="M169 610q-2 -2 -3.5 -5t-1.5 -5q-2 -5 -3 -10t-7 -9q-5 -16 -17 -23t-23 -7q-12 0 -22 10.5t-12 27.5q3 25 24 55.5t50.5 57.5t63.5 45t64 18q29 0 48 -19q9 -10 15.5 -21t11.5 -22q10 -19 13 -44.5t3 -54.5v-25q0 -13 -1 -26l9 -2q5 11 11 19l10 15q21 34 41 61t43 47 t50.5 33t62.5 19q8 0 17 -2.5t17 -8.5l6 -8l6 -8l17 -21q7 -10 12 -19h-1q8 -21 10.5 -43t2.5 -45q0 -8 -0.5 -16.5t-0.5 -17.5q-3 -139 -37.5 -273t-85.5 -267q-6 -15 -16.5 -23t-21.5 -8t-21 7t-16 20v-1q-2 7 -0.5 13t3.5 11q5 14 8.5 26.5t8.5 25.5l37 113 q18 54 30.5 108.5t20.5 112.5t10 127q1 29 -2 60t-21 56q-15 -1 -33 -16.5t-34.5 -35t-28.5 -37.5t-15 -24v1q-38 -56 -65.5 -107.5t-48 -101.5t-36.5 -100l-32 -104l-17 -57q-9 -29 -20 -61h1q-2 -3 -2 -8q-8 -14 -19 -20t-22 -6q-14 0 -25.5 12.5t-9.5 30.5q1 2 1 6 q0 1 0.5 1.5t0.5 1.5q0 2 2 8l11 43l10 44q5 18 8.5 36t8.5 35l9 33l10 35q22 74 40 151.5t18 152.5v18q0 9 -1 18q-3 30 -8.5 52t-16.5 20q-23 -5 -43.5 -20.5t-36.5 -31.5q-12 -12 -19 -22v-1zM170 54h10l-1 -5l-10 1z" />
<glyph unicode="&#xe17;" horiz-adv-x="785" d="M169 610q-2 -2 -3.5 -5t-1.5 -5q-2 -5 -3 -10t-7 -9q-5 -16 -17 -23t-23 -7q-12 0 -22 10.5t-12 27.5q3 25 24 55.5t50.5 57.5t63.5 45t64 18q29 0 48 -19q9 -10 15.5 -21t11.5 -22q10 -19 13 -44.5t3 -54.5v-25q0 -13 -1 -26l9 -2q5 11 11 19l10 15q21 34 41 61t43 47 t50.5 33t62.5 19q8 0 17 -2.5t17 -8.5l6 -8l6 -8l17 -21q7 -10 12 -19h-1q8 -21 10.5 -43t2.5 -45q0 -8 -0.5 -16.5t-0.5 -17.5q-3 -139 -37.5 -273t-85.5 -267q-6 -15 -16.5 -23t-21.5 -8t-21 7t-16 20v-1q-2 7 -0.5 13t3.5 11q5 14 8.5 26.5t8.5 25.5l37 113 q18 54 30.5 108.5t20.5 112.5t10 127q1 29 -2 60t-21 56q-15 -1 -33 -16.5t-34.5 -35t-28.5 -37.5t-15 -24v1q-38 -56 -65.5 -107.5t-48 -101.5t-36.5 -100l-32 -104l-17 -57q-9 -29 -20 -61h1q-2 -3 -2 -8q-8 -14 -19 -20t-22 -6q-14 0 -25.5 12.5t-9.5 30.5q1 2 1 6 q0 1 0.5 1.5t0.5 1.5q0 2 2 8l11 43l10 44q5 18 8.5 36t8.5 35l9 33l10 35q22 74 40 151.5t18 152.5v18q0 9 -1 18q-3 30 -8.5 52t-16.5 20q-23 -5 -43.5 -20.5t-36.5 -31.5q-12 -12 -19 -22v-1zM170 54h10l-1 -5l-10 1z" />
<glyph unicode="&#xb8;" horiz-adv-x="717" d="M250 590q11 19 25.5 23.5t26.5 -2t18 -21.5t-1 -36l-7 -20l-8 -20l48 -35q24 -17 45.5 -36t39 -40.5t27.5 -47.5q8 -21 17.5 -42.5t11.5 -44.5q1 -13 1 -26q0 -28 -6 -52q-8 -36 -27 -66.5t-46 -55.5t-58 -44q-36 -22 -75 -30q-17 -3 -31 -3q-22 0 -41 7q-33 11 -53 43 q-17 28 -17 75v14q1 33 3.5 58.5t5.5 49.5t8 49.5t13 57.5q18 70 42 142q-26 22 -46 45.5t-24.5 48.5t10.5 52t59 56q12 8 25.5 14t27.5 13q17 8 36 13l36 10q33 8 70 11q29 3 56 3h15q51 -1 94.5 -11.5t88.5 -27.5q15 -11 19 -26q2 -6 2 -13t-3 -13q-4 -13 -16 -20.5 t-29 -5.5q-50 20 -105 30q-38 6 -76 6q-16 0 -32 -1q-54 -4 -105 -23t-95 -56l10 -12l10 -13q2 5 5 11.5t5 11.5zM275 437q-15 -43 -27.5 -87.5t-19.5 -89.5q-9 -48 -9 -94q0 -41 9 -80q5 -3 9.5 -6t9.5 -6l31 8q16 4 31 9q33 11 57 36t37 57q12 28 12 59q0 3 -1 7 q-1 35 -19 68q-9 15 -21 29t-25.5 27.5t-27.5 25.5l-26 22z" />
<glyph unicode="&#xe18;" horiz-adv-x="717" d="M250 590q11 19 25.5 23.5t26.5 -2t18 -21.5t-1 -36l-7 -20l-8 -20l48 -35q24 -17 45.5 -36t39 -40.5t27.5 -47.5q8 -21 17.5 -42.5t11.5 -44.5q1 -13 1 -26q0 -28 -6 -52q-8 -36 -27 -66.5t-46 -55.5t-58 -44q-36 -22 -75 -30q-17 -3 -31 -3q-22 0 -41 7q-33 11 -53 43 q-17 28 -17 75v14q1 33 3.5 58.5t5.5 49.5t8 49.5t13 57.5q18 70 42 142q-26 22 -46 45.5t-24.5 48.5t10.5 52t59 56q12 8 25.5 14t27.5 13q17 8 36 13l36 10q33 8 70 11q29 3 56 3h15q51 -1 94.5 -11.5t88.5 -27.5q15 -11 19 -26q2 -6 2 -13t-3 -13q-4 -13 -16 -20.5 t-29 -5.5q-50 20 -105 30q-38 6 -76 6q-16 0 -32 -1q-54 -4 -105 -23t-95 -56l10 -12l10 -13q2 5 5 11.5t5 11.5zM275 437q-15 -43 -27.5 -87.5t-19.5 -89.5q-9 -48 -9 -94q0 -41 9 -80q5 -3 9.5 -6t9.5 -6l31 8q16 4 31 9q33 11 57 36t37 57q12 28 12 59q0 3 -1 7 q-1 35 -19 68q-9 15 -21 29t-25.5 27.5t-27.5 25.5l-26 22z" />
<glyph unicode="&#xb9;" horiz-adv-x="731" d="M188 433q6 27 11.5 56.5t7.5 59t-1.5 58.5t-15.5 56q-13 5 -21 17.5t-4 32.5q4 17 21 27q11 4 19 4.5t19 -3.5q22 -13 35.5 -36.5t20 -51t7.5 -55.5t-1 -50q-8 -86 -32 -169l-45 -166q27 32 57.5 61.5t65.5 49.5l18 10l17 8q11 59 28 116t39 113l16 41q10 26 22 53 t26 51.5t28 38.5q16 13 31 13q5 0 11 -2q20 -6 28 -32v-2q0 -15 -7 -25q1 0 -1 -2q-2 -4 -4 -5q-2 -5 -4.5 -8.5t-4.5 -8.5q-7 -14 -14.5 -27t-14.5 -27l-10 -21l-11 -26l-11 -27l-10 -22q-32 -85 -49 -175q6 1 12 1q28 0 55 -13q34 -14 58 -39.5t36 -58.5q6 -19 6 -39 q0 -15 -4 -31q-8 -29 -19 -61.5t-27.5 -62t-39.5 -53.5t-54 -36q-14 -5 -29 -4.5t-30 -0.5q-12 2 -18.5 5.5t-15.5 11.5q-8 16 -18 31t-15 32q-8 25 -8 51q0 12 2 24q5 39 8 77q1 13 1.5 26t0.5 26q-22 -16 -49 -41.5t-52.5 -55t-47 -59.5t-33.5 -55v-1h-1q-2 -3 -2.5 -6 t-1.5 -5q-10 -12 -22 -15.5t-23 -0.5t-19 12.5t-10 25.5q6 51 17 100t24 97l26 95q14 48 26 98zM533 236q-14 26 -39 35q-19 7 -39 7q-6 0 -13 -1q-6 -49 -9 -95l-6 -72v-11q0 -30 14 -59q21 2 41.5 26t35 56t19.5 64q2 11 2 21q0 17 -6 29z" />
<glyph unicode="&#xe19;" horiz-adv-x="731" d="M188 433q6 27 11.5 56.5t7.5 59t-1.5 58.5t-15.5 56q-13 5 -21 17.5t-4 32.5q4 17 21 27q11 4 19 4.5t19 -3.5q22 -13 35.5 -36.5t20 -51t7.5 -55.5t-1 -50q-8 -86 -32 -169l-45 -166q27 32 57.5 61.5t65.5 49.5l18 10l17 8q11 59 28 116t39 113l16 41q10 26 22 53 t26 51.5t28 38.5q16 13 31 13q5 0 11 -2q20 -6 28 -32v-2q0 -15 -7 -25q1 0 -1 -2q-2 -4 -4 -5q-2 -5 -4.5 -8.5t-4.5 -8.5q-7 -14 -14.5 -27t-14.5 -27l-10 -21l-11 -26l-11 -27l-10 -22q-32 -85 -49 -175q6 1 12 1q28 0 55 -13q34 -14 58 -39.5t36 -58.5q6 -19 6 -39 q0 -15 -4 -31q-8 -29 -19 -61.5t-27.5 -62t-39.5 -53.5t-54 -36q-14 -5 -29 -4.5t-30 -0.5q-12 2 -18.5 5.5t-15.5 11.5q-8 16 -18 31t-15 32q-8 25 -8 51q0 12 2 24q5 39 8 77q1 13 1.5 26t0.5 26q-22 -16 -49 -41.5t-52.5 -55t-47 -59.5t-33.5 -55v-1h-1q-2 -3 -2.5 -6 t-1.5 -5q-10 -12 -22 -15.5t-23 -0.5t-19 12.5t-10 25.5q6 51 17 100t24 97l26 95q14 48 26 98zM533 236q-14 26 -39 35q-19 7 -39 7q-6 0 -13 -1q-6 -49 -9 -95l-6 -72v-11q0 -30 14 -59q21 2 41.5 26t35 56t19.5 64q2 11 2 21q0 17 -6 29z" />
<glyph unicode="&#xba;" horiz-adv-x="752" d="M134 596q-12 -14 -26 -17t-25 3t-17 18q-5 9 -5 20q0 5 1 11q16 30 30 51t31 34.5t40.5 21t58.5 10.5h6q12 0 22 -6q11 -8 20 -20.5t14.5 -27.5t9.5 -27q2 -31 2 -62q0 -23 -1 -45q-3 -52 -10.5 -103t-18.5 -103l-20 -105q-3 -18 -9 -40t-10.5 -45.5t-6 -46.5t3.5 -43 l3 -6l4 -4q1 0 1 -1q25 -9 61 -7.5t70.5 8t61.5 15.5t33 16q10 4 21.5 36.5t24.5 83t27 113.5l29 130l28 130q15 64 30 116q4 21 17 30t27 7.5t24.5 -13.5t9.5 -33q-22 -107 -49.5 -206t-52.5 -205q-7 -30 -13.5 -65.5t-17 -70.5t-26 -66.5t-39.5 -53.5q-15 -14 -43.5 -25.5 t-63.5 -18.5t-73 -8q-7 -1 -14 -1q-30 0 -58 5q-33 7 -59.5 23t-37.5 43q-11 25 -10.5 54.5t6 59.5t13 59t12.5 53l10 46l10 54q6 28 10.5 54.5t7.5 46.5q3 18 6.5 43.5t5.5 52.5t-0.5 53t-11.5 44q-8 0 -18.5 -3.5t-20.5 -13.5q-8 -13 -17.5 -26t-17.5 -27z" />
<glyph unicode="&#xe1a;" horiz-adv-x="752" d="M134 596q-12 -14 -26 -17t-25 3t-17 18q-5 9 -5 20q0 5 1 11q16 30 30 51t31 34.5t40.5 21t58.5 10.5h6q12 0 22 -6q11 -8 20 -20.5t14.5 -27.5t9.5 -27q2 -31 2 -62q0 -23 -1 -45q-3 -52 -10.5 -103t-18.5 -103l-20 -105q-3 -18 -9 -40t-10.5 -45.5t-6 -46.5t3.5 -43 l3 -6l4 -4q1 0 1 -1q25 -9 61 -7.5t70.5 8t61.5 15.5t33 16q10 4 21.5 36.5t24.5 83t27 113.5l29 130l28 130q15 64 30 116q4 21 17 30t27 7.5t24.5 -13.5t9.5 -33q-22 -107 -49.5 -206t-52.5 -205q-7 -30 -13.5 -65.5t-17 -70.5t-26 -66.5t-39.5 -53.5q-15 -14 -43.5 -25.5 t-63.5 -18.5t-73 -8q-7 -1 -14 -1q-30 0 -58 5q-33 7 -59.5 23t-37.5 43q-11 25 -10.5 54.5t6 59.5t13 59t12.5 53l10 46l10 54q6 28 10.5 54.5t7.5 46.5q3 18 6.5 43.5t5.5 52.5t-0.5 53t-11.5 44q-8 0 -18.5 -3.5t-20.5 -13.5q-8 -13 -17.5 -26t-17.5 -27z" />
<glyph unicode="&#xbb;" horiz-adv-x="814" d="M147 589q-12 -14 -26 -17t-25 3t-18 19q-4 8 -4 19q0 5 1 11q16 30 30 51t31 34.5t40.5 21t58.5 10.5q16 2 27.5 -6t20.5 -20.5t14.5 -27.5t9.5 -27q2 -29 2 -57q0 -24 -1 -47q-4 -48 -12.5 -95.5t-20 -95.5t-21.5 -102q-3 -18 -9 -40t-10.5 -45.5t-6 -46.5t3.5 -43l3 -6 l4 -4q1 0 1 -1q20 -7 52 -7h14q41 2 82 9.5t73.5 17t38.5 16.5q7 3 17.5 33.5t23 79t26.5 112.5l29 133l29 143l29 138l27 124q13 56 24 95q4 21 17 30q11 8 23 8q2 0 4 -1q14 -1 24.5 -13t9.5 -33q-7 -36 -19 -89l-24 -115l-29 -126l-29 -128l-26 -114l-20 -88 q-7 -30 -13.5 -65.5t-17 -70.5t-26 -66.5t-39.5 -53.5q-15 -14 -46 -26t-70 -19.5t-81 -8.5q-8 -1 -17 -1q-32 0 -62 5q-38 6 -67 21.5t-40 42.5q-11 25 -10.5 54.5t6 59.5t13 59t12.5 53q4 20 10 43l12 47q7 23 12.5 46.5t8.5 43.5q3 18 6.5 43.5t5.5 52.5t-0.5 53 t-11.5 44q-8 0 -18.5 -3.5t-20.5 -13.5q-8 -13 -17.5 -26t-17.5 -27z" />
<glyph unicode="&#xe1b;" horiz-adv-x="814" d="M147 589q-12 -14 -26 -17t-25 3t-18 19q-4 8 -4 19q0 5 1 11q16 30 30 51t31 34.5t40.5 21t58.5 10.5q16 2 27.5 -6t20.5 -20.5t14.5 -27.5t9.5 -27q2 -29 2 -57q0 -24 -1 -47q-4 -48 -12.5 -95.5t-20 -95.5t-21.5 -102q-3 -18 -9 -40t-10.5 -45.5t-6 -46.5t3.5 -43l3 -6 l4 -4q1 0 1 -1q20 -7 52 -7h14q41 2 82 9.5t73.5 17t38.5 16.5q7 3 17.5 33.5t23 79t26.5 112.5l29 133l29 143l29 138l27 124q13 56 24 95q4 21 17 30q11 8 23 8q2 0 4 -1q14 -1 24.5 -13t9.5 -33q-7 -36 -19 -89l-24 -115l-29 -126l-29 -128l-26 -114l-20 -88 q-7 -30 -13.5 -65.5t-17 -70.5t-26 -66.5t-39.5 -53.5q-15 -14 -46 -26t-70 -19.5t-81 -8.5q-8 -1 -17 -1q-32 0 -62 5q-38 6 -67 21.5t-40 42.5q-11 25 -10.5 54.5t6 59.5t13 59t12.5 53q4 20 10 43l12 47q7 23 12.5 46.5t8.5 43.5q3 18 6.5 43.5t5.5 52.5t-0.5 53 t-11.5 44q-8 0 -18.5 -3.5t-20.5 -13.5q-8 -13 -17.5 -26t-17.5 -27z" />
<glyph unicode="&#xbc;" horiz-adv-x="811" d="M397 729q4 -18 -1 -31t-15 -20t-22.5 -6.5t-23.5 9.5q-21 -3 -37.5 -19t-29.5 -39.5t-22.5 -51.5t-16 -54.5t-11 -49.5t-6.5 -36q-2 -16 -4.5 -32t-4.5 -33q-4 -28 -7 -62.5t-4 -63.5v-26q0 -18 1 -36l2 -36q1 -17 4 -26q27 48 51 102l47 102l14 27q9 17 20.5 36t26 36 t30.5 26t32.5 7.5t32.5 -20.5q21 -24 29 -54.5t10 -63.5v-22q0 -22 -2 -44q-3 -33 -4 -61q-1 -14 -1 -28t2 -28q40 101 60 207l40 212q4 22 8 51t10.5 58.5t16 57t24.5 46.5q15 12 30 13h1q14 0 23 -8q10 -8 14 -22q2 -6 2 -13q0 -9 -4 -20l-2 -2l-2 -4q-1 -3 -3 -11 q-23 -79 -38 -157t-29 -159q-4 -20 -7 -40.5t-8 -40.5t-9 -39t-10 -39q-2 -10 -8 -31.5t-14.5 -48t-20.5 -53.5t-27 -48t-32.5 -31.5t-38.5 -4.5q-28 9 -40 41.5t-15 71.5q-2 23 -2 47q0 15 1 30q2 39 2 60q1 20 1.5 40t-3.5 39q-2 10 -3 14q-10 -16 -18 -33l-16 -30 q-16 -33 -31.5 -71.5t-34 -76.5t-41 -72.5t-52.5 -58.5q-14 -9 -26 -9h-5q-13 2 -28 16q-27 34 -32.5 78t-7.5 86q-1 19 -1 41q0 32 2 71q3 63 12.5 128t25 126t38.5 105q21 42 53 74q14 13 36.5 25.5t46 17t43.5 -2t29 -32.5zM391 379l1 -2q0 1 -0.5 1t-0.5 1z" />
<glyph unicode="&#xe1c;" horiz-adv-x="811" d="M397 729q4 -18 -1 -31t-15 -20t-22.5 -6.5t-23.5 9.5q-21 -3 -37.5 -19t-29.5 -39.5t-22.5 -51.5t-16 -54.5t-11 -49.5t-6.5 -36q-2 -16 -4.5 -32t-4.5 -33q-4 -28 -7 -62.5t-4 -63.5v-26q0 -18 1 -36l2 -36q1 -17 4 -26q27 48 51 102l47 102l14 27q9 17 20.5 36t26 36 t30.5 26t32.5 7.5t32.5 -20.5q21 -24 29 -54.5t10 -63.5v-22q0 -22 -2 -44q-3 -33 -4 -61q-1 -14 -1 -28t2 -28q40 101 60 207l40 212q4 22 8 51t10.5 58.5t16 57t24.5 46.5q15 12 30 13h1q14 0 23 -8q10 -8 14 -22q2 -6 2 -13q0 -9 -4 -20l-2 -2l-2 -4q-1 -3 -3 -11 q-23 -79 -38 -157t-29 -159q-4 -20 -7 -40.5t-8 -40.5t-9 -39t-10 -39q-2 -10 -8 -31.5t-14.5 -48t-20.5 -53.5t-27 -48t-32.5 -31.5t-38.5 -4.5q-28 9 -40 41.5t-15 71.5q-2 23 -2 47q0 15 1 30q2 39 2 60q1 20 1.5 40t-3.5 39q-2 10 -3 14q-10 -16 -18 -33l-16 -30 q-16 -33 -31.5 -71.5t-34 -76.5t-41 -72.5t-52.5 -58.5q-14 -9 -26 -9h-5q-13 2 -28 16q-27 34 -32.5 78t-7.5 86q-1 19 -1 41q0 32 2 71q3 63 12.5 128t25 126t38.5 105q21 42 53 74q14 13 36.5 25.5t46 17t43.5 -2t29 -32.5zM391 379l1 -2q0 1 -0.5 1t-0.5 1z" />
<glyph unicode="&#xbd;" horiz-adv-x="818" d="M399 662q0 -17 -8 -28t-19.5 -14.5t-24 1t-21.5 16.5l-14 -7q-8 -3 -13 -8q-31 -32 -49.5 -86.5t-28 -115.5t-11.5 -120q-2 -43 -2 -77v-26q0 -17 0.5 -45t6.5 -54q11 22 20 46t13 33q16 39 29.5 79.5t29 80t34 77.5t44.5 72q15 13 31 13q14 0 28 -10q10 -8 17 -12 t12 -15q9 -18 13 -41t6 -47t3 -48t3 -45q5 -42 11 -83t17 -83q4 7 9 23t9 34l9 33l6 24q12 52 20.5 104t15.5 105l13 104q7 53 15 105l10 57l13 68.5t13 69t11 56.5l6 30l7 29q-6 17 6 38l4 4l4 4q12 10 25 12q3 1 6 1q9 0 16 -4q10 -5 16.5 -16t5.5 -27q-5 -33 -14 -77 l-18 -89l-18 -89l-14 -77q-17 -107 -29.5 -215.5t-37.5 -214.5l-11 -43q-6 -28 -15 -57t-20.5 -54t-24.5 -37q-8 -8 -15.5 -8.5t-19.5 -3.5q-16 -3 -25.5 0.5t-21.5 14.5q-23 40 -34.5 83.5t-18 88t-10 90t-10.5 90.5q-17 -38 -31 -77l-29 -80q-14 -39 -29.5 -78t-34.5 -76 q-12 -23 -25.5 -43t-37.5 -29q-7 -1 -13 -1h-5q-8 1 -19 6q-20 18 -31 42.5t-17 51.5t-7.5 55t-1.5 52v14q0 100 13 199q14 106 55 206q9 22 28 46t42.5 40t50 20t51.5 -13q14 -9 21 -18t10 -26zM689 989q0 -2 -0.5 -3t-0.5 -3q2 3 2 6q0 1 -1 0zM687 980v-1v1z" />
<glyph unicode="&#xe1d;" horiz-adv-x="818" d="M399 662q0 -17 -8 -28t-19.5 -14.5t-24 1t-21.5 16.5l-14 -7q-8 -3 -13 -8q-31 -32 -49.5 -86.5t-28 -115.5t-11.5 -120q-2 -43 -2 -77v-26q0 -17 0.5 -45t6.5 -54q11 22 20 46t13 33q16 39 29.5 79.5t29 80t34 77.5t44.5 72q15 13 31 13q14 0 28 -10q10 -8 17 -12 t12 -15q9 -18 13 -41t6 -47t3 -48t3 -45q5 -42 11 -83t17 -83q4 7 9 23t9 34l9 33l6 24q12 52 20.5 104t15.5 105l13 104q7 53 15 105l10 57l13 68.5t13 69t11 56.5l6 30l7 29q-6 17 6 38l4 4l4 4q12 10 25 12q3 1 6 1q9 0 16 -4q10 -5 16.5 -16t5.5 -27q-5 -33 -14 -77 l-18 -89l-18 -89l-14 -77q-17 -107 -29.5 -215.5t-37.5 -214.5l-11 -43q-6 -28 -15 -57t-20.5 -54t-24.5 -37q-8 -8 -15.5 -8.5t-19.5 -3.5q-16 -3 -25.5 0.5t-21.5 14.5q-23 40 -34.5 83.5t-18 88t-10 90t-10.5 90.5q-17 -38 -31 -77l-29 -80q-14 -39 -29.5 -78t-34.5 -76 q-12 -23 -25.5 -43t-37.5 -29q-7 -1 -13 -1h-5q-8 1 -19 6q-20 18 -31 42.5t-17 51.5t-7.5 55t-1.5 52v14q0 100 13 199q14 106 55 206q9 22 28 46t42.5 40t50 20t51.5 -13q14 -9 21 -18t10 -26zM689 989q0 -2 -0.5 -3t-0.5 -3q2 3 2 6q0 1 -1 0zM687 980v-1v1z" />
<glyph unicode="&#xbe;" horiz-adv-x="765" d="M152 709q4 21 17 30t27 7.5t25 -13.5t10 -33q-5 -91 -13.5 -181t-14.5 -181q-4 -45 -7 -92q-2 -25 -2 -49q0 -22 1 -43q19 57 33.5 115.5t31 116t38.5 112t57 104.5q15 13 31 13q14 0 28 -10l4 -5q3 -4 7.5 -9t8.5 -10.5t5 -8.5q7 -15 11 -42.5t6 -63t2 -75.5 q1 -13 1 -27q0 -26 -1 -52l-2 -76q-1 -37 -2 -65q7 24 12.5 49.5t9.5 49.5l9 47q4 22 8 40q12 52 27 103l31 100q15 51 26.5 102.5t14.5 104.5q4 21 17 30q11 8 23 8q2 0 4 -1q14 -1 25 -13q10 -11 10 -30q0 -46 -15 -111q-12 -53 -27 -105l-31 -104q-16 -52 -28 -106 q-8 -35 -15.5 -78.5t-18 -87.5t-25.5 -84.5t-37 -67.5q-11 -12 -20.5 -16t-25.5 -2q-20 6 -30.5 18t-16 28.5t-6.5 34.5t-1 36l2 178v35q0 70 -3 141v-1l-20 -59q-10 -29 -18 -60q-11 -41 -23 -81.5t-23 -81.5l-13 -49q-9 -30 -21 -60.5t-27 -55t-33 -31.5q-6 -1 -12 -1 q-11 0 -19 4q-12 6 -22 23q-16 39 -21.5 80.5t-5.5 83.5t3 84l6 83q6 91 14.5 180.5t13.5 180.5z" />
<glyph unicode="&#xe1e;" horiz-adv-x="765" d="M152 709q4 21 17 30t27 7.5t25 -13.5t10 -33q-5 -91 -13.5 -181t-14.5 -181q-4 -45 -7 -92q-2 -25 -2 -49q0 -22 1 -43q19 57 33.5 115.5t31 116t38.5 112t57 104.5q15 13 31 13q14 0 28 -10l4 -5q3 -4 7.5 -9t8.5 -10.5t5 -8.5q7 -15 11 -42.5t6 -63t2 -75.5 q1 -13 1 -27q0 -26 -1 -52l-2 -76q-1 -37 -2 -65q7 24 12.5 49.5t9.5 49.5l9 47q4 22 8 40q12 52 27 103l31 100q15 51 26.5 102.5t14.5 104.5q4 21 17 30q11 8 23 8q2 0 4 -1q14 -1 25 -13q10 -11 10 -30q0 -46 -15 -111q-12 -53 -27 -105l-31 -104q-16 -52 -28 -106 q-8 -35 -15.5 -78.5t-18 -87.5t-25.5 -84.5t-37 -67.5q-11 -12 -20.5 -16t-25.5 -2q-20 6 -30.5 18t-16 28.5t-6.5 34.5t-1 36l2 178v35q0 70 -3 141v-1l-20 -59q-10 -29 -18 -60q-11 -41 -23 -81.5t-23 -81.5l-13 -49q-9 -30 -21 -60.5t-27 -55t-33 -31.5q-6 -1 -12 -1 q-11 0 -19 4q-12 6 -22 23q-16 39 -21.5 80.5t-5.5 83.5t3 84l6 83q6 91 14.5 180.5t13.5 180.5z" />
<glyph unicode="&#xbf;" horiz-adv-x="818" d="M158 671v7q0 3 1 6q-6 15 -2.5 28t13.5 20t24 7.5t28 -9.5q10 -12 14 -23.5t3.5 -23.5t-3 -24.5t-3.5 -26.5q-1 -12 -3 -31.5t-3.5 -39.5t-3 -37.5t-1.5 -24.5q-8 -100 -12 -199q-1 -30 -1 -60q0 -70 6 -140q18 38 32.5 77.5t26.5 79.5l25 80q12 40 27 79q6 15 13 35.5 t16.5 41t22 36t29.5 19.5q16 1 25.5 -3.5t18.5 -18.5q12 -30 15 -62.5t7 -64.5q4 -34 10.5 -79.5t12.5 -81.5q3 -21 6.5 -42.5t8.5 -42.5q12 30 22 72.5t18.5 84.5t14 77.5t8.5 51.5l18 107l16 92l16 87l18 85l19 92q10 49 23 106q8 13 20 20q9 5 18 5l4 -1q12 -1 21.5 -9.5 t13.5 -23.5q1 -3 1 -10q-2 -21 -8 -46l-10 -43q-14 -63 -25 -117.5t-20 -104.5l-17 -98q-8 -49 -18 -99l-20 -105l-25 -117l-10 -42l-10 -42l-12 -42q-7 -24 -19 -45.5t-29.5 -35.5t-42.5 -10q-21 3 -33 18q-16 21 -22.5 46t-11.5 51q-11 54 -19 108l-14 108 q-12 -36 -28 -90.5t-35.5 -109.5t-41 -100.5t-42.5 -63.5q-8 -6 -20 -10l-21 -7q-6 -1 -12 -1q-11 0 -19 4q-12 6 -22 23q-18 54 -24 116q-5 50 -5 102v26q2 64 7.5 127.5t9.5 119.5q0 2 0.5 22.5t2 47t4.5 52.5t8 40z" />
<glyph unicode="&#xe1f;" horiz-adv-x="818" d="M158 671v7q0 3 1 6q-6 15 -2.5 28t13.5 20t24 7.5t28 -9.5q10 -12 14 -23.5t3.5 -23.5t-3 -24.5t-3.5 -26.5q-1 -12 -3 -31.5t-3.5 -39.5t-3 -37.5t-1.5 -24.5q-8 -100 -12 -199q-1 -30 -1 -60q0 -70 6 -140q18 38 32.5 77.5t26.5 79.5l25 80q12 40 27 79q6 15 13 35.5 t16.5 41t22 36t29.5 19.5q16 1 25.5 -3.5t18.5 -18.5q12 -30 15 -62.5t7 -64.5q4 -34 10.5 -79.5t12.5 -81.5q3 -21 6.5 -42.5t8.5 -42.5q12 30 22 72.5t18.5 84.5t14 77.5t8.5 51.5l18 107l16 92l16 87l18 85l19 92q10 49 23 106q8 13 20 20q9 5 18 5l4 -1q12 -1 21.5 -9.5 t13.5 -23.5q1 -3 1 -10q-2 -21 -8 -46l-10 -43q-14 -63 -25 -117.5t-20 -104.5l-17 -98q-8 -49 -18 -99l-20 -105l-25 -117l-10 -42l-10 -42l-12 -42q-7 -24 -19 -45.5t-29.5 -35.5t-42.5 -10q-21 3 -33 18q-16 21 -22.5 46t-11.5 51q-11 54 -19 108l-14 108 q-12 -36 -28 -90.5t-35.5 -109.5t-41 -100.5t-42.5 -63.5q-8 -6 -20 -10l-21 -7q-6 -1 -12 -1q-11 0 -19 4q-12 6 -22 23q-18 54 -24 116q-5 50 -5 102v26q2 64 7.5 127.5t9.5 119.5q0 2 0.5 22.5t2 47t4.5 52.5t8 40z" />
<glyph unicode="&#xc0;" horiz-adv-x="733" d="M41 36q-18 10 -23 25q-3 8 -3 15t2 13q5 13 19 20.5t34 1.5l27 -11l27 -12q8 5 16.5 8t13.5 10q13 18 23 41t17 47t12 48l9 43q20 107 25 215t7 216q2 12 6 18.5t13 14.5q15 7 32.5 9t35 2t34.5 -1l34 -2q116 -4 170.5 -66.5t59.5 -176.5q1 -13 1 -25q0 -53 -14 -107 l-34 -128q-16 -60 -28 -118t-14 -120q-6 -17 -19 -24q-10 -7 -20 -7l-4 1q-13 1 -23.5 11t-12.5 28q2 57 13.5 110.5t25.5 105.5l27 105q13 52 19 106q3 25 4 55t-4.5 58.5t-19.5 53t-40 39.5q-11 6 -23 9.5t-24 8.5q-29 2 -58 3t-58 0q-2 -134 -15 -264.5t-47 -261.5 q-5 -21 -16.5 -46.5t-29 -48t-40 -38.5t-49.5 -17q-23 -1 -44.5 11.5t-43.5 21.5z" />
<glyph unicode="&#xe20;" horiz-adv-x="733" d="M41 36q-18 10 -23 25q-3 8 -3 15t2 13q5 13 19 20.5t34 1.5l27 -11l27 -12q8 5 16.5 8t13.5 10q13 18 23 41t17 47t12 48l9 43q20 107 25 215t7 216q2 12 6 18.5t13 14.5q15 7 32.5 9t35 2t34.5 -1l34 -2q116 -4 170.5 -66.5t59.5 -176.5q1 -13 1 -25q0 -53 -14 -107 l-34 -128q-16 -60 -28 -118t-14 -120q-6 -17 -19 -24q-10 -7 -20 -7l-4 1q-13 1 -23.5 11t-12.5 28q2 57 13.5 110.5t25.5 105.5l27 105q13 52 19 106q3 25 4 55t-4.5 58.5t-19.5 53t-40 39.5q-11 6 -23 9.5t-24 8.5q-29 2 -58 3t-58 0q-2 -134 -15 -264.5t-47 -261.5 q-5 -21 -16.5 -46.5t-29 -48t-40 -38.5t-49.5 -17q-23 -1 -44.5 11.5t-43.5 21.5z" />
<glyph unicode="&#xc1;" horiz-adv-x="776" d="M165 546q-6 -17 -18.5 -24.5t-25 -6t-23 11.5t-12.5 28q4 23 8.5 41.5t18.5 37.5q13 18 33.5 39t45 40t51.5 32t52.5 15.5t47.5 -9.5t38 -43q13 -27 18.5 -67.5t5.5 -87.5t-4.5 -96t-10.5 -94q5 -4 9.5 -8t8.5 -8q32 -35 56 -80q17 71 38 140l44 141q15 48 26.5 97.5 t29.5 95.5q14 23 36 25h3q20 0 34 -22q1 -1 1 -2q2 -8 2 -15q0 -11 -4 -20v-1q-21 -83 -48 -165l-50 -164q-25 -82 -44 -165.5t-25 -170.5q-6 -15 -17 -22.5t-22.5 -7.5t-22 7t-15.5 21h-3v7q0 3 1 6q0 61 -10 110.5t-43 97.5q-2 -9 -3 -15q-6 -33 -11.5 -58.5t-12.5 -49.5 t-16.5 -48t-22.5 -53q-7 -15 -22 -24.5t-28 -20.5q-14 -8 -25 -9h-2q-10 0 -22 7q-17 11 -32 18t-28 21q-22 26 -30 60q-7 28 -7 57q0 5 1 11q1 35 9.5 69.5t19.5 62.5q11 31 34 54.5t49 42.5q20 14 42 17t45 -2q3 31 4.5 57t3.5 43q1 9 3 34t1.5 53.5t-5 55t-16.5 38.5 q-23 -9 -46 -21.5t-42.5 -29t-33 -37.5t-17.5 -47zM229 70q15 13 26.5 38.5t21 59.5t16.5 73t12 78q-7 2 -14 2q-14 0 -25 -7q-22 -12 -35.5 -31.5t-21 -42.5t-10.5 -47.5t-5 -46.5v-7q0 -8 1 -15q2 -12 6 -22q1 -3 3.5 -7t5.5 -7l4 -7q2 -3 1 -4q10 -4 14 -7z" />
<glyph unicode="&#xe21;" horiz-adv-x="776" d="M165 546q-6 -17 -18.5 -24.5t-25 -6t-23 11.5t-12.5 28q4 23 8.5 41.5t18.5 37.5q13 18 33.5 39t45 40t51.5 32t52.5 15.5t47.5 -9.5t38 -43q13 -27 18.5 -67.5t5.5 -87.5t-4.5 -96t-10.5 -94q5 -4 9.5 -8t8.5 -8q32 -35 56 -80q17 71 38 140l44 141q15 48 26.5 97.5 t29.5 95.5q14 23 36 25h3q20 0 34 -22q1 -1 1 -2q2 -8 2 -15q0 -11 -4 -20v-1q-21 -83 -48 -165l-50 -164q-25 -82 -44 -165.5t-25 -170.5q-6 -15 -17 -22.5t-22.5 -7.5t-22 7t-15.5 21h-3v7q0 3 1 6q0 61 -10 110.5t-43 97.5q-2 -9 -3 -15q-6 -33 -11.5 -58.5t-12.5 -49.5 t-16.5 -48t-22.5 -53q-7 -15 -22 -24.5t-28 -20.5q-14 -8 -25 -9h-2q-10 0 -22 7q-17 11 -32 18t-28 21q-22 26 -30 60q-7 28 -7 57q0 5 1 11q1 35 9.5 69.5t19.5 62.5q11 31 34 54.5t49 42.5q20 14 42 17t45 -2q3 31 4.5 57t3.5 43q1 9 3 34t1.5 53.5t-5 55t-16.5 38.5 q-23 -9 -46 -21.5t-42.5 -29t-33 -37.5t-17.5 -47zM229 70q15 13 26.5 38.5t21 59.5t16.5 73t12 78q-7 2 -14 2q-14 0 -25 -7q-22 -12 -35.5 -31.5t-21 -42.5t-10.5 -47.5t-5 -46.5v-7q0 -8 1 -15q2 -12 6 -22q1 -3 3.5 -7t5.5 -7l4 -7q2 -3 1 -4q10 -4 14 -7z" />
<glyph unicode="&#xc2;" horiz-adv-x="794" d="M397 753h3q19 0 30 -10q12 -11 13.5 -25t-7.5 -27t-30 -17q-16 -2 -25 -3t-17.5 -2.5t-18.5 -4.5l-27 -10q-25 -9 -52.5 -22t-49.5 -30q-48 -36 -58.5 -67.5t3.5 -59.5t45 -53t66 -49t67 -48.5t47 -49.5q13 -21 20.5 -38t12.5 -32l71 175l73 176l17 42q9 23 20 45.5 t23.5 43t28.5 35.5q17 15 35 13t31 -22q1 -1 3 -5q2 -8 2 -16q0 -10 -4 -18q-7 -13 -20 -18q-11 -13 -20 -30.5t-17 -35.5l-14 -36l-13 -33l-75 -182l-75 -183q-7 -17 -12 -35t-11 -36.5t-14 -35.5t-21 -31q-14 -8 -26 -8q-5 0 -11 2q-16 5 -27 25q-5 25 -6.5 51t-4.5 51 t-10 48.5t-24 45.5q-20 27 -51.5 44.5t-58.5 37.5q-26 20 -57 48.5t-52.5 62.5t-28.5 71q-1 8 -1 16q0 29 18 58l19 33q6 10 10.5 15.5t13.5 13t30 26.5q14 14 30 23l34 19q42 22 84.5 34.5t88.5 17.5z" />
<glyph unicode="&#xe22;" horiz-adv-x="794" d="M397 753h3q19 0 30 -10q12 -11 13.5 -25t-7.5 -27t-30 -17q-16 -2 -25 -3t-17.5 -2.5t-18.5 -4.5l-27 -10q-25 -9 -52.5 -22t-49.5 -30q-48 -36 -58.5 -67.5t3.5 -59.5t45 -53t66 -49t67 -48.5t47 -49.5q13 -21 20.5 -38t12.5 -32l71 175l73 176l17 42q9 23 20 45.5 t23.5 43t28.5 35.5q17 15 35 13t31 -22q1 -1 3 -5q2 -8 2 -16q0 -10 -4 -18q-7 -13 -20 -18q-11 -13 -20 -30.5t-17 -35.5l-14 -36l-13 -33l-75 -182l-75 -183q-7 -17 -12 -35t-11 -36.5t-14 -35.5t-21 -31q-14 -8 -26 -8q-5 0 -11 2q-16 5 -27 25q-5 25 -6.5 51t-4.5 51 t-10 48.5t-24 45.5q-20 27 -51.5 44.5t-58.5 37.5q-26 20 -57 48.5t-52.5 62.5t-28.5 71q-1 8 -1 16q0 29 18 58l19 33q6 10 10.5 15.5t13.5 13t30 26.5q14 14 30 23l34 19q42 22 84.5 34.5t88.5 17.5z" />
<glyph unicode="&#xc3;" horiz-adv-x="485" d="M376 759q10 4 19 4q6 0 12 -2q14 -4 21 -14q8 -9 8 -23q0 -15 -13 -30q-28 -20 -53 -28.5t-46.5 -18t-39.5 -24.5t-31 -47q-12 -29 -11.5 -59.5t6.5 -61.5t14 -61.5t11 -58.5q3 -23 3.5 -47t1.5 -48v-12q0 -30 -8 -56q-10 -31 -26.5 -59t-37.5 -55l-41 -53 q-14 -16 -29 -17q-3 -1 -5 -1q-13 0 -23 7q-11 9 -15 24q-1 5 -1 9q0 12 8 25q22 30 38.5 49.5t28.5 38.5t19.5 41.5t11.5 57.5q2 18 2 37q0 28 -5 56q-9 46 -19 91.5t-13 91.5v13q0 40 15 79q15 37 36 57.5t47 34t55 26t60 34.5z" />
<glyph unicode="&#xe23;" horiz-adv-x="485" d="M376 759q10 4 19 4q6 0 12 -2q14 -4 21 -14q8 -9 8 -23q0 -15 -13 -30q-28 -20 -53 -28.5t-46.5 -18t-39.5 -24.5t-31 -47q-12 -29 -11.5 -59.5t6.5 -61.5t14 -61.5t11 -58.5q3 -23 3.5 -47t1.5 -48v-12q0 -30 -8 -56q-10 -31 -26.5 -59t-37.5 -55l-41 -53 q-14 -16 -29 -17q-3 -1 -5 -1q-13 0 -23 7q-11 9 -15 24q-1 5 -1 9q0 12 8 25q22 30 38.5 49.5t28.5 38.5t19.5 41.5t11.5 57.5q2 18 2 37q0 28 -5 56q-9 46 -19 91.5t-13 91.5v13q0 40 15 79q15 37 36 57.5t47 34t55 26t60 34.5z" />
<glyph unicode="&#xc4;" horiz-adv-x="720" d="M248 91q17 6 31 2t21.5 -14t7 -24.5t-12.5 -28.5q-11 -9 -22 -19.5t-25 -15.5q-26 -10 -45.5 -1t-33.5 27t-23 40.5t-13 40.5q-14 61 -15 112v10q0 45 8 87q8 47 23 95t35 105q5 14 11.5 30.5t11 33t5 33t-5.5 31.5q-2 4 -11 16l-18 23l-14 18q-5 7 3 0q-11 12 -14 24.5 t1 23t14.5 17.5t26.5 7q40 -9 89.5 -12t99 -9t93.5 -19.5t72 -41.5q45 -46 62 -98q16 -48 16 -99v-6q-1 -54 -14 -111l-26 -113l-52 -228l-56 -227l-35 -124q-18 -61 -48 -120q-12 -14 -26 -17q-5 -1 -9 -1q-9 0 -16 4q-11 6 -17.5 18.5t-3.5 30.5q21 41 37 85t28 89t22 91 l22 90l47 194l44 194l15 71q9 40 10 81v6q0 37 -10 70q-11 36 -43 60q-17 12 -41 20.5t-53 14t-61 9.5t-63 7q10 -18 13 -40q4 -26 -1.5 -57t-16 -63.5t-22.5 -62.5l-21 -55q-14 -38 -22.5 -78.5t-9.5 -82.5v-10q0 -36 6 -72q7 -40 25 -77q5 5 10 8.5t10 7.5z" />
<glyph unicode="&#xe24;" horiz-adv-x="720" d="M248 91q17 6 31 2t21.5 -14t7 -24.5t-12.5 -28.5q-11 -9 -22 -19.5t-25 -15.5q-26 -10 -45.5 -1t-33.5 27t-23 40.5t-13 40.5q-14 61 -15 112v10q0 45 8 87q8 47 23 95t35 105q5 14 11.5 30.5t11 33t5 33t-5.5 31.5q-2 4 -11 16l-18 23l-14 18q-5 7 3 0q-11 12 -14 24.5 t1 23t14.5 17.5t26.5 7q40 -9 89.5 -12t99 -9t93.5 -19.5t72 -41.5q45 -46 62 -98q16 -48 16 -99v-6q-1 -54 -14 -111l-26 -113l-52 -228l-56 -227l-35 -124q-18 -61 -48 -120q-12 -14 -26 -17q-5 -1 -9 -1q-9 0 -16 4q-11 6 -17.5 18.5t-3.5 30.5q21 41 37 85t28 89t22 91 l22 90l47 194l44 194l15 71q9 40 10 81v6q0 37 -10 70q-11 36 -43 60q-17 12 -41 20.5t-53 14t-61 9.5t-63 7q10 -18 13 -40q4 -26 -1.5 -57t-16 -63.5t-22.5 -62.5l-21 -55q-14 -38 -22.5 -78.5t-9.5 -82.5v-10q0 -36 6 -72q7 -40 25 -77q5 5 10 8.5t10 7.5z" />
<glyph unicode="&#xc5;" horiz-adv-x="701" d="M233 9q-6 -17 -19 -25q-10 -6 -20 -6h-4q-13 2 -23.5 12t-12.5 28q2 50 14 117t31.5 134.5t46 128t58.5 97.5q11 13 25 21.5t27 18.5q15 6 25.5 4.5t23.5 -10.5l17 -11q8 -5 15 -11q11 -10 19.5 -31.5t14.5 -50.5t10 -62t7 -66q9 45 14.5 90t7.5 91v13q0 26 -3 55 q-4 35 -19 64q-19 39 -54 48q-17 4 -35 4t-38 -5q-38 -9 -74 -29t-58 -39q-35 -30 -56.5 -65t-41.5 -77q-12 -14 -26 -17t-25 3t-18 19q-4 8 -4 19q0 5 1 11q23 49 49 87t64 76q54 54 122 77q51 17 106 17q17 0 34 -2q18 -2 34 -11l34 -16q19 -8 35.5 -26.5t22.5 -37.5 q20 -56 26 -112q3 -33 3 -66q0 -24 -2 -48q-4 -58 -15.5 -115t-26.5 -113q-3 -11 -9.5 -40t-17 -61.5t-25 -59t-31.5 -32.5q-19 -4 -31 2.5t-22 23.5q-4 17 -4 34q0 15 3 31q6 34 6 64v20q0 65 -6 130q-6 75 -32 146q-12 -9 -21 -21t-15.5 -26t-12.5 -29t-13 -29 q-38 -77 -57.5 -163.5t-23.5 -172.5z" />
<glyph unicode="&#xe25;" horiz-adv-x="701" d="M233 9q-6 -17 -19 -25q-10 -6 -20 -6h-4q-13 2 -23.5 12t-12.5 28q2 50 14 117t31.5 134.5t46 128t58.5 97.5q11 13 25 21.5t27 18.5q15 6 25.5 4.5t23.5 -10.5l17 -11q8 -5 15 -11q11 -10 19.5 -31.5t14.5 -50.5t10 -62t7 -66q9 45 14.5 90t7.5 91v13q0 26 -3 55 q-4 35 -19 64q-19 39 -54 48q-17 4 -35 4t-38 -5q-38 -9 -74 -29t-58 -39q-35 -30 -56.5 -65t-41.5 -77q-12 -14 -26 -17t-25 3t-18 19q-4 8 -4 19q0 5 1 11q23 49 49 87t64 76q54 54 122 77q51 17 106 17q17 0 34 -2q18 -2 34 -11l34 -16q19 -8 35.5 -26.5t22.5 -37.5 q20 -56 26 -112q3 -33 3 -66q0 -24 -2 -48q-4 -58 -15.5 -115t-26.5 -113q-3 -11 -9.5 -40t-17 -61.5t-25 -59t-31.5 -32.5q-19 -4 -31 2.5t-22 23.5q-4 17 -4 34q0 15 3 31q6 34 6 64v20q0 65 -6 130q-6 75 -32 146q-12 -9 -21 -21t-15.5 -26t-12.5 -29t-13 -29 q-38 -77 -57.5 -163.5t-23.5 -172.5z" />
<glyph unicode="&#xc6;" horiz-adv-x="744" d="M85 18q-18 10 -23 25q-3 8 -3 15t2 13q5 13 19 20.5t34 1.5q2 -1 3 -1t3 -1q20 29 37 74.5t31 100t25 113.5t18 116t11 107t4 87q-3 24 6 36t24 17t34 5h35q33 0 79.5 -4t90.5 -16.5t78 -38t43 -69.5q9 -45 9 -90v-17q-2 -53 -7 -107q-5 -78 -16 -154.5t-29 -152.5 q-10 -45 -24 -89.5t-26 -90.5q-9 -34 -14.5 -70t-10.5 -73t-12 -72.5t-20 -67.5q-10 -12 -22 -16q-8 -2 -14 -2q-5 0 -10 1q-11 3 -19 13t-10 26v7l3 12l2 7q2 14 5.5 29.5t6.5 26.5q0 2 0.5 1.5t-0.5 -2.5q10 51 17.5 102t20.5 101q12 45 26 89.5t25 90.5q17 73 27 146 t15 148q3 36 7 73q3 20 3 38q0 16 -2 32q-4 33 -22.5 58t-61.5 37q-35 10 -70 12t-71 3q-5 0 -9 -0.5t-9 -1.5q0 -13 -0.5 -25.5t-1.5 -25.5q-5 -70 -15 -139t-24 -138q-5 -25 -10.5 -49.5t-11.5 -48.5q-3 -13 -11 -41t-19 -60t-26.5 -63t-33.5 -51.5t-40 -24.5t-46 18z M427 -271q-2 -6 -3 -11q-1 -3 -0.5 -3.5t0.5 0.5q2 10 3 14zM427 -271v3v-3z" />
<glyph unicode="&#xe26;" horiz-adv-x="744" d="M85 18q-18 10 -23 25q-3 8 -3 15t2 13q5 13 19 20.5t34 1.5q2 -1 3 -1t3 -1q20 29 37 74.5t31 100t25 113.5t18 116t11 107t4 87q-3 24 6 36t24 17t34 5h35q33 0 79.5 -4t90.5 -16.5t78 -38t43 -69.5q9 -45 9 -90v-17q-2 -53 -7 -107q-5 -78 -16 -154.5t-29 -152.5 q-10 -45 -24 -89.5t-26 -90.5q-9 -34 -14.5 -70t-10.5 -73t-12 -72.5t-20 -67.5q-10 -12 -22 -16q-8 -2 -14 -2q-5 0 -10 1q-11 3 -19 13t-10 26v7l3 12l2 7q2 14 5.5 29.5t6.5 26.5q0 2 0.5 1.5t-0.5 -2.5q10 51 17.5 102t20.5 101q12 45 26 89.5t25 90.5q17 73 27 146 t15 148q3 36 7 73q3 20 3 38q0 16 -2 32q-4 33 -22.5 58t-61.5 37q-35 10 -70 12t-71 3q-5 0 -9 -0.5t-9 -1.5q0 -13 -0.5 -25.5t-1.5 -25.5q-5 -70 -15 -139t-24 -138q-5 -25 -10.5 -49.5t-11.5 -48.5q-3 -13 -11 -41t-19 -60t-26.5 -63t-33.5 -51.5t-40 -24.5t-46 18z M427 -271q-2 -6 -3 -11q-1 -3 -0.5 -3.5t0.5 0.5q2 10 3 14zM427 -271v3v-3z" />
<glyph unicode="&#xc7;" horiz-adv-x="623" d="M127 57v7q0 16 7 26q10 13 24 16t27.5 -4.5t19.5 -27.5q0 -2 2 -8q5 2 9 4.5t8 4.5q32 17 56 38t41 52q23 41 42.5 88t33.5 96.5t21 100.5q7 44 7 86v11q-1 40 -16.5 69t-40 42t-55 7t-61.5 -35q-15 -14 -22.5 -25t-11.5 -22.5t-6.5 -25.5t-6.5 -34q-7 -20 -21.5 -26.5 t-28 -2.5t-22.5 18q-6 9 -6 21q0 6 1 12q5 18 8 36.5t8 35.5q7 27 31.5 52.5t56.5 44t66 26.5q21 5 39 5q12 0 24 -2q43 -10 68.5 -26t40.5 -39.5t22 -54.5t13 -70q3 -18 3 -40q0 -16 -2 -33q-3 -42 -12.5 -88t-24.5 -93.5t-33.5 -91t-40 -79.5t-44.5 -59t-56.5 -46 t-67.5 -32q-14 -4 -27 -4q-19 0 -34 7q-28 13 -39 63z" />
<glyph unicode="&#xe27;" horiz-adv-x="623" d="M127 57v7q0 16 7 26q10 13 24 16t27.5 -4.5t19.5 -27.5q0 -2 2 -8q5 2 9 4.5t8 4.5q32 17 56 38t41 52q23 41 42.5 88t33.5 96.5t21 100.5q7 44 7 86v11q-1 40 -16.5 69t-40 42t-55 7t-61.5 -35q-15 -14 -22.5 -25t-11.5 -22.5t-6.5 -25.5t-6.5 -34q-7 -20 -21.5 -26.5 t-28 -2.5t-22.5 18q-6 9 -6 21q0 6 1 12q5 18 8 36.5t8 35.5q7 27 31.5 52.5t56.5 44t66 26.5q21 5 39 5q12 0 24 -2q43 -10 68.5 -26t40.5 -39.5t22 -54.5t13 -70q3 -18 3 -40q0 -16 -2 -33q-3 -42 -12.5 -88t-24.5 -93.5t-33.5 -91t-40 -79.5t-44.5 -59t-56.5 -46 t-67.5 -32q-14 -4 -27 -4q-19 0 -34 7q-28 13 -39 63z" />
<glyph unicode="&#xc8;" horiz-adv-x="799" d="M352 586q14 12 28.5 12.5t24.5 -7t14 -21.5t-2 -31q-48 -57 -78 -119.5t-52 -134.5q-10 -32 -18.5 -66.5t-19.5 -68.5t-26 -65.5t-39 -56.5q-13 -8 -24 -9h-2q-11 0 -23 7q-19 11 -29 37t-14 57q-4 27 -4 53v7q1 30 3 49q6 50 13 99l15 97q5 37 20 79.5t38 84t53 77.5 t66 57.5t78 26.5h14q36 0 74 -18q22 -10 40 -30t31.5 -44.5t23 -50t14.5 -47.5q5 26 9.5 52t9.5 52q5 23 10 56.5t11.5 68.5t14 67.5t16.5 54.5q10 16 24 21q8 3 15 3q6 0 11 -2q12 -4 19.5 -16t5.5 -29q0 1 0.5 1t0.5 -1q0 -13 -4.5 -25.5t-7.5 -26.5l-26 -125l-24 -125 q-13 -66 -23 -133t-19 -134l-18 -134q-10 -67 -22 -134q-6 -17 -18 -24.5t-24.5 -6.5t-23 10.5t-13.5 26.5h-1q0 4 1 6q0 54 5 104t9 100t5 101v13q0 45 -6 95q-2 12 -6 33t-11 44t-17 46t-24.5 40t-33 26t-42.5 4q-41 -8 -70.5 -36.5t-51 -68.5t-35.5 -88t-23 -95t-14 -89 l-10 -72q-2 -14 -2.5 -30t0.5 -32q14 38 23 78.5t19 71.5q25 78 57 146.5t85 131.5z" />
<glyph unicode="&#xe28;" horiz-adv-x="799" d="M352 586q14 12 28.5 12.5t24.5 -7t14 -21.5t-2 -31q-48 -57 -78 -119.5t-52 -134.5q-10 -32 -18.5 -66.5t-19.5 -68.5t-26 -65.5t-39 -56.5q-13 -8 -24 -9h-2q-11 0 -23 7q-19 11 -29 37t-14 57q-4 27 -4 53v7q1 30 3 49q6 50 13 99l15 97q5 37 20 79.5t38 84t53 77.5 t66 57.5t78 26.5h14q36 0 74 -18q22 -10 40 -30t31.5 -44.5t23 -50t14.5 -47.5q5 26 9.5 52t9.5 52q5 23 10 56.5t11.5 68.5t14 67.5t16.5 54.5q10 16 24 21q8 3 15 3q6 0 11 -2q12 -4 19.5 -16t5.5 -29q0 1 0.5 1t0.5 -1q0 -13 -4.5 -25.5t-7.5 -26.5l-26 -125l-24 -125 q-13 -66 -23 -133t-19 -134l-18 -134q-10 -67 -22 -134q-6 -17 -18 -24.5t-24.5 -6.5t-23 10.5t-13.5 26.5h-1q0 4 1 6q0 54 5 104t9 100t5 101v13q0 45 -6 95q-2 12 -6 33t-11 44t-17 46t-24.5 40t-33 26t-42.5 4q-41 -8 -70.5 -36.5t-51 -68.5t-35.5 -88t-23 -95t-14 -89 l-10 -72q-2 -14 -2.5 -30t0.5 -32q14 38 23 78.5t19 71.5q25 78 57 146.5t85 131.5z" />
<glyph unicode="&#xc9;" horiz-adv-x="822" d="M235 719q10 16 23 21q9 4 16 4q5 0 10 -2q12 -3 20.5 -15t7.5 -30q-17 -57 -23 -113.5t-17 -113.5q-10 -52 -23.5 -102.5t-22.5 -103.5l-7 -38q-4 -21 -5 -43t2.5 -43t15.5 -36q10 -14 29.5 -17.5t43.5 0.5t50 13t49.5 21t42 24t27.5 21q18 18 30.5 39.5t20.5 44.5 q8 20 13 40t9 40q-11 -5 -22 -8.5t-22 -6.5q-8 -2 -19 -3t-22 -1h-21h-12q-16 2 -24 8t-16 20q-5 12 -12.5 25t-7.5 27q2 41 17.5 82t38 80t50 74t53.5 64q11 12 24 20t26 17q15 5 25.5 4t23.5 -10l17 -12q7 -5 12 -16q7 -15 8 -37t-0.5 -46t-4.5 -47l-5 -39l-4 -31l-4 -32 q8 5 16.5 8.5t16.5 7.5q20 7 34.5 1t20.5 -19q4 -7 4 -16q0 -5 -2 -12q-4 -15 -22 -26l-40 -18l-39 -19q-7 -46 -17.5 -91.5t-29 -86t-47 -73.5t-71.5 -54q-40 -20 -81.5 -34t-79.5 -19q-17 -2 -32 -2q-20 0 -39 3q-32 7 -55.5 29t-36.5 60q-10 31 -10 75q0 11 1 22 q3 60 17 119l29 118q8 35 13 71l11 72q5 36 11 71t17 70zM453 391q27 1 53.5 8.5t52.5 19.5q2 14 3.5 29t3.5 29q5 38 12 76q5 33 5 66v10q-26 -25 -47 -53.5t-41 -64.5q-1 -2 -9.5 -17.5t-17 -35.5t-14.5 -39q-3 -11 -3 -19q0 -5 2 -9z" />
<glyph unicode="&#xe29;" horiz-adv-x="822" d="M235 719q10 16 23 21q9 4 16 4q5 0 10 -2q12 -3 20.5 -15t7.5 -30q-17 -57 -23 -113.5t-17 -113.5q-10 -52 -23.5 -102.5t-22.5 -103.5l-7 -38q-4 -21 -5 -43t2.5 -43t15.5 -36q10 -14 29.5 -17.5t43.5 0.5t50 13t49.5 21t42 24t27.5 21q18 18 30.5 39.5t20.5 44.5 q8 20 13 40t9 40q-11 -5 -22 -8.5t-22 -6.5q-8 -2 -19 -3t-22 -1h-21h-12q-16 2 -24 8t-16 20q-5 12 -12.5 25t-7.5 27q2 41 17.5 82t38 80t50 74t53.5 64q11 12 24 20t26 17q15 5 25.5 4t23.5 -10l17 -12q7 -5 12 -16q7 -15 8 -37t-0.5 -46t-4.5 -47l-5 -39l-4 -31l-4 -32 q8 5 16.5 8.5t16.5 7.5q20 7 34.5 1t20.5 -19q4 -7 4 -16q0 -5 -2 -12q-4 -15 -22 -26l-40 -18l-39 -19q-7 -46 -17.5 -91.5t-29 -86t-47 -73.5t-71.5 -54q-40 -20 -81.5 -34t-79.5 -19q-17 -2 -32 -2q-20 0 -39 3q-32 7 -55.5 29t-36.5 60q-10 31 -10 75q0 11 1 22 q3 60 17 119l29 118q8 35 13 71l11 72q5 36 11 71t17 70zM453 391q27 1 53.5 8.5t52.5 19.5q2 14 3.5 29t3.5 29q5 38 12 76q5 33 5 66v10q-26 -25 -47 -53.5t-41 -64.5q-1 -2 -9.5 -17.5t-17 -35.5t-14.5 -39q-3 -11 -3 -19q0 -5 2 -9z" />
<glyph unicode="&#xca;" horiz-adv-x="691" d="M148 -7q-28 -17 -42 -17h-5q-14 4 -17 20v14q0 12 2 26q4 24 6 43q5 35 13.5 68.5t19.5 67.5l15 42q7 17 19 40q11 22 32 51.5t48 57t57.5 48.5t60 26.5t56 -8.5t46.5 -56q7 -14 9.5 -29.5t4.5 -31.5q1 -7 1.5 -13t1.5 -12q16 60 22 118q1 18 1 35q0 39 -9 75 q-14 -14 -29 -14.5t-26 8t-14.5 23.5t7.5 33l10 14q5 7 11 14q-26 24 -61 34q-16 4 -33 4q-18 0 -36 -5q-14 -4 -24 -9t-18.5 -11.5t-16.5 -15t-19 -18.5q-5 -5 -10 -11l-10 -12q-5 -7 -10 -15q-7 -20 -21.5 -26.5t-28 -2.5t-22.5 17.5t-5 33.5q5 20 20.5 39.5t29.5 33.5 q76 72 158 81q10 1 19 1q73 0 142 -61q60 55 133 95t147 68q11 4 20 4q8 0 15 -3q14 -6 20 -19q4 -7 4 -16q0 -5 -2 -12q-4 -15 -22 -26q-69 -26 -139 -63.5t-127 -91.5q21 -44 24 -97q1 -17 1 -33q0 -37 -5 -76q-7 -55 -20.5 -106t-25.5 -90l-20 -61l-20 -61 q-6 -18 -10 -32.5t-9.5 -27t-14.5 -23t-25 -18.5q-23 -4 -37 6t-17 33l11 63q6 30 9.5 60t4.5 61q1 19 1 39v27q0 7 -1 24t-4 35t-8 33t-12 19q-10 -5 -18.5 -11t-17.5 -11q-37 -26 -63 -56t-44 -64.5t-30.5 -73t-23.5 -80.5q-4 -14 -5.5 -29t-4 -30t-6.5 -29t-13 -27z" />
<glyph unicode="&#xe2a;" horiz-adv-x="691" d="M148 -7q-28 -17 -42 -17h-5q-14 4 -17 20v14q0 12 2 26q4 24 6 43q5 35 13.5 68.5t19.5 67.5l15 42q7 17 19 40q11 22 32 51.5t48 57t57.5 48.5t60 26.5t56 -8.5t46.5 -56q7 -14 9.5 -29.5t4.5 -31.5q1 -7 1.5 -13t1.5 -12q16 60 22 118q1 18 1 35q0 39 -9 75 q-14 -14 -29 -14.5t-26 8t-14.5 23.5t7.5 33l10 14q5 7 11 14q-26 24 -61 34q-16 4 -33 4q-18 0 -36 -5q-14 -4 -24 -9t-18.5 -11.5t-16.5 -15t-19 -18.5q-5 -5 -10 -11l-10 -12q-5 -7 -10 -15q-7 -20 -21.5 -26.5t-28 -2.5t-22.5 17.5t-5 33.5q5 20 20.5 39.5t29.5 33.5 q76 72 158 81q10 1 19 1q73 0 142 -61q60 55 133 95t147 68q11 4 20 4q8 0 15 -3q14 -6 20 -19q4 -7 4 -16q0 -5 -2 -12q-4 -15 -22 -26q-69 -26 -139 -63.5t-127 -91.5q21 -44 24 -97q1 -17 1 -33q0 -37 -5 -76q-7 -55 -20.5 -106t-25.5 -90l-20 -61l-20 -61 q-6 -18 -10 -32.5t-9.5 -27t-14.5 -23t-25 -18.5q-23 -4 -37 6t-17 33l11 63q6 30 9.5 60t4.5 61q1 19 1 39v27q0 7 -1 24t-4 35t-8 33t-12 19q-10 -5 -18.5 -11t-17.5 -11q-37 -26 -63 -56t-44 -64.5t-30.5 -73t-23.5 -80.5q-4 -14 -5.5 -29t-4 -30t-6.5 -29t-13 -27z" />
<glyph unicode="&#xcb;" horiz-adv-x="709" d="M206 693q4 21 17 30t27 7.5t25 -13.5t10 -33q-5 -120 -25.5 -233.5t-46.5 -230.5q-3 -12 -5.5 -23t-4.5 -22l25 25l16 19l48 57l52 64q1 57 7 108t14 86q7 33 17 74.5t28.5 76.5t48.5 57q24 18 58 18q9 0 19 -1q15 -2 23 -11q1 0 7 -6l14 -12q7 -7 13.5 -14.5t9.5 -13.5 q7 -13 7 -31q0 -8 -2 -18q-5 -29 -16 -59t-25 -56l-22 -41q-27 -48 -57 -92l-63 -88q0 -43 3.5 -89t15 -85.5t32.5 -67.5t55 -35q20 -6 27.5 -19.5t4.5 -27.5t-15 -23q-11 -8 -27 -8h-7q-41 8 -70 32t-48.5 58.5t-30.5 77.5t-16 90l-60 -70l-61 -70q-8 -9 -18 -22t-21.5 -24 t-25 -18t-28.5 -4q-17 3 -25.5 18.5t-9.5 30.5q0 5 2 11l2 11q0 2 0.5 3.5t0.5 0.5q-3 -18 -2 -13.5t3 18.5l6 33q3 18 5 27q3 13 5 20l2 16q2 8 4 20l8 34q25 114 45 224.5t25 226.5zM441 511q-2 -11 -3.5 -23t-2.5 -24q34 53 58.5 105t31.5 101l-3 4l-4 3 q-22 -3 -36 -23.5t-22 -46.5t-12 -53t-7 -43z" />
<glyph unicode="&#xe2b;" horiz-adv-x="709" d="M206 693q4 21 17 30t27 7.5t25 -13.5t10 -33q-5 -120 -25.5 -233.5t-46.5 -230.5q-3 -12 -5.5 -23t-4.5 -22l25 25l16 19l48 57l52 64q1 57 7 108t14 86q7 33 17 74.5t28.5 76.5t48.5 57q24 18 58 18q9 0 19 -1q15 -2 23 -11q1 0 7 -6l14 -12q7 -7 13.5 -14.5t9.5 -13.5 q7 -13 7 -31q0 -8 -2 -18q-5 -29 -16 -59t-25 -56l-22 -41q-27 -48 -57 -92l-63 -88q0 -43 3.5 -89t15 -85.5t32.5 -67.5t55 -35q20 -6 27.5 -19.5t4.5 -27.5t-15 -23q-11 -8 -27 -8h-7q-41 8 -70 32t-48.5 58.5t-30.5 77.5t-16 90l-60 -70l-61 -70q-8 -9 -18 -22t-21.5 -24 t-25 -18t-28.5 -4q-17 3 -25.5 18.5t-9.5 30.5q0 5 2 11l2 11q0 2 0.5 3.5t0.5 0.5q-3 -18 -2 -13.5t3 18.5l6 33q3 18 5 27q3 13 5 20l2 16q2 8 4 20l8 34q25 114 45 224.5t25 226.5zM441 511q-2 -11 -3.5 -23t-2.5 -24q34 53 58.5 105t31.5 101l-3 4l-4 3 q-22 -3 -36 -23.5t-22 -46.5t-12 -53t-7 -43z" />
<glyph unicode="&#xcc;" horiz-adv-x="825" d="M168 704q5 21 18.5 30t27.5 7.5t24 -13.5t8 -33q-9 -79 -20.5 -157t-21.5 -157l-8 -66q-5 -34 -8 -69t-4 -69v-17q0 -25 2 -49q24 33 42.5 68t35.5 71l35 70q18 35 42 68q19 15 37 13t29 -22q19 -34 24 -72.5t6.5 -77.5t5 -78t19.5 -75h2q14 14 29 27.5t26 29.5 q18 26 31.5 68t23 92.5t15 105t7.5 104.5q-40 -12 -82 -18q-17 -2 -35.5 -2.5t-36.5 2.5t-33.5 11t-26.5 23q-18 27 -19 57.5t10 60t31.5 56t45.5 44.5q4 3 16.5 13.5t28 21.5t31.5 19q15 7 28 7h3q36 -4 58.5 -21t35.5 -41.5t18 -55t7 -61.5q26 12 52 27l49 29q18 6 31.5 2 t20.5 -14q6 -9 6 -21q0 -17 -14 -32q-67 -43 -144 -77q-1 -27 -3.5 -54t-3.5 -54q-2 -25 -6.5 -63t-13.5 -81t-22.5 -88t-32.5 -84t-44.5 -69t-58.5 -42q-6 -2 -15 -2q-5 -1 -9 -1l-9 1q-9 0 -16.5 0.5t-9.5 0.5q-15 2 -23 8t-15 20q-14 31 -21.5 57.5t-11.5 53t-6 54.5 l-3 62q-27 -63 -62 -120t-75 -114q-11 -12 -21 -16t-25 -2l-16 6q-7 3 -15 5q-9 6 -14.5 11.5t-10.5 15.5q-7 62 -7 125q0 21 1 41q3 84 13 167t23 166.5t24 166.5zM508 564q22 4 44 9t44 13q-2 39 -6 66q-2 14 -8.5 27.5t-11.5 27.5q-4 2 -8 3t-9 3l-30 -20 q-15 -10 -29 -21q-20 -16 -35 -38q-17 -24 -17 -43q0 -15 12 -24q9 -6 26 -6q12 0 28 3z" />
<glyph unicode="&#xe2c;" horiz-adv-x="825" d="M168 704q5 21 18.5 30t27.5 7.5t24 -13.5t8 -33q-9 -79 -20.5 -157t-21.5 -157l-8 -66q-5 -34 -8 -69t-4 -69v-17q0 -25 2 -49q24 33 42.5 68t35.5 71l35 70q18 35 42 68q19 15 37 13t29 -22q19 -34 24 -72.5t6.5 -77.5t5 -78t19.5 -75h2q14 14 29 27.5t26 29.5 q18 26 31.5 68t23 92.5t15 105t7.5 104.5q-40 -12 -82 -18q-17 -2 -35.5 -2.5t-36.5 2.5t-33.5 11t-26.5 23q-18 27 -19 57.5t10 60t31.5 56t45.5 44.5q4 3 16.5 13.5t28 21.5t31.5 19q15 7 28 7h3q36 -4 58.5 -21t35.5 -41.5t18 -55t7 -61.5q26 12 52 27l49 29q18 6 31.5 2 t20.5 -14q6 -9 6 -21q0 -17 -14 -32q-67 -43 -144 -77q-1 -27 -3.5 -54t-3.5 -54q-2 -25 -6.5 -63t-13.5 -81t-22.5 -88t-32.5 -84t-44.5 -69t-58.5 -42q-6 -2 -15 -2q-5 -1 -9 -1l-9 1q-9 0 -16.5 0.5t-9.5 0.5q-15 2 -23 8t-15 20q-14 31 -21.5 57.5t-11.5 53t-6 54.5 l-3 62q-27 -63 -62 -120t-75 -114q-11 -12 -21 -16t-25 -2l-16 6q-7 3 -15 5q-9 6 -14.5 11.5t-10.5 15.5q-7 62 -7 125q0 21 1 41q3 84 13 167t23 166.5t24 166.5zM508 564q22 4 44 9t44 13q-2 39 -6 66q-2 14 -8.5 27.5t-11.5 27.5q-4 2 -8 3t-9 3l-30 -20 q-15 -10 -29 -21q-20 -16 -35 -38q-17 -24 -17 -43q0 -15 12 -24q9 -6 26 -6q12 0 28 3z" />
<glyph unicode="&#xcd;" horiz-adv-x="708" d="M381 546q18 1 29 -7.5t13.5 -20.5t-4.5 -25t-23 -23q-24 -4 -48 -23t-46.5 -46t-42 -59t-35 -63.5t-27 -60t-16.5 -46.5q-6 -21 -6.5 -45t6 -42.5t22 -27t41.5 1.5q46 14 87 52t75.5 89t61 111t42.5 118.5t21 112.5q2 19 2 36q0 31 -6 55t-23.5 32.5t-39 7t-43.5 -9 t-38 -14.5q-26 -12 -54 -29.5t-53.5 -39t-46.5 -46t-34 -51.5q-6 -14 -7.5 -28t-5.5 -28q-8 -17 -21 -24.5t-25.5 -6t-22 11.5t-9.5 28q5 19 7 38.5t11 36.5q14 29 42 62t62 63t70.5 53.5t68.5 33.5l42 14q21 7 42 12q18 6 35 6q8 0 16 -1q24 -4 44.5 -16t36 -30.5 t23.5 -40.5q11 -28 11 -64q0 -9 -1 -17q-3 -48 -13.5 -96.5t-23.5 -93t-20 -73.5q-12 -44 -35.5 -85.5t-49.5 -81.5q-24 -35 -57 -70t-72.5 -60t-83.5 -36q-19 -5 -39 -5l-49 8q-33 10 -49.5 30t-21.5 47q-2 14 -2 31q0 12 2 25q3 31 9 61q5 27 26.5 75t51.5 99t64 95.5 t64 63.5q19 13 32 17t34 9z" />
<glyph unicode="&#xe2d;" horiz-adv-x="708" d="M381 546q18 1 29 -7.5t13.5 -20.5t-4.5 -25t-23 -23q-24 -4 -48 -23t-46.5 -46t-42 -59t-35 -63.5t-27 -60t-16.5 -46.5q-6 -21 -6.5 -45t6 -42.5t22 -27t41.5 1.5q46 14 87 52t75.5 89t61 111t42.5 118.5t21 112.5q2 19 2 36q0 31 -6 55t-23.5 32.5t-39 7t-43.5 -9 t-38 -14.5q-26 -12 -54 -29.5t-53.5 -39t-46.5 -46t-34 -51.5q-6 -14 -7.5 -28t-5.5 -28q-8 -17 -21 -24.5t-25.5 -6t-22 11.5t-9.5 28q5 19 7 38.5t11 36.5q14 29 42 62t62 63t70.5 53.5t68.5 33.5l42 14q21 7 42 12q18 6 35 6q8 0 16 -1q24 -4 44.5 -16t36 -30.5 t23.5 -40.5q11 -28 11 -64q0 -9 -1 -17q-3 -48 -13.5 -96.5t-23.5 -93t-20 -73.5q-12 -44 -35.5 -85.5t-49.5 -81.5q-24 -35 -57 -70t-72.5 -60t-83.5 -36q-19 -5 -39 -5l-49 8q-33 10 -49.5 30t-21.5 47q-2 14 -2 31q0 12 2 25q3 31 9 61q5 27 26.5 75t51.5 99t64 95.5 t64 63.5q19 13 32 17t34 9z" />
<glyph unicode="&#xce;" horiz-adv-x="729" d="M335 501q18 1 30 -7t15.5 -19.5t-2 -24.5t-21.5 -22q-23 -6 -41 -24t-31.5 -42.5t-22.5 -54t-14 -58t-5.5 -53.5t3.5 -42q2 -8 7 -22t13.5 -27.5t20 -22.5t25.5 -7q26 6 44 27t29 41q30 52 51.5 109t33.5 113.5t14 110.5q1 15 1 29q0 39 -5 75l-62 -28q-31 -13 -61 -23.5 t-57 -17t-48 -7.5q-11 1 -24 1.5t-25.5 3t-22.5 9t-15 18.5q-3 9 -7.5 18.5t-4.5 20.5q1 29 24 58t54.5 53.5t66 41.5t60.5 22q19 3 35 3t30.5 -3t28.5 -9t30 -15q24 -14 42 -40q15 8 27.5 14t21.5 11l38 21q19 10 39 19.5t40.5 16t43.5 8.5h4q18 0 29 -9q14 -11 14 -27 q0 -12 -8 -22q-9 -13 -30 -17q-18 -1 -35.5 -7.5t-34.5 -15t-33 -18t-32 -17.5l-24 -13l-30 -15q2 -9 3.5 -17.5t3.5 -17.5q3 -23 3 -50q0 -29 -4 -62q-6 -64 -22 -130.5t-37.5 -128t-45.5 -103.5q-9 -16 -23 -34.5t-32 -34.5t-39 -27t-43 -12h-5q-28 0 -53 12 q-26 12 -46 33t-32 48t-15 54q-1 16 -1 34q0 31 4 67q5 54 23.5 105t53 92t88.5 58zM239 580q18 0 43 6t53 16t57 22l59 26q-20 22 -49 24q-5 1 -10 1q-24 0 -48 -9q-29 -10 -55.5 -30.5t-42.5 -43.5q-3 -4 -7 -12z" />
<glyph unicode="&#xe2e;" horiz-adv-x="729" d="M335 501q18 1 30 -7t15.5 -19.5t-2 -24.5t-21.5 -22q-23 -6 -41 -24t-31.5 -42.5t-22.5 -54t-14 -58t-5.5 -53.5t3.5 -42q2 -8 7 -22t13.5 -27.5t20 -22.5t25.5 -7q26 6 44 27t29 41q30 52 51.5 109t33.5 113.5t14 110.5q1 15 1 29q0 39 -5 75l-62 -28q-31 -13 -61 -23.5 t-57 -17t-48 -7.5q-11 1 -24 1.5t-25.5 3t-22.5 9t-15 18.5q-3 9 -7.5 18.5t-4.5 20.5q1 29 24 58t54.5 53.5t66 41.5t60.5 22q19 3 35 3t30.5 -3t28.5 -9t30 -15q24 -14 42 -40q15 8 27.5 14t21.5 11l38 21q19 10 39 19.5t40.5 16t43.5 8.5h4q18 0 29 -9q14 -11 14 -27 q0 -12 -8 -22q-9 -13 -30 -17q-18 -1 -35.5 -7.5t-34.5 -15t-33 -18t-32 -17.5l-24 -13l-30 -15q2 -9 3.5 -17.5t3.5 -17.5q3 -23 3 -50q0 -29 -4 -62q-6 -64 -22 -130.5t-37.5 -128t-45.5 -103.5q-9 -16 -23 -34.5t-32 -34.5t-39 -27t-43 -12h-5q-28 0 -53 12 q-26 12 -46 33t-32 48t-15 54q-1 16 -1 34q0 31 4 67q5 54 23.5 105t53 92t88.5 58zM239 580q18 0 43 6t53 16t57 22l59 26q-20 22 -49 24q-5 1 -10 1q-24 0 -48 -9q-29 -10 -55.5 -30.5t-42.5 -43.5q-3 -4 -7 -12z" />
<glyph unicode="&#xcf;" horiz-adv-x="571" d="M299 754q11 4 20 4q8 0 15 -3q14 -6 20 -18.5t2 -28t-22 -26.5q-21 -11 -42 -25t-38 -31l-28 -28q-15 -13 -27 -29q-20 -25 -18.5 -41t14.5 -24.5t34.5 -11t42.5 0.5q16 2 31 5.5t29 8.5t35 17t43 19t42 4t32 -28q6 -13 6 -24q0 -5 -2 -10q-3 -16 -12 -31t-19.5 -30 t-15.5 -30l-31 -101q-16 -50 -30.5 -100.5t-24.5 -102t-13 -104.5q-6 -17 -18 -24q-11 -7 -21 -7l-5 1q-12 1 -22.5 11t-12.5 28q3 50 12 98t21.5 95t27.5 94l29 94q5 17 10 32t11 29q-7 -4 -13 -5q-38 -14 -85 -20q-18 -3 -35 -3q-27 0 -51 6q-41 10 -68 39q-23 25 -23 72 q0 7 1 14q2 28 23.5 60t52 62t64 54t59.5 38z" />
<glyph unicode="&#xe2f;" horiz-adv-x="571" d="M299 754q11 4 20 4q8 0 15 -3q14 -6 20 -18.5t2 -28t-22 -26.5q-21 -11 -42 -25t-38 -31l-28 -28q-15 -13 -27 -29q-20 -25 -18.5 -41t14.5 -24.5t34.5 -11t42.5 0.5q16 2 31 5.5t29 8.5t35 17t43 19t42 4t32 -28q6 -13 6 -24q0 -5 -2 -10q-3 -16 -12 -31t-19.5 -30 t-15.5 -30l-31 -101q-16 -50 -30.5 -100.5t-24.5 -102t-13 -104.5q-6 -17 -18 -24q-11 -7 -21 -7l-5 1q-12 1 -22.5 11t-12.5 28q3 50 12 98t21.5 95t27.5 94l29 94q5 17 10 32t11 29q-7 -4 -13 -5q-38 -14 -85 -20q-18 -3 -35 -3q-27 0 -51 6q-41 10 -68 39q-23 25 -23 72 q0 7 1 14q2 28 23.5 60t52 62t64 54t59.5 38z" />
<glyph unicode="&#xd0;" horiz-adv-x="605" d="M181 469q-14 -16 -29.5 -17.5t-27 7t-15.5 23.5q-1 5 -1 9q0 12 8 25q32 39 71.5 68.5t83.5 51.5t91.5 37.5t95.5 26.5h4q15 0 26 -8q12 -8 16 -20q1 -5 1 -10q0 -7 -3 -16q-6 -13 -22 -23q-41 -9 -82.5 -21.5t-80.5 -31t-74 -43.5t-62 -58zM184 94q-14 -8 -26 -8h-4 q-15 2 -24 11q-11 11 -11 28q0 12 8 26q59 57 123.5 101.5t137.5 77.5q11 4 20 4q8 0 14 -3q15 -6 21 -19q4 -7 4 -16q0 -5 -2 -12q-4 -15 -22 -26q-68 -31 -126.5 -71.5t-112.5 -92.5z" />
<glyph unicode="&#xe30;" horiz-adv-x="605" d="M181 469q-14 -16 -29.5 -17.5t-27 7t-15.5 23.5q-1 5 -1 9q0 12 8 25q32 39 71.5 68.5t83.5 51.5t91.5 37.5t95.5 26.5h4q15 0 26 -8q12 -8 16 -20q1 -5 1 -10q0 -7 -3 -16q-6 -13 -22 -23q-41 -9 -82.5 -21.5t-80.5 -31t-74 -43.5t-62 -58zM184 94q-14 -8 -26 -8h-4 q-15 2 -24 11q-11 11 -11 28q0 12 8 26q59 57 123.5 101.5t137.5 77.5q11 4 20 4q8 0 14 -3q15 -6 21 -19q4 -7 4 -16q0 -5 -2 -12q-4 -15 -22 -26q-68 -31 -126.5 -71.5t-112.5 -92.5z" />
<glyph unicode="&#xd1;" d="M-250 1087q14 12 28.5 12.5t24.5 -7t14 -21.5t-2 -31q-8 -10 -9 -21.5t-1 -23.5q1 -2 1.5 -5t2.5 -5q15 -2 33 3t35.5 13.5t33.5 17.5l27 16q60 34 116.5 72.5t116.5 73.5q11 4 20 4q8 0 14 -3q15 -6 21 -19q4 -7 4 -16q0 -5 -2 -12q-4 -15 -22 -26q-23 -13 -53 -34 l-65 -42l-69 -46q-36 -22 -71 -40.5t-66.5 -30.5t-56.5 -13q-14 0 -28 2.5t-28 4.5q-10 5 -15.5 10.5t-11.5 16.5q-7 18 -12 37.5t-5 39t5.5 38.5t19.5 35z" />
<glyph unicode="&#xe31;" d="M-250 1087q14 12 28.5 12.5t24.5 -7t14 -21.5t-2 -31q-8 -10 -9 -21.5t-1 -23.5q1 -2 1.5 -5t2.5 -5q15 -2 33 3t35.5 13.5t33.5 17.5l27 16q60 34 116.5 72.5t116.5 73.5q11 4 20 4q8 0 14 -3q15 -6 21 -19q4 -7 4 -16q0 -5 -2 -12q-4 -15 -22 -26q-23 -13 -53 -34 l-65 -42l-69 -46q-36 -22 -71 -40.5t-66.5 -30.5t-56.5 -13q-14 0 -28 2.5t-28 4.5q-10 5 -15.5 10.5t-11.5 16.5q-7 18 -12 37.5t-5 39t5.5 38.5t19.5 35z" />
<glyph unicode="&#xd2;" horiz-adv-x="503" d="M144 680q-16 9 -22 22q-4 9 -4 18v8q3 12 14 21t29 9q26 -5 53.5 -7t51.5 -14q36 -17 57.5 -42.5t33.5 -56t16 -65.5t6 -70q1 -14 1 -28q0 -35 -6 -69q-7 -47 -19.5 -95t-27 -96.5t-26.5 -98.5q-3 -14 -8 -30.5t-7 -33.5q9 -17 0 -39q-2 -2 -3.5 -5t-3.5 -6 q-16 -18 -34 -18h-5q-21 3 -34 27q-2 12 -2 24q0 20 5 41l15 62l18 74l18 64l15.5 65t14.5 75q4 27 8 64q3 20 3 39q0 17 -2 35q-4 36 -19 66.5t-49 43.5q-20 8 -42.5 10t-44.5 6z" />
<glyph unicode="&#xe32;" horiz-adv-x="503" d="M144 680q-16 9 -22 22q-4 9 -4 18v8q3 12 14 21t29 9q26 -5 53.5 -7t51.5 -14q36 -17 57.5 -42.5t33.5 -56t16 -65.5t6 -70q1 -14 1 -28q0 -35 -6 -69q-7 -47 -19.5 -95t-27 -96.5t-26.5 -98.5q-3 -14 -8 -30.5t-7 -33.5q9 -17 0 -39q-2 -2 -3.5 -5t-3.5 -6 q-16 -18 -34 -18h-5q-21 3 -34 27q-2 12 -2 24q0 20 5 41l15 62l18 74l18 64l15.5 65t14.5 75q4 27 8 64q3 20 3 39q0 17 -2 35q-4 36 -19 66.5t-49 43.5q-20 8 -42.5 10t-44.5 6z" />
<glyph unicode="&#xd3;" horiz-adv-x="548" d="M169 660q-18 -11 -33.5 -7t-24 15.5t-7 27t17.5 29.5q17 15 42.5 18.5t54 -1t57.5 -15t53.5 -25.5t42.5 -33t24 -35q21 -57 24 -109q1 -14 1 -28q0 -37 -6 -73q-8 -49 -23 -96l-31 -94q-15 -48 -26.5 -97t-12.5 -102q4 -11 0.5 -22t-11.5 -18.5t-21 -9.5h-5q-10 0 -22 5 q-15 9 -19 24.5t-3.5 33.5t4.5 36t6 30q9 54 27 106l35 106q17 54 27 108q5 29 5 58q0 25 -4 50q-4 26 -14.5 51t-34.5 40q-3 2 -19 9.5t-36 14t-39.5 9t-28.5 -5.5zM-269 944q-2 17 -2 31q0 9 1 17q2 19 10 35q-8 12 -6 27.5t17 28.5q37 18 69.5 30t65.5 16q12 2 26 2 q19 0 40 -4q33 -6 71 -23q10 -7 14.5 -13t7.5 -18q0 -8 0.5 -20t0.5 -13q0 -14 -6 -25q-17 -29 -43.5 -51t-58 -37.5t-65.5 -24.5t-65 -13q-5 0 -12.5 2t-15.5 5l-13 6q-6 2 -8 2q-14 8 -20 16.5t-8 23.5zM-40 1045q-20 9 -41 9q-6 0 -11 -1q-28 -3 -55 -13q-1 -1 -1.5 -2 t-2.5 -2l-23 -24q-8 -10 -12.5 -17t-5.5 -12t-1 -11q7 -2 14 -2q11 0 23 4q23 6 45.5 18.5t42 27t28.5 25.5z" />
<glyph unicode="&#xe33;" horiz-adv-x="548" d="M169 660q-18 -11 -33.5 -7t-24 15.5t-7 27t17.5 29.5q17 15 42.5 18.5t54 -1t57.5 -15t53.5 -25.5t42.5 -33t24 -35q21 -57 24 -109q1 -14 1 -28q0 -37 -6 -73q-8 -49 -23 -96l-31 -94q-15 -48 -26.5 -97t-12.5 -102q4 -11 0.5 -22t-11.5 -18.5t-21 -9.5h-5q-10 0 -22 5 q-15 9 -19 24.5t-3.5 33.5t4.5 36t6 30q9 54 27 106l35 106q17 54 27 108q5 29 5 58q0 25 -4 50q-4 26 -14.5 51t-34.5 40q-3 2 -19 9.5t-36 14t-39.5 9t-28.5 -5.5zM-269 944q-2 17 -2 31q0 9 1 17q2 19 10 35q-8 12 -6 27.5t17 28.5q37 18 69.5 30t65.5 16q12 2 26 2 q19 0 40 -4q33 -6 71 -23q10 -7 14.5 -13t7.5 -18q0 -8 0.5 -20t0.5 -13q0 -14 -6 -25q-17 -29 -43.5 -51t-58 -37.5t-65.5 -24.5t-65 -13q-5 0 -12.5 2t-15.5 5l-13 6q-6 2 -8 2q-14 8 -20 16.5t-8 23.5zM-40 1045q-20 9 -41 9q-6 0 -11 -1q-28 -3 -55 -13q-1 -1 -1.5 -2 t-2.5 -2l-23 -24q-8 -10 -12.5 -17t-5.5 -12t-1 -11q7 -2 14 -2q11 0 23 4q23 6 45.5 18.5t42 27t28.5 25.5z" />
<glyph unicode="&#xd4;" d="M-68 957q15 -4 23 -13t10 -20q1 -3 1 -6q0 -7 -3 -14q-5 -11 -15 -18q0 -14 -6.5 -24.5t-16.5 -15.5q-7 -2 -14 -2q-5 0 -10 1q-12 3 -24 15q-2 5 -5 9.5t-5 9.5q-40 2 -79.5 4.5t-80.5 7.5l-88 11q-43 6 -88 17q-15 4 -34 10t-37 14t-34.5 19t-26.5 25q-12 17 -13 40v5 q0 21 7 40q7 23 20.5 41.5t31.5 26.5l36 16q18 7 37 11q17 3 35 3q16 0 32 -2q34 -6 67 -18.5t64 -29.5l57 -32q45 -26 78.5 -58.5t60.5 -72.5h20zM-531 1033q27 -19 66.5 -32t85 -21t94 -12.5t94.5 -6.5q-45 45 -102.5 77t-117.5 45q-11 3 -32 3q-3 1 -5 1q-19 0 -37 -5 q-21 -4 -36 -16q-11 -9 -11 -24q0 -4 1 -9z" />
<glyph unicode="&#xe34;" d="M-68 957q15 -4 23 -13t10 -20q1 -3 1 -6q0 -7 -3 -14q-5 -11 -15 -18q0 -14 -6.5 -24.5t-16.5 -15.5q-7 -2 -14 -2q-5 0 -10 1q-12 3 -24 15q-2 5 -5 9.5t-5 9.5q-40 2 -79.5 4.5t-80.5 7.5l-88 11q-43 6 -88 17q-15 4 -34 10t-37 14t-34.5 19t-26.5 25q-12 17 -13 40v5 q0 21 7 40q7 23 20.5 41.5t31.5 26.5l36 16q18 7 37 11q17 3 35 3q16 0 32 -2q34 -6 67 -18.5t64 -29.5l57 -32q45 -26 78.5 -58.5t60.5 -72.5h20zM-531 1033q27 -19 66.5 -32t85 -21t94 -12.5t94.5 -6.5q-45 45 -102.5 77t-117.5 45q-11 3 -32 3q-3 1 -5 1q-19 0 -37 -5 q-21 -4 -36 -16q-11 -9 -11 -24q0 -4 1 -9z" />
<glyph unicode="&#xd5;" d="M-147 869q-5 14 -8 28.5t-7 28.5q-85 2 -169 7t-168 19q-10 2 -26 5.5t-33.5 9t-34.5 14t-29 19.5t-16 26q-2 5 -2 12q0 9 4 21q16 41 46 65t68 36q36 11 77 11q2 0 4 -1q43 0 85 -8.5t79.5 -24t65.5 -34.5q26 -18 48 -36.5t39 -40.5l27 54l18 36q8 15 19 32l28 45 q15 12 30 12h2q16 -1 26 -11q11 -11 11 -28q0 -15 -12 -30q-18 -24 -26.5 -37t-14.5 -25t-12 -28.5t-20 -48.5q11 -7 15.5 -18t2.5 -21.5t-10 -19.5t-23 -12q-2 -14 -3.5 -27t-3.5 -26q-5 -15 -15 -23t-21.5 -8t-22.5 6.5t-18 20.5zM-548 1047q25 -12 63.5 -19.5t84.5 -12.5 t96 -7t97 -3q-18 17 -40.5 30t-47 23t-48.5 17t-45 11q-20 4 -42 6h-14q-16 0 -31 -2q-22 -4 -41 -14t-32 -29z" />
<glyph unicode="&#xe35;" d="M-147 869q-5 14 -8 28.5t-7 28.5q-85 2 -169 7t-168 19q-10 2 -26 5.5t-33.5 9t-34.5 14t-29 19.5t-16 26q-2 5 -2 12q0 9 4 21q16 41 46 65t68 36q36 11 77 11q2 0 4 -1q43 0 85 -8.5t79.5 -24t65.5 -34.5q26 -18 48 -36.5t39 -40.5l27 54l18 36q8 15 19 32l28 45 q15 12 30 12h2q16 -1 26 -11q11 -11 11 -28q0 -15 -12 -30q-18 -24 -26.5 -37t-14.5 -25t-12 -28.5t-20 -48.5q11 -7 15.5 -18t2.5 -21.5t-10 -19.5t-23 -12q-2 -14 -3.5 -27t-3.5 -26q-5 -15 -15 -23t-21.5 -8t-22.5 6.5t-18 20.5zM-548 1047q25 -12 63.5 -19.5t84.5 -12.5 t96 -7t97 -3q-18 17 -40.5 30t-47 23t-48.5 17t-45 11q-20 4 -42 6h-14q-16 0 -31 -2q-22 -4 -41 -14t-32 -29z" />
<glyph unicode="&#xd6;" horiz-adv-x="2" d="M-209 1111q9 -9 15 -18q21 19 48.5 31.5t55 16.5t52.5 -3t42 -26q26 -29 31 -60q2 -11 2 -21q0 -21 -7 -41q-10 -29 -32 -53t-50.5 -39t-60.5 -18q-5 -1 -11 -1q-25 0 -49 12q-15 8 -22 22q-5 2 -10.5 4t-10.5 7q-32 10 -68 13.5t-73 4.5h-36.5h-35.5q-8 -1 -15 -1 q-27 0 -52 2q-14 1 -34.5 5t-43 11.5t-44 18.5t-36.5 25.5t-22 32.5q-3 10 -3 20t3 22q4 12 15 25.5t23.5 25.5t23 20.5t12.5 10.5q18 18 43 31t50 16q42 6 78 6h10q40 -1 75.5 -12.5t68.5 -33.5t68 -56zM-595 1055q40 -23 84 -30.5t90 -8.5q30 -1 60 -1l30 1h7q42 0 83 -6 q-13 35 -40 62t-61.5 43.5t-72.5 20.5q-11 1 -21 1q-27 0 -52 -7q-22 -6 -35.5 -13t-24 -15.5t-21.5 -19.5zM-142 981q0 -1 1 -2q2 -2 3 -2q10 -8 15 -15q18 1 36 11t30 24q16 17 16 34q0 13 -11 23q-7 7 -20 7q-5 0 -9 -1q-20 -3 -38.5 -12t-30.5 -22q-8 -8 -8 -16 q0 -3 1 -6l8 -12z" />
<glyph unicode="&#xe36;" horiz-adv-x="2" d="M-209 1111q9 -9 15 -18q21 19 48.5 31.5t55 16.5t52.5 -3t42 -26q26 -29 31 -60q2 -11 2 -21q0 -21 -7 -41q-10 -29 -32 -53t-50.5 -39t-60.5 -18q-5 -1 -11 -1q-25 0 -49 12q-15 8 -22 22q-5 2 -10.5 4t-10.5 7q-32 10 -68 13.5t-73 4.5h-36.5h-35.5q-8 -1 -15 -1 q-27 0 -52 2q-14 1 -34.5 5t-43 11.5t-44 18.5t-36.5 25.5t-22 32.5q-3 10 -3 20t3 22q4 12 15 25.5t23.5 25.5t23 20.5t12.5 10.5q18 18 43 31t50 16q42 6 78 6h10q40 -1 75.5 -12.5t68.5 -33.5t68 -56zM-595 1055q40 -23 84 -30.5t90 -8.5q30 -1 60 -1l30 1h7q42 0 83 -6 q-13 35 -40 62t-61.5 43.5t-72.5 20.5q-11 1 -21 1q-27 0 -52 -7q-22 -6 -35.5 -13t-24 -15.5t-21.5 -19.5zM-142 981q0 -1 1 -2q2 -2 3 -2q10 -8 15 -15q18 1 36 11t30 24q16 17 16 34q0 13 -11 23q-7 7 -20 7q-5 0 -9 -1q-20 -3 -38.5 -12t-30.5 -22q-8 -8 -8 -16 q0 -3 1 -6l8 -12z" />
<glyph unicode="&#xd7;" d="M49 1215q13 -9 18 -20q4 -8 4 -17q0 -13 -9 -24q-7 -8 -18 -12q-16 -20 -33 -56t-33 -74t-28 -70.5t-18 -45.5q-12 -14 -26 -17q-5 -1 -9 -1q-9 0 -16 4q-11 6 -17.5 18.5t-3.5 30.5l6 14l6 14q-6 -17 -16 -32t-24 -20q-19 -8 -36 2t-27 27l-5 10q-3 4 -5 9q-1 0 -1 1 q-1 1 -1 1.5t-1 1.5q-22 2 -45 2t-46 1l-137 8q-70 5 -135 26q-54 17 -81.5 47.5t-29.5 65.5v6q0 32 20 65q23 35 69 63q36 22 75 31q29 6 57 6h23q39 -4 76.5 -20t69.5 -44q43 -37 75 -86t60 -100h1q2 5 3 10t3 10l17 56q7 23 16 43.5t21 42t31 48.5q14 12 28.5 12.5 t24.5 -7t14 -21.5t-2 -31q-17 -24 -27.5 -42.5t-18 -36.5t-13.5 -38.5t-15 -48.5q-3 -12 -7 -30.5t-11 -37.5q12 29 21.5 58t23.5 57l16 36q9 20 20 40.5t24 38t28 26.5q12 7 22.5 5.5t21.5 -5.5zM-332 1042q10 -1 19.5 -1t19.5 -1q-1 1 -1 1.5t-1 1.5q-18 30 -38.5 60 t-47.5 53q-30 26 -69 37q-26 8 -52 8q-11 0 -23 -2q-37 -5 -67.5 -27t-44.5 -63q9 -15 24.5 -24t33.5 -14.5t36.5 -8.5t33.5 -6q41 -6 88.5 -9t88.5 -5z" />
</font>
</defs>
</svg>
